<mxfile host="65bd71144e">
    <diagram id="I_vVvDr25HjtXhju2JVv" name="Page-1">
        <mxGraphModel dx="1054" dy="779" grid="1" gridSize="10" guides="1" tooltips="1" connect="1" arrows="1" fold="1" page="1" pageScale="1" pageWidth="850" pageHeight="1100" math="0" shadow="0">
            <root>
                <mxCell id="0"/>
                <mxCell id="1" parent="0"/>
                <mxCell id="7" value="" style="shape=image;verticalLabelPosition=bottom;labelBackgroundColor=default;verticalAlign=top;aspect=fixed;imageAspect=0;image=data:image/jpeg,/9j/4AAQSkZJRgABAQAAAQABAAD/2wCEAAQEBAQEBAQFBQQGBgYGBgkIBwcICQ0KCgoKCg0UDQ8NDQ8NFBIWEhESFhIgGRcXGSAlHx4fJS0pKS05NjlLS2QBBAQEBAQEBAUFBAYGBgYGCQgHBwgJDQoKCgoKDRQNDw0NDw0UEhYSERIWEiAZFxcZICUfHh8lLSkpLTk2OUtLZP/CABEIAZoC2AMBIQACEQEDEQH/xAAdAAACAgMBAQEAAAAAAAAAAAAFBgQHAgMIAQAJ/9oACAEBAAAAABh21H5QUYKPW1VrXmG/d5l9vY91jdePI8WFr2qanRl8NZbwiV42O+CMqb9MPbJIMzdYnYd5ERvFPMTM64rIyNlMJaVxNkPOCgtCMpe05aD+yM3RklJ5X542zvr5Pm9S3ImSBda02sZbs8drj0nbcDCycU1UW1RVTVJYEvuNZQpDXmqxJWGucRItlkdP9Hs/1dfl2Oe7H116B0/eY+7sLrv42EVa85uUy9mWAaNXFMplIM18NOVq5rmREyYJz58GsarBbM/Hrtm3tacpSVusBGWARTVVnIksA/fvssMimuKVNnW21emLjZfqQ/MSa3tXgSJjt+xixX7rJ/kjQOKRUzGSE7iJIxSSLEOsfPgr7Rm3tREyRkaAiagj/Xbte7flCukSGsJJVp2rNbIwyZGAR/fMfvsj3gowxtjK32jednzKS/NPa1ODfN81+zieoI3dAsEJaVWtjCgJ7JUSeo3TXlLr26Niv3yyrlcr5YgTkY4aFFGZO57z1rqHVCLGhA2mxWoPQlIScRcSFpx+2feH9ggu3OpQm5Wbepqp+BiFnWcaDBQa1PeWCVMsgwvq8lmUa4rwLcVi0snGnWqQMBX8mdjl9YWkqrkztm3PdFSulOwSyWj17XQTUEDPV32jroLm7oO3aRD0UhfY7PNxjIezP1ixIh93s1krimW5gMbdE2IoznMn9DJ5bYIExVNaKI761ZwFjvunVVgmUAM7K3TYCvTCFM2YZZzsenLo0K6UlLUsXWawzdAWhtqzf1Gr7Y3NOLnAMqqvKr602+x3bBRr0PNb44vWCarDLz9Y3ObqFBFEVftXI1oU5TAQdqtx5JiLXq9SsVok1W4bZY9aA0sP2+efSmKz2ApuDrsQ1EgwX9/T26wTKeH1GpMdmEEjH2cBqiQh6HBQkY4xsLmHrctdTFvxiR1tbk4oI656CtgBwCdNy3D9IsqfxZKeUkyQ+1E96sMwoKtBG/P7Hx+nCnexrXY10nAWSzuoUkkW9atYR5khj8yCjVSw7MZk0KuhqS2ltE90vpzxqjmmLad9RhoVQAPJGq4tz6i3PdAo/V524g6bYLTzwqOqAWrYDYELyYNDpgnftzNs3QJ/K3mSAnTY45BHvpVQjKFiMtSqfsCS/nUeu7SuXGvqeAAl3TKkmuy5KsKnTl0pcwLBSTSJQTWHU8+t6OtCMef633q0K3DLZXdYIFcilpkgfEvRqqG2NFn3NOZk3G/FcExF1BeFPCHjXEjaLst0JLFX1b1Ja+iJqTgu5eDq64rRZvQN6V8py11yOWBoFTINEonQr+Y9kq9L2gtgEGE5dEueiTGBVBznnWIU3qxI74S8v2B3kDFVhoVm/reGCZVyuqrsK7KTQqslCCVlOLK3lub2N7cAFLF2plhVsnk0pZvS+tyUdqc2tX0w0uPFrs5cRrQPQRPUpDjmvLBk9I3kiI5BrbkqodsLiYIew+lbogVz70+0B69CK/SKrTrqwkOeqT6AZqIrS66x3XBfx5WVZiEnL7X2Jm9pSABVeep1j2JbCep0tUjp2Mhot22D9yFBtuv1ZqvNF506pAVkoaH25uuExMFGrAOgUZq455rP+fSM43QXaSzUbrNiIdZOnOD/AHXZS7WT2ycec9kn93XrevhoGA16oKE6lZlPpJuR6qdZ/OTB0YBpilbDQhXRDeqo3T1HMzCV54p6rugbhsLYMC1zUa1ZpTqVXeIbXvXHpqpdKr3kv73Nh6Eto+sT6q2iKtyPWhXZ6/RVCkakvex98G2fstkHKewUlyHbl/VEmDZcOc6WHbwJj1Dajoa8Hctzly0ZE/oLakCkuEkiH1dZMYaLQI+FWfogOrVudXdDsN2BrdQr3IHufQnZgSqa1ti8tSXz80VXaQ9ZtBT+3wIl2lV4hNTJ70yko+5K5qdugq3Rxc7H62mqgK80kq7MIHWpdC5aWLY0Wb2PpicgVsifo01c0nNVp0dQbj0VVjBdfgCdiJalmhrN4ZP9tXyAA0+ldbHvVLlzRW0j5X6isJ5ACDiMubxQ2vefWXtXpSXIC811/c9v1ifY6OG9KVUpVWKBsjSS9tM3X9BrlkTDzPY/PoR8NnOIqtsW7AMa3bV0tRPcPi1e/plTWA8cMfoZYCXNFK81rLbqO4YfYQgrJT7v7IOIEBCtgu6V9x9TYqy+ybeWq1WKZ6UYGWijrwmPHMaOMt5YXYvQ1YXj4oViazWdbtCvhiwFU5z+ITbv7mzVaJsK7Qw1XrBPqexxbeydLtldb3LGgUy8j43kavjwSS2VoUq/oW5QZambLbm0BR/OOxy/SmfXaIg072w01txAM6K19KchrN2dC0RXFr3mkIqJYTRVyMtTpth2wbXrLrz872GOD6oLWxYVkI1W1nFkJNXtl2UI5/ofXBQcJpzlF4tJ5alOaolGOpSdBRz9WE72o3dFbusLUpDmF97i3cw2gM54SbmX01YQLm/SD89JzHfaxdRFWhHtHvDhhLagpLqiPtCUyYpCrtF6W4x37NXR9XgF2rSCy3gyp3qv7EwKrPjqrepYt4sbW4aFes6JtBgqjmK3Vt5s8W6W0UHozVZUaG6r1ac0N4Dnazi9g9X8dotD/qTDZw4Rnh77TqgvyDeaEha2i1F2BaqUo4yQovpiPXK+yQ01fQkOxY8W6enTVdR94qiub13oHr4emxmksTNitSyu874d3WO24UDSwcIhaehzV1NSzUSQeHwKRtMXU9eMP6p8+u9cdSQqasXbSVu8w9J18Rr4lXzTd9Z0C7bxay337EBpcwwhBk9RNSlHPt35OXmipNrSHFWjaZiWyASTJqmidSl86ZyCGio+bgvObn0R1FSmdmKyDYLPz3V3UnKji43c7qFeNYfBQthz5+cufXmmMOmbFUEisqvVJZbc7W45jSMXXPRq73gq+202M/XaJzgcmJfl6hbpnt25DXD3PdOAOm7LT2Nl0SsiIbKottH1JanZGXygQR4zbUw3rjk89YFwUcro3jZHjXMc5HZa+eaoqO0Xa2EZCCEYe8sUKXFN27MJIxMi1Qn1oC8/QvYmDX7apKUS2oEV0BLLRXiTmndC9OqfEtidhC11VeoAevN8tXD9oKLTQtENVkl2eg2Czi1BVxLR3KaVtYFT88DCHaM4dnqEzyN9F1785BxoLnWT3RB56qwJhj+q6AkbAaArxotmWwKcqn6URYgwty9WveDIdDSLYNogTJjNhQ6YpWGUoy0CPEbr2Bzoq146BHNVXRhAh9AmrenbKjjGGwqpxz+9275MudJzzl7dmpq2VHVmrHH9Pl/mO5asrDSLnCLZ3XjEP1kZYcWekrusdmHwZ6CGsWwuZbGtSo0WjcuobdMiPzRqm/b8sNfoBWhKuGiNn8H0Y547dsu0Xmjd0+dL92zNGO2QWKS5kCHvH0QCw2fo0NURA6yKiUV8dfrEJcEIMg2cB6EODxhIGIahE57rykFrpLMeo3mUVqeunmWVLFw1wAGumgNOZCbt2yJczCds2WIoBJU2QSkH3ALlN1aZ+zLUoxMUyo4eH6tE6e4i2QR3aqKjo/Zdsx+Wyakn7rouaImUYudU2zDrJv8AaR5Wuyb9rOVkqdC3cLpNFq+tQfQVO9mWrTlalTZcUXk7TiXgVfRhMToXtbC2O2uDo+2a9MeMqjR8eixcb9L17iOdSBtz/U2MlV9JsOQtSa7qtttzSpVJJs7lmpLr69avqcryhRrseFIkTpLqtfqStqUrlq7kZrKmc2cp1V+uZRHOlNcMFJKxppMAFDy5+9o2xNkD3ESO0LEEZAp5bw7Ps3gCaJuV3uQM+pvOJzqn4Epb97CLCpYTiTqGiKa7s7DnzudPzl6E6XjViMSbst6rKZgP3E/SvWsO6NvPXArt+jz+jhefrYu8SPik/teEIPN2x5Gz7PLV6J0Q1KBHHINS7u+9Vb8g9Z2dzgpVA02X0m8Mi0gcBOX6UQtFWF1784P1GoqrLm6eW1lHt5oXcp+XJ1tRUZDobG4ejLP4t6ULT1PKGxKoGojTpalhGcws/aN0bs4+zd7vxzhD4QpQ1eRknn2X3DWjR5IsGpcMLEZcpUXRwDV+8T0t39yVR9+o3XWjfW4xslU30OToCHa4Lmg1Z78Y5Z5l6x6HZqjzXrorPY1ZUeuV0SxeukXvPIh8PhYyNGjWQmZaYEGCOS8NURS5rIdyC6QzdoFmtbYua1vSbYObvz3MXf1lNGI0kbakv1YC3LZH323h1B7OcIfH6t2yKckfnXrkyLXExXc3AKm0rUbaGfrtn1WsmLpvUDVdwG/okWFFl54wYK6I3DdVc84EelS4O0aZNWbIHodzD05nfFvkbme7OrKfuykay0kiTzBIXWxGTRasSpAmazqCv3skJqu41YnbtYolfbs5JElJ2pdagMQ5MT0kkeMdoWS0YaY2rXEyCAvM4sGjqQnXXNe2Ct6cvd6c9inBHRtLEYoGxgKvTm4alOTe+NFx1uRh6uhahuN6jBqk/OtZ6s6GO+UiqUC0X3cUmo6+H7LvfhfPvID5Ptm0jLDvQ8Ci9YdjzMY2mJCrzGXLw08nKc3odBcLKbKyPMM1JFR2FUkfWnFr6vecYB2OQLd5WPJ+pgJDl3/WFkOM0cn/AJyoXSV/1mbrdO5mbbrtBtXg7y+HE+wGmswlfui09udQVyobxTJdB8jP06lgYbm6s0TkLZN6xozZdDdza5ElDCS4vK6OShRPpRG5ysCo1W9Ot7VAkJEoNpnVNAt2R9t+qYK41pRNdhs6DtC07Sp6wenHr6rWF0+0QAHg0tqqFbX03SUObHKyy41ULliujDkNF2zu9KbqVyY66YEzbdFPQrGFNGVOBrkuFwWzQxjYJPs2VsJwIPHVUv8A2E5xPFMakwa1rFUqMFdTa5dBNngBM23F8o1Cc3yfJo2vvgKvnNkrhB2sSZsMSYcmjeddswp+j1f1ZVO1NvUOOuRegiw7+sgYN82iO8eya/TYhmP4u+2naeTOVCP6I2vuE0JOXV6urS6J5orS/wB/MJUBkhsbCVGqFTm6t22uJ110pzT+giGHl2aYQdmXX8pckb5RIj2ibXkCn0y9EZ7srOQIq4IJtu4HRbXMXoSLmz2SDBeNfK3M9a2H0Bb1pblfgAfqr6T1n1uq1UXg4vMeZDMeDgKdz4SzQnlirkiYDqOi4RgjTnmIuyxJa5yqOJlyu+7W87vV6yq2fespmDVaJL6+iwFi1SsEWrQ4w3Fim5Z+iea6G63dvmHQm0i/va0sv65XDApWhDU6zfLBSDESu/FkTDqgrbfiWQOKsD5nC6RRO52mep89iirAXmzJzbYrRJX06p1t12vC5Xuq1+hoS+hivINlwpMM27MIJTMvQEKxgxQVuclBABS3mQNQQVyVwHHzmRe+nAls8g1dWzFYjgAhHNSoEK6lxgs16+Sqg1E2I+RmyqQsqzWCxSMUIh1CvljS0e6KcZNZj9KtqYfoKe/vMsiFNgoEw5Yterq6rgXdnnnlcUtiWxCrayh1fMR+SKw+wq2rirM4OAcdiEHBim9xdj1YVpvKnWciULyk5AJ2M+M7KS0Ba6p5SaXJ6YXxES59HXFqRxuVgerr39Jn7WPIQkqzZFeRqaCjqOZJmcKbGN0JBaDEeCmnmpfqka3ts4QChChh1jYzg5JVp5ky2HZxsvJCi09ObXhjbCGz2GuVSpQCjuzeEKikE9AthC7rBkggstqey6Uv6CQCIsytwiFK2TpEuQNLqMObErlOe3vcBjTBAEZGhzDTRukBkfQVNGbCvGryTA66gi+LAV0BZ3A0xMZiTEEIyDX0dhKBtR8zipqdhuuBoaksVhHdSok6SUCOeGjJkLVtwnlxsgFG8Xq/EtTnoBZDQEaWZZmCaMgilLYYMmrL6wAUEWfbT92V2lgxSrXYZjcmcmf3TNukCjV6twvJpP5f2HivzPioNLqA3a1EURJMS6EIy9YotFlMe9DEexRqbIJ6YMfPaaPmSnw2DDWxZQuYKuPR2qr4T1cbV9OgIyGshhi0jAC7M1m5m8zv+FD1mv08XE9y+IeyZPxTUNmF4wOGzMK0IlEscchhIoiDIXumNhj5MIGTR+ZjED4CF+ASMFCZI0UJHB9m3Iw/eycIqqvLK4Igh1FQiGWIyzEs8CGkQsDPRQBcGRNGnXpk+/Z/e7pEHTnu+9+9i6I8L73OfPKHSs+TIhw4UaCMDxSpglMmzCcqVv2Tz9uWxJyz8+wEp4cKGhxoQdTUA242dlkpMqRolZ4ihkaMKHwokCDFjasMdPmHmr7PZ7ImTiZYlK37duQqFDHDYg+LNLEZxDft3bJcqVL3SijBfDVltz904hFUYEHQ4kfQOWEdH1njW6aYlzJUnXo06tkrLSLjRY0aLh9jr1R9e+dv3fTJmWmDp1CNMKLHGBcTZidIlypHvm36TKmzd+8kStW3vf/EABwBAAIDAQEBAQAAAAAAAAAAAAQFAgMGAQcACP/aAAgBAhAAAABXDNAm6DlP1FHaR+aSaDR5XWk3i5lhoF+KoGIGu1tTS6om4cPPysLpzE5a66IwVF49Mns7XSR1H5ag05y3M0gkSiSVcSeXPP4Z/a4XVZugpzpIL611tXZv5Ob+dF6hX6otfm0/bO2Fm0SnoOYhC2ZtSqsqhmbtPg6VPbrSX3W0u/L7czDQHhoUParKm5aqfNFTi/m1hiYq9GPPW28AVfMDCGdh9/PltuWtcMQ8tUrCOtNKQFr2pWNJ0rGORk+4LWyYxTDGHGfFnZjbcgBHNlsT1eZgIGxNiTmziGudWmHaITEuo6kXozGhOWwMAsJCDsoL7FYUjflopGClmgF5bVUO8uraCvlue0qLeS6tiKCwv7m9tlsr6BlS2wLVG7XVMDo/D/S4Mj0LiwvE6HM1EpGlW9tisBoLxzJ4+h5wu0qPtuhirdMCGf16FUOTdk8l6LpF3yuw6BmckbtrRc0g2KhGx09iNEbzQh52G2TMKWSWnUZ/zfcF98G1fuLEWgUNgoZq+fa+rALc5ubCXUwY+ci+jdyWa0foimq4nONGHlWB9d18fH/VnhlT+jKrj3QXKNPjfJNWxcuKXJYq5b5a+YzSbdtxWULRWCNmN89ueJkGhNWxhm9OdXVWzw2Rt1SzWaUm+n5dlML6Nr0hHGwuV0t+czroLQtQmeTc9My9ehzpL3lNabE6tkEXx1S7qtBBQvGfn2maHyxG0ozjvi43ReX+Xk+u6RcgSat0n1YUFWfHWadjWhciaqHwfIJmuDcONKvYzUGFcsmZT5zLTaLP+d3y3S5weGKAMTE4DOfOXOT1pyyjzj1BjVzLonTLRZHdKj+pXqHlDpXm8i9od645JmvnRIR4jQRSFqXJavmXO0ggOAX6Y0wWB8W1VrUrOLsmMxoYVbQnP0YreGswm5yZeCeyIAuyzvlVPnenMq+DAc2l6mk0a7EJilkd8AayzOhHxuleK3puftQ5d/vR8wl1V7nIAHEjeYejLFzVyQcyKziXR+P2aRoY9mrxPrPlFmpYtIyIzQ15MMvsVX2tz+b2WWs8L/SfEaLS8zjTW5USjEd2trjW45FmPbBfG1fr7wRzTChDTQ50WWD12dyvpHn/AJ2b7B0cjOFXlKbRlawXWaGjb+XDrtXplOEVE7LfC3F+bQ2fm/o4wDNaLpMiu1Ke4oXR45tXnmpNGYvJdl7HzGAd2rrbVFisRrDFOR9LTYvQ/E8D+zDhQ5Us69IHlddSss+pHVv9TovPgI3z0sVFRhhVYJGF0bPOIUe+P++wGptuVGl6jPIHXy6czI53Qb0jyA0Thx/aWpgchc07U6jmIo1AarQDxfLRAXDBgKH2REVv1g+h0svFH/2huPyqwrThpfkOJ3vq1XnOO9S0mD0CPjUSBBtBgRHKRQqqjCn7KXhun0LjtGXcCr7vPsZtmGzY5zund0eeibgL4i4vlaxWSvj99XYaSey549qr2OkvyaIvM5ptpC17bth7dHYXqZZ6IIw4o68qAzZwLy6zpBNmc2peQ5pRfNdLxuAR94b+j4Za4N4yG0oWeFoT2nrgtdnBnujHrrrhLluO9QYBioG2FawKp2AWC9KPz6U62sp8rJLqSlELami0I5hCqumiMfkPpwaewT5I8gDHYFecekUec5vSuZEuk9jidaNzHk6hp2d+hWLCupFqx17UlIbs6cnTqlsvPp6FkNk9mWPLyT0W3oLQxjX9R9K2dNQnKBco/wDq3xQDtuuBz5nhfstJeh6pzrN9FlgevDVFhjyyAvYlW0jiRpDzAJhWpSU6jWAZYfzbFeg+rdZ8Czqhw0PTecsWb2GL2pbtc2jCXKaODC5+tiFmng+p0EIqRsk3duWaSZ3lOjLYGYPN/UaJ4UcrRbl9XyNXIiDiJDkzTMdYO9RYrPUt8oNuzRiQ80Bss5LNc315y/uAzmr07nkRbIiUhpLA7c9XXqTPSOLazU4egmRINDh/V1OXZOxr1XK6MmebqHFP1la/iilahcm5C1xo9a7UFXcqEIon3KUb1AsdscPcsVlrAdOD9sybrqAeVAZ1jXZl7tP9vcktNaujIx5UCkJ1yD4nOpkqw8aFr4Vl3Vm9EH+Mz3El1AwDltlPUM3i2/oa7ZhBrGSpdosCGIO9hC9SY8WWHcNfTE5wpXSgJHKVnGYX1sFiLoEGnEOSvYrsjjHdApgDctewreIu2MG1g9kBSVlAQcFWtzazY5v0JzdEVhfkmqm3CgUSHLGf6uK7hX11htneWwRNqwRE9tegwtLWqvWJNDqxsw+XIWaCtSwW3cdeiA5+otkTC/tdtlS8ZqEMKCK/xDSUkzNW5a7JEKqGuqXa7MNkd5PokcyKY5rjfMcqVKym0yiijOuc02HtWjXhM9biLWSTQwWvFrxO5o0hWZKbFKrCx5FwhmzhrrxeULQpWWFqVZNJK4o2DCAX1bLm8zdlhDQgQQq0FvVb9l6mAdpPy8iobhbzKITkJVll1BxYgXWB25zMDHVKoeTdfdoFbHqzKcbBXQ7yZnBzEq0lcMUzWF130i3OC9CEZ0MESxuGG7Jg2nRnc380qEnPtZ53ahqBSAW6ouv7oulLss+EDE51wEBM61qx+pERoYsYLbpfWE3FkWShGMb6uyIJ+GEFpr5czXr+FXcYv5UxXJ1FN5gYds42kEW32XTn2f3IUh0U9lMq5aJHhVkCtVdTyhQnX1WM61RNUekTvvt7L7v1VcIfdt6f1XVT99f98VqTP//EABwBAAIDAQEBAQAAAAAAAAAAAAQFAgMGAQcACP/aAAgBAxAAAADWw1R2QztH0JHGWkwy9E5FiQj8VRF57uVpCQlvlKUe1lJTnkV99u8K1XAPMlkJOCazCRcwJ36+iPLCB47D1+O2KrV+T43l+gDXYuM3cd80fWCYXB1sS2HDvgMyJDv333LiBI7L1tm9v+B8Wyl1+kTB4kubSjetH7OOf8hHa2uZwgvzgtcu/fRIMFG1/rbPpQ93lWVZkuUKnK3zn97Babo5KvIFlrB38IEEkpplz6XCGIwGq9eEavhVGSxujZeiJvHcxHvO+3xLfEgeZZWbs4YMGIDJGJX9OxvZSt3fpS2LKldXjNy92qHx3ACy7Z72AwZsAMJjrnFYAh1gjhJpKAE5LzuxybDY5tBd27QYn1NF6Ri/Lcwlspv/AEMqbXHC5TL2GU3h7bJXaHJNIplXHL/ZjZelMBY10ROc0/kHsovku2xmb7P9Lr7BbZIM1cI9PThptjoc4Sxl5Oy2GsBWef0Du2rdzHO5L1DOnyQaLyNV39UrKEsSVIOZamSCVk5P067Muj/K3foOm+xQRmXUc3lWl8c2Y6Ro3QRnj6/1gpX5yhtS/wADNeumR3N806Qakhu32Ljzh+Elw/dSRmWbwYu/CxP2fnqj9TLl+T49cNfIwa169gwgEIaoZOx+aLTefMyTfP4NphZt3tkGf1Iavbeeq/0jSvxcmD8F5icFUIV8ycCqVbglvj2ulxn2h3CNKvCpD1Ak1uyJxjmvHfoH5djtWpTutZkMZclupLaN12f16x1ho+meffPFxjNVl7y+U3MtUOpzmqwvufUlMtjgAmK4raebUiXchrc/6IssUZ8BrMEWz7iq7a8zyhx6SjnhdEBuAca2FrODOzlugWvM0OV85CG52720LM+euMmzp+0uSackvbvygO25TV5Q1/jqn9NiKoF7QCMfS2PQlln+nUZZMtObM0BSHOh6dwzWUMgWuMu5TztPzFOvMZi5ZseYPoODsVmqOFuVAbBiWn8+CWkia7ceeOn+YtSZ/TZ5W6ZL2yALQiaBOl+I0msxwyFq0MXSGdkbpjncWFnKNZofP9jqkta/OL3LvA8amdz9hIGnORlS2mZnbiDWAOnyZ1lOu2aPK61diHUgtK2rVLMZtDCfPRp2DANeTusblAlZ3Ym4ZssV7POu7wX1e5zA6QuwkY4mhXzz/dvaQM9xaq4bwulb6EbkPTfOmxK0lWG3JQagi8BTr8467BeM5+tCDxPrbb4LKCIqJ8rZBCFOM219FzMC4Cs1Tk1WQYKpB3bFHzOwkS+U5bMem79StS42TpmtXjmXjBl3GOFmmBDp2SSmBxiJDoGHy+4YGj53V56J+ja0foGa84gQOvtEI0QGXmz5S81VN2e9L8qZkk0KACZ0/VfFVDEg5er2N+0jjvL9G17lrzIZg6eenqzPsxuMx6HfkiL7F8K7aJzss++GoThR9N1NiFRlmnbiUamcw3YOu3fiY1jzNaI3lXOckWX9ZVTDsBqBAftsa0nksm7u0SABjENFryOjpNUSH5tLTGlXkW9lRzgSyz6mmURoVjd2jDGAMDHeXYgoGgxmtEYKamvmx+s+uZUglRSMSVaK7spWS5Bvm1t5GkzwGiZwsx4rddJ1bO1+BimS0a9mPSfEI4oRfOcrL7LOOMKW1oZi5ZwdaXnKTF9tJHD/AEFaiYYm6MdMgh2u66FfOdtIlfawSlaQJLnxbqNZbmJG6IrK/WpfQ2EacdxzA8JWps5dGNUbbSekFaITpawOjP0sDdJi6WbKK0uxcs9IGRRyr0pxETMQ6THo9Vt5fSCme3W55K/vyWfZPSR0LMEbl32kwuh02SPzP2ymIq0leXcZ2VkPr7pFE6T64F/n3eVjJU4tXCMFdB60Yhb6KqTMUwd30dc6cG+Y56fZXdmXfoeMK0eiPqhnULIe5HpTs9nukEisWNoxKmlzn9L1uxR5lZK4uHxM3R9BPHlhGbdeVCMaRXzFOmAvaGK2hukSBM8y0ZX17ILOZsG76qZc3LA1pavpaufNkGYJpj259nu/Wa/MVaJiPn9ZnDWlTph9AHI1j0XlStd6agZnct1mC8tGl98TIuui9m8Az+hYrtCDzXJ6Ww9U+KEAXC7fg9G5iNa3rLx2MiznwTSY5pI4J5MDaFkK82ybTXFwo7QEIkiX98GxZu0/GOnxuLgyapYqNsjtTafN8Y7J+sXcHbNUVtgsJ8gMg7bCRALFzz7R8x2M0TeWWVRc6fI0bXPtbNb2pkiodDZbjKHOfUqq+fVycp+MXt7OjBJ9a1rMyTVR99qMxpX2QbWH/A0EC40t5bRAWsXkY12GXpyD27Zdk1mndSbo4RKyz/VlZMZl2BVMPl+MIfEUhxiNTdRGwssQCw9tekR6w1zwlSWor1g6p5wdXbCiQtCCDuYAR1Qc5C/dcUGBi33sT1xhJdMovs2KzLLBqhAa6YqFgJyQgVxQVZKy0f50QOZQB8xuvv7MBncwilaXEqqr6+XVLs49+GWQYXUrSoZ1usibobQjR5fdsqmdWwL+tlTDnw/ZwkIIrKFHtNvoW3Eqh7EsZP3cwiSoUcvpqnffcRCVcPuUkWJBecpmWTGtbcX0alOv+kW4a2D2nj/R7Cqiv6VnbqqLOQgHC+8i+URwSC7KqvlyCNkj2h9vKiy64drjTCiMOQ5HnJzKIs5Ckaku+ztUJiZeuXb2rAucxbmMOclCumFf0Ocl2+fe8qqEqPsn3sYSGzAv/8QAIhAAAgICAwEBAQEBAQAAAAAAAgMBBAAFERITFBAVIAYw/9oACAEBAAECAuQXXVjW8lDUtrtXnP8AqIGrNKjSro4Kexsc1xNgxmOERy5vdbBMiaffmZ/OIgIAalanSAMYW82AyGCBCUyff0h0PIzwwVXHXlqj1xVuv6taVAIwlSFHYYewpzPMD5DkNC4y77esM7GD0uT/AKr1auqCkyspQSTWPKwVgmHLMLCyBCWNMsEhaTSL8n8iIiBWNdVFCo/LjLrQxUjhYcz/AJ55gadNdb5zqzTs6uzSwFpUARERUF9p1v7It2q1ZOwuDsCsTZh8NgoKCgux45bV/wCKdSnRFZSw/T2a87Ppzh4eFJTGcsP/ABz+Rk/kYMCIDWyqSyiZnZEchgzDCOY8/Py8fHz601V1QOFPfixS/hjp/wCWSQHFvMbAlnItbYeXSWZyku0FBQXeTLGAYflSpRpCJSwmGbfRpTgRAyDAbJlH4Uz/AOEZP4OBgQOLJDUOAynY42BwMWqK3h5dOsB5Sgq1VSfyZM5xQ4RlaVbYpinELEuvSeSUMOQGcXr/AOe3XMp5BQcH37czjRnKyKFIQKSNzGtJncixWLCEtrW0EOcZP/gOT+DgCA4GAVdqmSdwrS1V01Vq6nkwWSxbQKM6hi5kjYRBndtltllj6KW0a2wXIGajVNcqZDUJ6IntyxVqvnPPbt27Fhjqq6okmMJrmHPGEXdBV8CGRehoa3Rs1FjTRqb9aAkOOOOsRnCxUsaxoEQxcJdL7DJQtMZE8+cIKqVRdMK3j0mBYTlg7BaRPNjJKZEkWWTioxhS1bGVrVZd2PyIKWZYTnPPPbtyI0Zh8vMzIynIFmNnul1ZgONj1VNSOe8z02FKvr51caj+VY0S9KzVTqq+hjTJoxVOqdZoy4XDhL8Z/FLBUL6SuVwHGTk40q5BF4lTFa1XZk5MxNOlNH+R0UbFyCM+j5H6vt2hhlJOxsc/4GV4t0W4sepFIwsVnVnVfxamkajhIivlrolk12NWKoySE+/Xz8BEvwmnsCsuKRABMGQk67JRZWcfs/jD9u2WcqZLbDKC9uZKW6civrdcuObNtJyiccMsCS2DbEn6+vciJjZ5/wAqg5FisRUXQmrCfMoZYQ6GPyy4LVS2UNmHw9TCsDZK1BOaN1V1Lyk7DLg7B902g719YbWFVaMnLdZtD+hr9r6e5WpuOsBAQRWG1M+RFBrrlu3ELpKRaBzI/t0sM7dasfzkkzI5mT79+5Gcl+c/iUL1y9V/PHWpqYdj6Os5MOGvkYQdGB0RZYLqnXlhpcAeFhYVU69Sja6Xn5lk527dgOkl1n6Juxc7uqa+iQys1/zbA61UlbqfykI727T7WqC9rFaKw8bRWbro0gUYqFUZUbsRY85wpk+/bnDyfzka1TWpWDPrbdr24NixSCZxpw7iRB9i79X0FZCwp4t820nIPNfOdestdaUbYlPU1FXNOCNGgZzLDjVnSq1XYuGM9PS3Y2Dq1qttnWfc5ivfo/zVsm+GzvgCaeuRr5D25JL69nWfHeYRzPP5E8lJfmuqyleEBZMydNaVMd6ibXMY2zqzfjGOs+n0SYYrBIXrslF+trmHbrNuSVxVcQiWYw5sC2weaujZAMtVgw9leqKYvalYlvUrY2vJlfsGw19i3/2CP+sizbyy2Gxs6dmsQrddLVjp0nLbTzuzmzpMD/Efk4WJ0tDVvZAthkFWiogLm3+irPIBtWBYo5YuWrfZSWGpyRrVzQaeYs3LlS5asa6xDFawatuoMm9w2RrH89PUWYD/AKd3/Wl/0DrWvgit59VCKRWmulbEEzJQhVbU2qNhmnq277nzkSrNNdsMTaftq9r7arjNlg6Q1tqPP7H7p9aOWLckDWCqLexVZbYsBVmqSR2FqbNfVgvfrCOoYzUL1YV6kEPgVVmus61qdLX2VevFSyy63Y5XC3WmirWJ17C2NkNOn/lb2io6hNEal9id9T2x36tIte6s11+ZqaMg20242hbWdlcKwIodP/OS21NgWDsZZFQb6lkdjaSytoP8Irp0y5ff/oHjQEyEVwumn4LOpqRXbbxiG3FtVrl6U9QvVQvxhc5yI+XN5bV6xBpsu+jJKLEuRerYKz2MKlbLti41+u2FdRuubWQpkvNZaXXlu+1TTOc/5zX2wBc60tW2IazYSdSs0/oS5KwN1mhPqOPdZpo3H5GUNJVo7M9c11+rWCsVR6WsYqSqnsGLvHSKBzq3K1Jdibs7BdxlwtuG8GyGFnSVOU9NHBCzrSp54MJDEoedkmCi1Z2LLjlyqhWZsHKs56a5L1piMa69HFrThrtbQOqsvvrWFstHa11EbO1cNTUhi5mv08FWW322gM6mV6+t0hQTHhbYiqtGelk+1u221XaVpLa99VlOvuJWn4jotp19eRldvGTUXdbuBZ2LJy7UrNTbA7leqLMtVaWsFX02J5yQkZu1RgkV8fR8LNuAsEu+bKz9lQ192aSSOxsLnoh84KfkqaiK07CZ+euJYbPLraVwRw2hr6OvI2uUbMNKqvob0zvdh9q2ePpNZQM2NN2stvVUrWm1bYkASuaG1J1ZdTimwJsWGHYs/SlacfP0zbrnduRbt2/ql41n1grxMQqyiw24aS1aUG5tqi6TGxU2D6adbYpXstV2aNSEKCky/BXHVtbXqWoh0kZuuWLGufeSl62Vqc5GdVC9dk4ep8C8rRzVQ0ZKusdjXCjau6WzW3LNmKm2q+zjbzddsfA8izTmvDAbJbDZmmKZZeddtIs1nHmrVYtydLVvRaBWrHRrqv138lNObMWn1jQcpxawRU1b1Bs1XdzkPjbztUk61OeNbVFnD09vWXtBtauixVYttrDf2VYdatbC1Z1m3ble83P50a2dCvVnWVYvVp106sWNejKtxrfXukKuqKrb1bNdTq1FWJcxOuuatlNdwNo3ZsszsnW9cXRtYEUt+VxJVgabGrYGw8dqgNbb1CXSQpUWvCxsZl9SZi1arFUitSqdKn4T/oJzCnCiYJvuLbdlbgybECw4AxcN8ea2+MRwbgWQY4f5+xTL9ZhVLlJw069x1TTT/wA2nVwociw6wjKl87jJ+JS7I2avzXqbEPoVNfdR/wAxWKyp994MOvWr/QbuZpWddrKJZ2uFr7UUz0tkUtjLNstiitFZ9b44qTLrA3FFM2MEwNkTPnYkXLxxAFITTAPZ6pxqLdZ9LprsVcbVmjwF2Lgn5ooWqtdWxoPtU9KqqMQPlaU+zYe27boa7aOsUnhcODZaDnU1tlSVRI9HU9xNx0aVoSUQqFYvfLadi9laZmxlXLFlT369OrvVUU1nfvsvI2M22WWMo67vOGJAkWBKiJq/k5PGkjcmLmPrcHdm1BTFmmFKtWFPzjRGnZrqV6y+JY+YnXwAZyDfTm5XNm4BdudnXuIpbSrrtk0oQzW1VPqW11FIyRKlRoxXewX2BlnL25rMtYFwbOyZrWW2VthWsLdYG2P1OeRDnWIQ9DRmMjCiBLLESHU8ZJvY3Ftg72yVcdQCrTTOfRWKBXBnNhmwXN3cNsr2yP8AoC2Gq1tvaRcwzgoGLRtatSrVI6GoTUBu0KuunYrFtIvre5XUhS0i1b3ZYtWrpbCNunYXLAO1ebB62C60dS/dw811xewDYMvEZYIEsS+gXVmLaJ/kThZ1ZjWsxzvyWNl9UX0mWFWdh9w2kbC8xARJ2vtrkVdjzAkUIC3tZJVLee5Pk4mvjgF3wMpK199te/LAKdrb1d+jUeoaWq2F5mzqP07rm1uHBWx5BxOB9e7YuFYBpn2KCCrgRdzmMI5nt37d/aHhbHY/0g2A24snhY/Gs444JLa82HENh5lPbKDmjGyGu9kpsEFh9+2h+rRmsiuz+f8ABWoJWVp4wfnW1U0y0nwX9SH/ADa1Eu2FI7qf6dbfVsuaj4zbUNsDldthnn58THIsbHA527k2tGsiWd+2dPLx8YX06/nTp4+cM9LievHXrzZEwr3bbu05GTB4FWnRw1u2RDXqhVZskVj0Wu1gom1LIGF9wcmu807VO4fj7DN9NulFSoNLmS29Q0aspxU3EnVt17Bd+e8u9fc29+2dPDwhGvTsS8/KExX8POFeEq8+kAKfm+fzNcR1JbkdevU3TUnSxqq1b0ew9bOvDV1tiWmTqY1V2mm1BinvBiTmpdJnZjZKy1SRTU21dcNXJsKuM01OoTXZO7PYxDKtWumrttse5vbPSmF+9pjrePhFX5/Dw+eEeXjAdOlSo3OsBA9OkCI/LNP4/n8+sJ8uhLJXTi0qR68V68TtNi2/XazZhsUoSvY062j1y4ayw7PgYt9qvFcu7IMtjfoITq046zGJXOo3ODt6Vpi3302ouOfYPWVwX22SGWdq8j4rVKyKwtqWtXCZXGvjXHVXR+GKJUiR80Uug1ipRQKmVeKo1xjrKfGVwjzlfTjCiYzhgdeCYw2hbpPZXhVMY7Wcays3u1UILLmrXqqlH3l9h5CvUe93/qI2tDfpysDWWNDf/wCXrWLWxUYIljCBumcjLEluQzZQ0tYd2lU1IVc3zgtgS1eD0ISaIrHWlEV/HzWJREMXKhVCoTBZ58TnE4X5wUdZjLS84sJUh8zt5v6/XrELIYs7jpfTKuo5OLJqJOtJJVDqNIIvW6Ol3iM1F4IjPP8A6O2vKmmUh2eL9PFGgSrF1p4IlHGuVWItmp5HvVDS1+tpDGXJC3cfrtnDCHIHjr5ec506Z1jOM68depDxOMziY67BX4uAsbOoOoraiK95Vuv711v0mvQmqYyZ7HZToW/arZPhzybZPy057XWt/wCU1FRZt2MsVKVWFIVNGAh1q0C2JZrLuumTKjr2oxyRYo3YRd/ZFm8apvNXlbdP29ZsRwUznBDxx1mOvXjr06yPE4WFkfkxsBj8CLYIEpVjIAJpBp1MKws2SmbEbLAe1XH/ADuAdu66zqbdulQR7C605ZzVBZFUdampuY3nqx9ilFunsOkxf1Hnp2c4yuVekQ5sEXFLWebRIyS2hSrWKVRy2+/pGSXeS44zjIjr+TM5wczHExl3I/Ifad6dPsRYTgYOMNknJ312l5vtTOJs625OtU5wfCVibf1Q+H28XlAvHwAV5sq6dDQp9Cq7jXa5IROKdYRSlediIwYqHLv92tYtmTIHNatQTXk37GNqrbU9oLH253aX8cyXYsjIznmZnCmMnJjjYFGRkSeIBa31lQi2VlxYg7T+UqQpmbTXeGrrNsKvLy68XxYN4Ph731MC1FoLHvXP3h0SKxCYsX42oMlVpfyAx9tFsjOXImO/0xdi7Du8hYvs3UbP2lkXKjE3XpUkDRFQiyR6zPeS4w85/OM2zMjPV1vW56vFjqIgCsaK8YxoC6b9a3c1siWrEYtO2wWzJjauVVO01fQfxQH7fuLZ1C9EVeCEzv7Jj/r0zKpyWXW15sW6+0rEtDKjKpxxwjVeXrtdY0KVaUI0ydPKayjIja4HndRbFnEjGd+8mxnHSMmcvNyMellesS8lNxqLaCsOTbZYSt0La2RYm+3Jq3nOdVqW0rc1FVOr1PmS/SxrP5Rab+MyFJrBOdSC1Tva2A1dEsc5VjZvsWBZXyq0LY3H7FILqDVkRgEY+h/KnTccV605bb2ZAOdC3LbDwLJyZY1cRGSMBed+RlnGyhyWE16QKLLrH4gpIfyzAH9aLNuo6tVGKE0Kepo66ZmBiBiDGBgbz6r0lz3jCizUXpPkJd9gWydtWZViqLD7/wAilTiObdmkqZ5lvqbZkiTYeTp4PCnuOcqYq4m32MuOic7ckWwtfkY5NisQVXvkTEnuXnjYjAZD1LsqZC5hlNRa8NcNaNdCBzvH5yE5JSWylWxHe1LHp9B2Jb9jtieNgtX8FpYrogWUtctcGVor53a6gwia1lhEswGzIZZZ6+jMIOkQOMJQdEMORjOcjNvc/IyI4srYltddhchWfXqguHiNJyFIx7jxNCrr+SMAieWg4YwIk/ZMsK1cTvNrufRQ6uzLxOwdu+q2bWbSbFEgo7nX09fX1sJFhx83wjVTXiO3NrIM7htU3sLXOZh4p3eGFEkWKZ7fT9ymRk51vWpKMjIiIW+SOGpfVVEsZgKRhjOHk2nNgkrp5OMZLFvwrMZ0hAqZTiiCmDaTsq8RT1AamsmFeLwvsWyUOqLVqdaMvmUC3PMSixJwMzGHP0Pe4lYyPRdmZZKyyVEYHjVfkGZRlVUYJWrb7EZGDGcJaDYzoxD6jcFyjAfVjHmCZlAAtGPOWMNBsegu+KOGdvSG92K2uqXqtalygVGS51qdWjUQltYaUS4wz0MUVZW3CFBzMsA3H3kiRENmSCVmYngFjFxH1Qz0ySWCQ7cuuvfGRAjA8RCHwxbYbhpZVbrxd9guBjs9xKkA552WczkGRqKZFv0hYW+ZIGGi37EPaDIpPyVX5bdO/NsJAeCU4RsjZZMlxBfR39SkhnO7Msu7iaD7MEYiSyYMVlYxWRFfOSJ9o2RkYAxkZxAxibKmgxbJORIH020oaFgmGpYVV9+1mVY2OGIVnZhi5WQcX/s56GXtyh3Z9uNgewO5OIp9PUXNszsYtOBWWbn0oa9v0C5cseLiLvOWVEK8BiGZM+ksIimC7CKwXBMdbkoiIAIHoIwPU0srpsgwGC0WZ1MH1HUeQe0gtg8SsREvmHLf6Pb6AANY0ZXn0lbgxgRNIvs5C4TCQFlkny07HtOJgiW2yClYWEADGTEyT1FjIsLARQsJI557mfYFisQwrDbGRECILXxEQuA6SJA2virUPW8Xe3pMeTardexUMGym99SyYbMFvM/pGvIVy2IyGraLvU5mYKX+zH9s4OBXORPIT16THWfyMMms5QUFycRHY2e0s9MhQqAOeWFJREDAiNSoWvNYiIrSazTISJpbWhi7AvhwNhkN7YQMqNpkHsFv6ZKSWztzYsCyuR2osBLRklGGTI5Yz07xJZERJHkZMEQTJCfeZ9J/OzSKZxOdpZ6SZNlmQsUiiFYU8m2SgYGBgadBKbDiIMUC1sWyuxBrkZFiGVu67ANhwt79u3MrOqygylKM9BZ6yyRgQOcgocTSxME76xeZlPcXDPU57CXM51jJkMAWEbPXv3YU5AwZNk+3MLFAoFPTtJ9iM3cQMDAxCVotussbApQlPH4QNrmglSErOsynwNkHi0Wegn279pGUHUZUJHnnbv6Q31hvr6xYl3cW+0nM4s5sE3vBwwmi2Tli2zZc/wBJOGenftzx5Qga4ohPXnv6TPcnZAQEDAwIxgn7RNdaw/yUEolkklyMiSDplVghtxYFsMgue0TMkJp8PlmmVMq3h4+fGcwcn6enp6enrLO/fv3lkM9JP0k+3OQEKivFYasV4V55Jyz0kuZbLegrgIDr1gYj/EYBVnj/ALJZDIyuQ6dZWSDplUkYsDaix7C/2hvb9mJXKvGUTWmp8fxzV+X5/n8PDx8fLy8/Py8vLx+eKsVIqRV+fy6527EfeS5mZZLeIVC4CB68f+EZGAVZv+25OTk5OT/icOGQWRg5H4OR/qf9z+znHGcccccccccZH+Z/Jyfycn8LJyMjI/8AKMj/ABGRkZR/f//EAEUQAAIBAgQEAwUGBQIEBQQDAAECAAMRBBIhMRMiQVEQMmEgI0JxgQUUUmKRoTAzscHRJENTcpLhFUCCovA0RFBUY7Px/9oACAEBAAM/ApeLFAid4IDLz0hX+CTtKrdJVE1FxAoGkA8B439jXwAEtDf2T/BatVGmkVOkA8LCZfdKdT7FvYPh6y8vLy8z9I/aV16Ssu6Qjp7F5aW8OK9ukSku0UdYlUGbssZDYy8c/A36Sqf9tv0girPWX6y/sA+Fj7b1z6RR0ijpF7QKZYQCCevhf2btLCWEzHwt43/g5jAtoLeOVG+UNXFVSe/safwcxl7XijpB2inpF/DEceWVKB9PC59kIstGlRTvOJoYtS5WfdzzeYxaeXJT5pVDZsi/vAIYe8vD7IPhb2Wrt6RaajSBRLeFj4W8CYf4F/44BEXT2PdP8p7x/wDmPiYTCYY0aNGjdoRMzaywHsLeBoKvSLmlMQr5THp7r49JnEKt42lDIH+IQ4hi8aExuxhmnt38LeLV2GmkFNRpMo/gX9i3hf8A8naX8b0m+UtVcevgTGMPiIIIIPDLNPYzGWgiCU1lCppmi1FnDMyiWMXJAxuPC0HgGpGEEQdottovaPT8sKnX27+FjDXcDpAijSBR/Cv4aS14c1v4mnhr7djNPDlMJrtaE+AHhaHwIhPsWPsX8ABLQ+Fus+BzFdfEwtRvDGaVRHXcS9YoesdG+XiDFYQQqbfwNYNIAPYv428NfC8EFoNZrA6ipW69Jh7WFMRfhEVV8s4DA94zbKYw3BHt6+DNsse20qL8Mf8ACYe0YS2/hmBmZ7wCAQCE9IzHw9Jfp4WlvC0t4GpqZl8NPZsY215fxAoQEzKdI79JmXVY9F86DaEm1T2LTMPC3tXmZhAgEHhf2beFpYx7DTwuNJUqT3gepBRSOzQQFdoa7bQW8spsNVlJNqcQ/BFbZbRk+GN+CVs1gJyjNvEUjSKo8sSJ2ijYQKYF6+AMvLeDXhP8AeOWF3llgAmsxNRdKf66SqubnpG3QNCDqPYxlZeImHYp3mMO2HaYkIGbKD+GNS0YWl6WsPEM5olOUomJXaYalzHf2gRLN7esyT1l/Fm2EftHPwyo0J3gaJT1IvAghvEO8pxEEv4EaiZhAdYJYTXwQxTAekXNtFAgloEi3tA3WXlzBCsLQsNowvpOHvEJ3imCDwHhbwv4+8mVZnqEmGjReu9K3RM28bEYWurJcBOXW2syna0a4VmJHS/hiHF1oVCPRTKuLxaoyMFGrXEp0VWnfbpL3+Gx6StSYJlHmvfe4graXt1ItcQU0KNaUS9qVZanpfWLrCITrDTTKseobs1/b1/gW8KlTYSq55hB2iKNovaLEHSKvS8QgEiCZpUHkS8xanmp2j1DYmFljodfC8yP84IBOxlzvCsa/mgtq2s4ksJlgUXgMXLpNd56y/XxasYqxRFMVwdJVpvdGImKw3mUmfejaxvDbwTvFi8NqjZ8l8vLrzH+0bNr4AQRqtSyC8dxrXRfoTKNHOa6rWcnQfDaZdXO37Ti7aL/AFmZb9jHaoLfrKFChxXUEsOQn+0xmYikGW0xeUGrUPMcq7frKtwRUbNb9u8bD1GQsKnqJhsWrVQ7Ob6p1E4TFVFH/kmd873zl2v/AGmJw1XJSwyMW0sdJXxKZ7Mj6XWoLfvKlN7OIKSbby9/b09qpW8olZ3AOkS3WURoyAzD3/liUqa+URFirOKfC0vAIWmtrwESkN5TMyG4g2aJUEI8scdIY3hxNoRKpGgldjtaH4oKQ8NzHbQSwvH8DD4Ziq94KdMTLoI0tM3WI8SpEpE2GpMQaMPrMJfWnm+soNQektMKD2795UGhtb8XSDCLUp57q3QbXGusTE4d114iv07HrKCVPu5fK1/M0xdNgqDi3NuSfaVauqNT4Yv5riJhkWko5U/c95oRaLQG4zdIMZkpMSgv+vzjcOor0kqWffKeYfOU8QM3DWil77az7OBpHMXtv2MwFNEp8Dy7Io2lKoGXD0AijTO9hrFotTTjCrV/VR9Y1RqaK4a5Oc7RynMy5209BKFFVpoVpVNw43icW71Sw/a/rBYM1Rybayi9i+R9eoy/1mIpKho07oHylNr20+kTFXIbLVJ0QsDmP7RzUKOCpXdSLEQD+HXZM4TSZ1zPv2lPDpaJe8sN5vYxiRrMybxoepgEK+HScSpBSSE1DpGXS0LGG+kFt5r4Bojy+0qU9xLN2l0U3ixJTEVZbrM5Ev4DaCXmTwvoIKY4jbwU1g3MzGwHyAmPq6lFpD/+Q2/YTgNlb7RwoPbm/wAStUIC18Ox/Dn1/pKuHKpVTJcgXO36zhdSx+VpfeCDaVvu9gRp+pmZqVNbnLpl9Y2GOcbj4TtaUsVUC16aEO5tcXt2j4c8vvaZcrmAsVInHykWv6a/0ji9wbx+GSZhmW6r70gL6fMyotdKJNMMb9ZRwStmdQoYjy8zGYkIXoAMU6ZT/T/EOIJWoaofMAppn9iDNeLQNUm3vNG6ROGnFU3Y/Hv9BKjFnNGoAP5aG2p9YtOqKlRszZbWNoiActt9Jhqd71qYNheGo7dEXT55pZg3Ef0BXNKGKsHY5lG+05KnDVgG9e3+Y1MJmpgozcrX1/aVPd5wxyjIGP6y/wDCbF1wuXQbxKVO1ukuLCaGVATDbXweq4sNJw1F5T2vF6QWl9oF8xgvoYHYkxGSUqG5lGoPMDFzQQtDeNCPAdZTqiBbkTltFp7mJXGmsNEZhtC20qV9TtOBL+GSC+8Hi9V81ukpMqIiNdOo3lRkp0sXhCgXQVO3zMq/eMtACori4ybAesOBpP8Ad6AxGJtzEH9gT0lfFV6GHa6F2TMFPRheUkycl+14cPVDoALTMtqg0O99RLK5db07bgbSrVPIjH6TE3PKLjpfWcHzbyriHGwA9YatmGbQgajr84uY3uNNT/i0q4Sq1qo0bdT/AEleiiPTqXvfPTY3Fz1j1cRmpUxSdReoVuFsO8plnFHBFx0d2t+wn2lWqKgwFCp+VQ9z/WO9LD1hQNJyOWgxF/lEfm4DPvza2HYytub67SulUBb5gekuuoFRwNHRA5X6m0UYqnnxWIp+X+Yv/tuCbAynizwzhlB/OuqW9PWWtYD9I/kwlLjHrU+AH+8x2MBOJrj01vb6DSYfD87V2zJ8R0Fx87zFKu6YhfhcED/EIQkasAOWVsgC0c35jpb9YzctfD5QcoFt2/tMJVdWVwCQRYj9m/zGxWBp5G1WxQd/SPSNnFv4F9BMfVK+5yg9TKWBogAa9YudVgUy0ErMPJaFHVWOrGUsNTHSIqlV3jsM15Vqg/1mIBtvKr+ZZXota1hCTuY51XSPS0Z5xOsZza8QUoEYwEzNaArBLR1hWXBmXNrvKteoFp3MxGBqc18plPFJve8pbhZl2EY6iWjZsoUwtuLSqjcolQ6WMZ+kqVSj1eSnv+ZvlF+zcLVxFJw5p6Zf+Y23lFbe4qC3w3B1+cxBHu8Iv/ra4/QWn2iLpSNOittqa/5vK9fWtWZ/mZU4gYXBXaGrVBYm9hdT0tChcW6f0jaCnqeon2jutEin2bT/AKZQx2ZzT0UEN8P0mG4bU+HTAtpptKr6pSdtPhF/6RQEZqmVwb2Hb+xl6NerbPSp30VufWYty5Jo0Rfov9zGq6feqJ+srB0otTqWqELemM39bTF4Z8SmlSmbEFWtf6TE0M9an9kt94bLzoM4U+gn2pzLX+8rvoQRtFwi562JFVmpi1NScqdd49SqwXIukqD+at3b9jE5r6qTZ3/G3YekFz1Ezqh6hrSrXrcGnTz5ag5uyDrEyVFNTLm5S1s2kVclOhT92Nm6zoucrroBzadL+sbHBFqUKqbF821vQzC0KnASsyLmJupzWY9DfpC3EvXpXBuDTudPWMj3qZyv0tKVRT7kVPQ9Zgqmbg0mp1B8OtjHpU3yk98t/wBZWp0iKuEVOgyj+A3F41YW/CIullmW+hjVWz66RG3OogZL3mGQ3a14mvCtpL1eJVN7RcTorR6VQhojC14q8qwF9RBh7WHzmGxO+/rMMVzECYWlcDKJZ8yH5wtChEeplUdZUKXtKwa+SVRYCmZUVeYQtCYDCR5YNb3jULyi6BpTy6CVadrQZRmMoJu4lFwQDLveUbxHp6Rmcx8w0EUDaHDYwjNlRaYuba67ARq1MUkbkqC70utz6z7QqIHp4ZnRxdSJinHv8VToN+C2c/W0XCf/AH+cn8mUT7wHdRUbohC3zN6RKCCnS83xv1JlQXZSQwH/AMvBg6SV8RRPEZrJSB81t9eggpvmb7GGUdVc3H6zC/aA9w1mAuyMLMBKNfEVKaV3TU5beU97WtKVR2ZabOcu7i+n/qjcUFDUvlvyuBtKnC5mQvbdymh+o1lXA1wjNSbMvQcp9NO8+9pQOdaRUWNPXfvGFrVKLfJxK+ExXvWy0sjX51tf9ZQfEJQpMSzNlFtpwvOWH7zD/wD7B/Rpg/8A9j9jMC/+/T+o/wC0wj0qhVKLOF5SN7/SUxTpJ+Fo99KL2/aUMHhAxe9Y+VN9Zevi6p2yBdNNzNFSprS/+b2mJVslVi6kWKqJSw9NWYFMxPKszP8AGM2mu04zcOoisp20mFonOnu27ZjlJ+UqWZGU06n/ALb9x6GcRr1aIRvQ7/SWvkA31iUm4eVWDbm+g+naLapU4gph6eWlds1m/e0OPrtisSho081mpdWYevb2a2JayL9ZwArvq0Z2ypsJSwgUPeYXEm23/MLSktM8OMhuL6zFZbdIwpPmOsqsrMBGIMrFr2iYt7VBtHoNdKlxDTN4DuZSqX2M5+S0xlCllB09JVd9zPvYHEmGQeQTDN8AlKk9woi2taLFHSKOkPRZUO+kAN4loSDlhdipho6DaKRcynT0j9DaOx6mVB8MresrDUEyrbmEbEE5E0G5O0pp5mlNHULr0Otv6zBYgcwp1DoTr2n2dhvgpKdu5nLamMoi0gS1X69Z9/uHICX3aUL0cJRDNkpknN0AhyglbH9hKNBGeo9gouSekwn2phGQFhzA8wtYiMquUvlTQ76QmqNbWpP/AEtAMUuY2VSDb5Sjj3rNQzMAfeXO30lNLnhgn8Vhcyqcpp1KZUnSyG8+80aNSiVFSncfMHvHQ8OoLES/gazVcSSQKei2/EZWUN5tJTKa0lb9bynV2xLpfW2XNMvlqvU+ggTlKD95Ty2eooPxZhMPRUhDnNtLbSrjH8v0Eo4DCJh1oHNoXqm1ixgXiXJ6Ew589M8/94zcTPdmPeMw5EzDuYcOqZmGb4h3j1DldMvYyolxcZN8vb5SmwYZ9/S0Ivwn2/ERrMLTN8StmvbS8qhsQFy8Irya/wBZUoVKaWNr+/4n9vG5sJUq2atoO0o0VFlEWjQJ/Qd5XFaozLpl2iNi3FUdZSr620lFVtaUz0luk/1Apd593p2HWFTtvFUSqpWpSNvlHqkB2l0DIYaNs2kL9byoNrQstiIEOYiU6el4sXoZmnCGsC7iYQmxa0w9ccrAy3SN0jndvAgGDOTDfUwMJTqG9oiwLoqXlVtSJRorzTD1tLgygXVcgb0nD93xAthoAJV5XqOZX4gOQ6qGCnQkekJxKgtpeMhIWpc9ARMUwJ4psJUenS/5FP1OsxRqqlNypbsZwKYaq2ep8THzH09BFXlXmPpK+NpstTRT8PymJoZqTtl05hltr/eVSuVnNu0NH39VTz8ifrLYpslzrzACVfs8NVotkv12lSplKaDXVv8AEArUV4q+XWx0mfDmxmHL1KWKppUN+R9dV7iKOalmyb+lo7OFzbmUPs7DCkHu7kF3K2+kFWjUppsVOkdNDRfQzDm+bdR0sZToms/HLB7WW21phPu9MZ6Zpjz6XA9Jhq/PhBo91K7RhZkpL667SpS5+D5egG041IHKLiY21xhXsx7Ss9W+IPCXe3WfZ9DPwqANTuZWr+YhSPKBHLXtqJxD7zeCx4db95Vo1OG5v+aCmP5CmUKq5aicx0+R9JXTFU0DnzBbExVNR2pIeGx57BT8j0PhVxL5Ka3iULM/M3ecIAKNZVS841Skag8sKVTli4qupIlNALaRx8MPaNl2gTE5yI9QdrQlLQ8MmNY31hdotJAGBmGxhyFP1EpUmLKN4E5xBiLQrpmmt452aWBLRsO2xH00mfc/pOLttCjEWmRtyh7iZgEqb9+8DjTwst4lRbR6ZYofpHDRgbGCoI5OYNp1lJRrvF6ATjdJw6ma/wAomER9eZtz/iLTqmnppzf4iOanqNoy6XOmwmoddDP9QtWoc+ovEY5RqMt/rLrZKNstrXt0i81du+kfE1SqPZPiaUKNsovbUneLZuglGuhL2+s+z8HULnK5HlW0q45wBoIOU0wTZfi0Onr1lbEoqinamLGpfSVFHDpqNgo10GvaOtdVqteplGTT/wCbxKtPI9z/AHEqYZ2rrxDzcrjotusrDNQYq9ErsTY/T/EpVr1cPzJ+8q0itqh5frHRHqMc+lwsxGJa9Z7L0prtBpyTLrTdkPzhxmHZMwSp8X5pVAtl26zF1H9zTc26iVUF6+LZCfhU6zBYO18zt0za2hzrlGt+sFVhzf8AMZSRcx2lJr5TE4lrlZSfMo1nBqK17Wi1ku9hFpEFWNvWLXqGz6g63i1OEayi9Ootj8ojpUOQEZORyP2Mq41+yd5RwtNQFgSWYN16CNWbVbT3zox82xlI6Oko0tU6wLURfrGYbaQT7tS5RzHaVXtM6aiFlZpYZZmw/EvvKeGTO8qOeQWEalhuNW0gxWFRoKiNrHUH3mnSNRvZ7tKl8lUymxteDNKJWxAmHBzBRKNLE2X6xanMpgzc0p07CnH4axWEyEL3jl+WNT0baBa66eaLUQNLNbpLpESpqZSbZpSI1i0RyGfesHSxGXzaN6ERzYGmSb9OglTMPhH7yvxVB8jGV3wAXhsGzXT1vtMQiZKigKvrv8rRgd9wCove4PWFqmRgAl/NE4A5hkC/sJwC10uBr8h/eUnprUUjWU10UXbp6StWTzH5CABWZrEt1lChfiMNRyEaj6iBFNPiagDbZv8AEdhlC5VnAqszDcHX6SpUxtIPVy3cX/LeWdyLsubqdY1vNnt06z7O+0R7ynZ+40MejUzLic4y2NxYkDvGDEgFRDh6auH1E+9oDT1cH+sr00VjVT1HaVlqhQt/lFwtekalTMzMAB85QTmbprrKKqcgB6CCoS7WjPXuo30tKzau1j2i0hzPmMp5dX0Eo8P3cbY2lWm762mIa4vpKhH8xr/OVcTUpUa1XllXA1hZutw0bFLb4jr87ThZFp4jKTcrfbN/3iYdAFEyiVKrNm26RwQVp3nKM/miOmtrLM1HkxiUubldtvlPtLDlfvCK6/Fl7dxKLozI4bN1l181593pMc0Fa7Pq0pMGO0w1HD38z9pUL3K2BnNoIXVaZ2ExD1AAhyzD4Wjxa9Tm7R8QQNkGwlWjRIvpAhqCv5e8wz1bU8QVWXL1ar5ltoYHe6i0p0051uYhYdBE0y1QY+UgSlWFTN5jvKuGqMm4EE4teny6XlPIsI1WLT5qplNmsBLoLTNa/eIKSi8v5ZUQZBArFRqZV6C8ZRepyiJiLkNcTJ9l0VYbs5/eVTiK+U8vENvkIzsNNZiKpDOck4dMDNpZR+kNV3sOsxNSryaesZbXcyhw8rUUI63E+z3By0Crd0Yj9tp/w6727Ov+Ji8PiByLVzaWU6/vaPg7LUpVA5OzC0o10GcCUyfd1LEayoWZi2djDT0i3VjHqtlRM1tbxKeQpzllUZdOZm7TmpF6Rp1KdOz63uZwxdG2j0wAwv6zMBZwZx8DWsgzbypSOhtMUoscrD1mI+FVWVauIR73bMDeYzEWFSobdpanh6dPcnWO65RKVEhzzNB3li2suW1vCjaTU1G6bTD1RbNZjBqIbhoxqKbyj92yVqt23BMYZFphr9x3jYqkFqqM9IWuNIItSvlX4ZvsICTlfMLzRxlv2lV8PVp8EaraPWpqp8oO0OQ4Soi+X3bSrgqhqBCU/wBwDb5xK2Vqba9jKeLW1W4PcSnfRs3zgYEZRAG5NY9+aYeguZ2Cz7MztqWa/S5jOnFp3QRq2rVWaLT1n3ZISxZ/0lauCyroIMOhpVNVYaQLVYdJpGMxBtlQ67R1CtXqgn8IlML/AChFxFxwcp/FDSci0qBlKrDk5haMFJB0EbFVbEyhWXVdZlp2U3jUOsxArhbmwlSmfSDN70ad59mNqReYan/JoSviN9vSGo9CiL87hdPWCmtOnTFkTQfSVGdyOrt/WcChUrObEbSpWFGhkvVY200j18S1M5cgHreLU1EyC9vC0SnzvMI17OJhatajUUjMGvDisHUoje/SYqpiVok5R6iYvBo1TKHUDcbx0+OUq415T+0vmyuumgvMlXIxsuezd7SlUq8anTVEUZKR66bn6xKOJqIup2frHfXvC1PMV+ojI2jSuPMLiUqhZl5STKolS84Op1mkocZVfrEBFukMA3aBl0aVM3ml5dSIQ0YLDfXaaabyt7s5jpuYUQMj6ziuptqbXErYgWzcMd593qDJzDLdjEz+W19Zm3Os/Cw03mlTkzH02nDqE/C01lSth1wte17jn7iGnWvTfMG2AmMw9Om7jOD06iUm7iUzbngtytKjryVcswDc2Kdqh/MdJXIy4DBIFHxk/wBp9qYBx98Vsj99RBiuLlGgMrVGIySsrZrXVY3Ea8xAp6aLM9WyHRBaVsUtGo+iv1lRfJU/WVKNYmrTJA7TEYk+7pFVU7zh8yliRveYpzfIuScmhlOvmLDbefZRsq1gG7NpBa1MRTTGY6dZhgMypvAgAjNtC1La5tDTq8y21gSmjjvExFHIBK1B8rCYYj3m8oJhxTprrEqVa1d/9i2Uep6xOJUUH/6dOJU+oNhNo9RWQHSPRqJUptZ1YFT6w0GNYnW0SiG4eovcfWNba09YWO0asUD6J1mFZfdcrSrRcO56QC5nvttYxwlUWvptFoueJQzAixG8+z8avEWkaPW6aftKwJ4VSk3zusr0CFxFHI/c9frHrHhhrfKJQqIoHWNTCcMgXFtYyLw82Zto9RszC8RVsRKf4RKP4ZSJ8ko0oSvIJToo2YZqkLUKR/LCY14QYH8LwXhEKm0vLUqq+ktTpWcEEQVKmeK+TM9rdJRFhn+neYZSwajUqPvoY5SnlyrfcX1HrMyNpcW5mJ6zNnRANgTEdApIN+naVaPrHOmWLhih3aUa11IPoZSqbfqJUGziV6MqqNbykw5hrKJ+OcZSujqRsYMIjpRw2TM19JjKg905VpjaR9+hYfEp1mBNq1IDuRMTiV4WGoso6mValVVq8inrHwmHo0s+YJsYCLxSJpbSV6DsypnXrbpKhTIL7x6X+0trR6Ao3WyVd2E4rrVouWpEa/llWjVyVMRoDYXjVNL7zE0jpzJ2nEPb5wML9YiLzShiV5T9YDSahe5tpAucVNxOIb3hFPMTsJeswMb/AMSLXIThNn/tOT7Wrg/zWdAfQ2EIlQ1CoBObpCxbioRa24gal/eY2hiKrUyWRjtCaF3qWMNSsLAlZSRBoIAmk13jO2U9FlQ4d+H5ukrB/eDWchmH4vu1ym+sHCC+kFCpkzXgdctSzIehgoVaVagBw83Mo9ZUxKMXqZddJjaWXijQGwcHSJTsz6mUwJwfLKjsC5lMCz79DKJPmlHoJUfRV3gzcStr2E2UdBOt5mljNzaaTLcyxmeBTeZRM4+kTDYdeuZv0j0PKP1EVaxNR2ysdLQ0b2Y0Re+qXuv5jMZWCtwwP+Xa0NH4WPfNoZmoldLt2FpVDHnbXcTi29JcWybyjmLKIQ63uI19TD0Mqn5RX3lLQWuJh+KoFFb5e0o09cqiAbLYRfxTNsYKVuIQt9ryjVFmQSmtzSsLzIeYTNpMhsVtCTa09fBScwXURK7lCrAA695SOFw3Co+Rt5iMO+ak5BmExN/veBBb8dPQz7LalSp06+uwuNZTSlbifWYvDDj0/eLfUKNRGYate3SU8UnK9vSCohTyyrRqK94C92MSpohtK1EZUrmFsVkafdMPjqtvLS6RzgFAUktibCIlJSx5/wAMGFq8V1uzDQRSLul7nYCAJHqOaYsBYax+NwVbzfEY9NFppS5hK5Ny/wBIdFh7znqa/CJehUtuBLwFYm6rr1lY4QuKv6x87EtzTmykwZRrcGJkyodRDiMquPK15XPkqBfSYulo0qO+Zm+kLQ2haEfTwZgsMZiwM5bGAzWXEbJpCR4WnNacKkrbx6pux8Hu2IagGyjKCJWzVK5pOvKNH0UdY9Z/d5kA0tfQw1rrXF7H4vh+vaaZuItzrl6fSPj+NkcLVp2svcGYlaz0mw73FsxAvaYcJlzc42I1lANcrmEweIp2B9dRMMptmlPuPSFVvy6dAZk1yi/rMXa6qFtDYuxuTqTHSsyUgDlNrzF8UslVgzb3beYyhU5yWAOsw1lu2W8wuKQUK1POlQ5ddpXwjMn35Mqk+71JlHBZBWexZ7aSjVS9wynqIVsVcxjZahveVFtk5rw6szZTNbHT1g6x61ZmAB/xFZT8Q66Sia1TTKRN7SnhqwqubkfDEUPXzMtO50Mpi/CF/nMKaYrGkOJFruhp1eG3VZiMH7xXzjrA2hlNuseqbB42IxeUsco3tKNDEAqxJg/8PqCourUjmErvhvs9aC01qNmZri9hMaNCKNaoDva0ONV6lRbMjZSJakcpsekFGkheKi0XpENdbn5iNVZajcttpUDBtzDiMUvLbSOjFgmkzreG7m/ScPDVddbTWb2hzXlkSmyiyzM5sYQZU49FDtm/pGvmvvGGFes5vz5E+cap1l9zLnaU7aiL0MZesF+an+koHXJaCk9+LcdpcdIN7wnrDb2bLeawC5jVfl44h6qBeIOHoqhrWy9b9BGqkiszFenNmtfXWcNsoDHPsRqPrH5VcKuls9tfrHNQr8NteomCytiKVWoj0z5VNuvrtDX5jsp0S+kPDy7d7SkuuU3taBNyLHzZNtPnHUirSe9CqORv7fOYmtZ+GXDbWlej8HCcbgdpW/4hy9b6wUw+vTTWYx6DCxs2/XR4aZLVUOt+mkXPZcn0lxfhvp3WV3OX7swJ20lKnhDTxeJyKnvMpK6mIVFSkTZh1mGxWGs9AVHG0xtFg9Oo84VfJULZTsev6TPzKQZkXzSuwuEcj5SsAS9Ngt7XMd7iwI7tOG7qNmF1afdkNJt73JvKuJqs9OqoXN16CYRCVP2ulwbNdOsLv7nGUKvaxtMZgCEq09G2YHllJOdmu3aI9JQmxF795waoJ1vMLdU1N9DfpLYhqtFcyPrbtK+FArLt1mq1bX5e8xIz1FXLxO8q08RTrVmFl5rRMjLmjYOolKwKPS37TMrOzZRKa4ZmzC71WLSjTZAWhxDVjfQMMv1lRmyKL2hVF1EX6zbXUSpVtmfSBdJToqbNqYawMS/aDvLnwJN7wETLWzW8qOf/AGxrCcM0sKDph1sfVz5ofADp4DwEUT0j9LyuOkxF78MSod6QincWlE/HKLG2acpsZenlgQm8NQ+nscU3Njfde3zlBc1ywzG7ZCABeJRfh0ixVth6nrGUDOpeiQNeonBwdTK+rVSAOukPIpa5tdvmZaHa/hTHK2+YFSTofymYbNUNR8yMbNSFQUzm6adTKhrjBivSp0mGUCinX82b95VXR8TTt0LaCNh62RTqNu8rcOmPuC8MjUEWPzMpUr0qLoqEbAmwH0mHr0KaYoFwmitmIc9toMSoonC03p35KWXN6aSq+DanQoYjmpZhkVs4cdD/AJn2oqFq+mRLkNVBIA12nONIK9KrzkcNREOZeHr1v0mfXgO3psIyZmp/Z4U/LWYtiatV+AM2zDWYSm2fMS3rKY8oJMbFD3hsp0goDh7ZfWVMajBOXs8C4v7xUqB+Xy20vtB95qkUcqVKYF17+s+z6Kt/pKbX1OfW/wCsSndRgsGik6AchH1Ex32gfOq0Qu18xv6TAD+Ziao03uP6ShhadOlTxfHC7d4aq8lr2vvCbVspVh51/vPcq1Tie88igG8LYdmGGd0+JW0a3WwENG4w1CjSHQ5bn/3Xlfmp4hzUDa69DEx+E4lKuAbaqdxMVnPvgxMqgDj4XjJltmpnmU/KUqGdKbvqLWbS0NGhlvubzisWJlQYTiX5Vfh/M2nDqVOXzSpVeWgNoO8EtMpgZtJkE6wCCa2nE4+XpQYxETEY2ot1oDlH5zCxJO5NzG7R45jHrPXwEWCCDtPTwEvMpj2teOL6QtdvZ1CZgNdbdBMtJRfzLrBTckX3jFMj6qxtY7RBVY0tAoIG3ygl/Eyt90z8KoUyA5gL6HrPvWMZ6brSNLnyqbs1vwXgOhzbXW+9vWUq2Mp1g3PTUOq23y6xuC+U85Sync/9o2JJZqNVBpdwpt9ekwjMAKzcQcoz6C/cwYQ8QMnE1s19umg9e8q8QrUqsyEcy3N/UC20D4nNVemtL/hf2mLrV674fCrRp59AzW+o9JXwNOotXFUTc35LmYQc3DZnHU9fnGPwqIzbsZfpO5lQaswPoBpOJVdm1sbD5SlVqtVZMxKrFw1Bm05RK9Pkdyy6nXfWUCRSasVYnQ5Tv9IeUZgW6w0A+drX7zg0OFTsXPxHYekqVc2zX69RK7VSRmC7Z7domIep75vdkaX1HzmHRgxW7Dq2pijYS5Gsqv8AaWLejhiKZqabfU/WVwf5Dj6TEIppKTnqfADMTSWk7a5tO9pSqqpdQLjpPs7h/wCoAb8Nxdiey+ssf5AUW0TiHMPrGwpHOHRr5XHpKlIU8Of9vmI/O+876QRYB8UpxZfYRu0btHMbvGMM9Jld9bZ+Q/LeU1oLhqNNKalszBfTxPbwE9IY3aEdIfD0jHwAizraAeAItOG5Hsf8PMz+gmIOuYqSbWsf+0xLOc1ekLi++sxpL/ywFF7hr3+QEtW4VPCAlTzVHXNb1N5gKS5amHpM66lzSXUdhPs1yyn7PVWLaZboQPX1iFM9I5fRtR+sx5o8QYYun4ks39JiGSuzDh8Nb5WBzN6ASlgzSpnFDlpBTSFPyn1Ym9/SYPF56uFrcCoG+Hyd9O0+0zibYimalPX3tOoo/rHoYjD1RiOVT5awyn/qGhiEuVYqR8NtJwKWSoz8t7WJjlvdqZjagpqSLnXVtbD9pQpuxpqwO1m3B6ymGuqiPVOgv3hpWslyfUCV2ualHh/hW9z9YB5m+giqLkhBMpPDosx6HT+8xuJXXOAfzL/aY6kyMqcRfyan9JwM3HsXO1MHb5kSnh6bFhoW0tOOrjTcBV36zJeOcUptojXMdgH4nW0OJYUqoVhbqAf6zC4lWqKxoZfS4YfLpPs2rV4JR2KLzPfJ/ScCmqpmyjRUUC5iUTTrVGu/TYG/0mHGe4tY/rMdjcXS4JyUUfNfrb1mYgG+9iZi0RRVqDUgWJ1vKLNWpYqowqqbhfyyh96plXbIC12+XQCV1yYfDf6cM5Jy+fTTWYxKOHdsWrZ18mQfBpc/OLUoCvQbJWPI46r6rfvK1SpiFJLIKeY/raNSxB4vvqIxBLoet941SpxcE65XXNwc92+h1veYhHKVAyMOjCxj/igMWCCengO0Wflh7eOdGqbWbSZ2JtD+GND4LKfcS+yy48FlMdIg+HwaCekFoJaaTPTvbVfYSgpCaH8ff5wr1zN/SLSRqdOitWpbUP5F+crsb1sbVuPhTlA/SJXZz96xCW8zlzArKKKZsvx1NSZm0q0bm9+Iu8K4O2XOXFzy81pi+J/pkbiZfh009bzGPxK2JxNOkap1U81v+mVay8RMQhp681iL/K8pYfDJSS4I5m183zlNAP7TkQkkB+nW3eOXtq+Y6W3N5ce8YXvqe0o4IhyNDoO8aspWnmAPSPlq58uoB/SEYdvcPVCcxVR6ziEGmzkOummV/lr0hHnb5r1lttzFw54S89U/9KfO0xWMqXrNddr7XmCXW1S9vxXlJNFlswXcf1MscxMp12UVNhzZeswiOKlIinrqu4mEwdI1M3E5yuRe/b0mKpBhQWjRW9/KHPy5ocbh6magiWOuV979VBhp1GGR1H6WvKq0mXjNe1rQUb0gOXKCTbXMepi6BtFuLmZmvxGb5m8NZ7hRfbSClQDAhi+/+JzjXrpKiXV+YfTp3iUHo1UpgDm0HW/r/SO1Siga75h677SpWxteq7fykSnmA9IavBH4aIAgJYTGYOjmFFkYrxAx06aWlSpUyBdS1vrK1AKqPQauDsDnIG240EoYtaFWtgw1VjkcXZbfKUKbpw8QBnrcMJUvv6GXsQM1/LbrMPahS4n+pLWdL3Avt9e8qRoywkXJhhhVdhGvuPpCe87xkpiio+DX6xBbrFYQdpljfig6kmINkhFozDRY/oIY3SdxB6T5y0E9JqZ6+GY2MyOy9j4qmY7G/U/0iPmc5rJdvnaYitVd+Jy1Lt+s+zvskJ96pPimrJmRg2WUBUq08NnNEtyX3lXD83DGY9dzHxZwyHKM1c8QgaqDBlyqAAAAPpAg1cw2apw0e1vKJeilqeW422iDffrMLUsWS8WvltYm3yvMrHMBc6adB6RQrErouwhxVNclVRUG4O0xtFjxafIBuLMIK3OzWp97a/SUaOSmi5V9P6zLpeIi3za9FG8xmKPxoPymxlBU95U0H0mD+z8MapbkTb19BMdXJFC2HTp+KfaQIP36t/1Sq9RaeLYWJ0qW6+sXMQyXzeU9ph8JTuar1HfzVKh5jKtRfcrmbtf+plfG0qK4jGohRna6Jfz/AKTBYfAYirTxNc1KdMtrbKbRsAKTsoNXemh+G/xN/YStWqitm5+pj/aCFqS3f46Y/rMTxGLJlzfiOUQhjfSNrp+kvppLVMhPyiO2ga3UGYPDsM9QZ9bWF9/2mHVypwt7Hmvl1t30mHCGsBmOqIpF8lz176bRs+Nutmatmt+U7RBVvTBsEAH6TLjEIQne9t9YtMqEqO7vblNtIKNN+a2dQGcduw9Jwv5dFKfqwuZTpGn71tv1+cBomyiwqioTue30lbCrWZapXjjRT/8A2Qg8p1BuItVFcHzAH9Rfw1g9JtqNZ6wdiYBss7n9Igibsd5S+EG0BGi2lztNd5bciaQ+ksbmHoIT1nrLdYk/KfAdrw9oe85jPSDwyVL3vm18alTEs4F1O2vaLYBvw2MqfZuIqUmHlJ0mFZAKtDNbodZgT5MNb5LKNekcRirqG0Vevzn2bgy4Wo1jvfWUHRRmzAjaYWi5K+Zt9bygwBVh+swiq/FqqPnrFpm4flbySria2VdABcmFAb7wMwC7LuZnK0+GSJRoP72utL0Jn3hM2GrU6g6kNt+kd2LVXI13Gn0Eo4dwQutrZjDU2bT0EC/9hKo5KeVPmZlz1gOLwwWZz5LW2N+sq4yvzNoNB2lLCYlauf7wQmicPTUSnTxWZEK3/mds2+ng74OmHNyOT10mRVDqub9Yx6aT80XBfZzhGvVrcgt07mZzltd2MpZ71VaqAbZtVp/5MoU1ChbD8KgAftAbjL11lOsWU6G+lo6cxRgDGHw3+kp0E4TUVUMfP6ygGam7quXtfpMHTpl7lrt5WsZ9nOSxo1qOc7C1vpeJQvkq51PXYzAJ9mYdmoZgjPmcfiQ7/W8as7WFrnb/ABKuAZwMmdtA3YzEcK9R899r6bbwCqKLvkvbWXGjqwlB2Ae3znCoVHoUWqXB03Vf8zH4n3v3bEVM2ubKdZVbFoOGxynmXLrFzVLoaN9qd9Ft6RSPMIlEBiVIvLIcqrfpLVWVk4h3u3eUmVuM/vWfy9hMw06xjrD1eWMuPLG7wnqZbpAek10luv7Sw6z8sttaVOsfsIOrQd4Dvfwt28BOY+x7viZvL0+fjY59NtpmquCwC/D6yj9op2cbESucRwypMorSs6QcPnFwNIDWtSQ5e0r4YIcxt0lUEtmmKxL+7Rtesx4Wm1g9oK32fTp4nDLdL6Eesp0T/p8MKYMHx1L+ktbQGLnNMWGXcR8Ti6tQnlby+lukr064FGoKFS27eRvRpTRb1CEtvrpMFXqvTpVldgtzbWUsrEU7qfw6GZVUpffyk6zCUly4ikuffvPvdF0W5zIcs5rdb6xMR9mUFr0VcouXbe20xuPqJQo4ajTRWJXKMo/9XrPtNALGk/peNgKfvR70nY9JTVc1RrQvdaQyj8Rha2ZyZVpPUZT5tJWqi5e30g4NS5OiSmQyMdt/SUuuINpRp/y02vZjuLw/FtErYluDTyrew9fWKQtypuovPKHJZV2I0NohqLUWoao/DbURynHpgnTmAXb9I476RKic2/b1gPDUDmYZiYdFYL5QNOlouHw1SqBoBl1j1q2biqSbH5CcBafDNgqiGvT4ubrZllZkApcO9/8AcvtMXTajTahl/P3t0ExCjnKA72Dc/wBZiQdtzpKlaoUK7b9LR0YgVrqRpf8AtDdc/KANDE4wK3PeWelUNss4FTh/7Xp0lFAnCIqX7mHF0Fq5Mt/rGjW0AlRel9R5RH6y0N43ed2ifOHf+s6Z5+aD1g/D4H8R8TPWc3sf6Wpbpbxub32lZK10F1Ov1lqed2sW2jqlVg4zDS8qELzknvOXR+YDaNicS/QKNo+fm5hMM9y9LrKGFCIRa20a1wvylW3NYSpY2YgjaEr72WUkWPUHqJ92xVWmKmfrf5xL5XvlPWYlNUqGpTPUSu17sflecFuJteKefPpaMWqabHeM5uXuTOFlzpoRYH/EwtfG8tJ89TUynhMHTpA+UQqTaMTqZkxAc7WmdTUa/NtftGAD5bhhEyk2mPWqbUQaY201leolP/T5bjXWYgUqhp0xUIGizADi1MU2Rqp5l15SNNZgDVyUblPxW0gtfpLj0mMpYg+65dw19JTo8lWpl5b8u5MWtlWoR6GHNnS2nbrKFahVBUrpZgplanxOFTZ1PUf4lRH8pzDX9JlTmF7A2PrLJyrzHV7ddJxcI6HQuIczM1EOWbmMBpKA9ukOFOVte8SpqmomJq8IUamXvMXWSyhbaZj1vKjL5S191+KILak65W6w1noimw66k6RRhlQ1QzKTrHO4tfqYlOlZqspYqrldiote4lGm1MUa+bo3pKdFBSV2KhdAe8phADcn5QekU/FBbe8AgPQwfhvLjyQgbgT0g+UHqYT0luk9YPDuYIJmubfWCaDwP3evp/tnxRaa6DaBluvSaZS+/SVqlt7XgppkGlo9WoXZ9owuyjmMq5ua0CjMxmHzZjaLUXSVtLDaFR5ZSdJRqAm14+MDV8PbMg1XvCCQZWoHkb6QHFUuJh05jlzdrzDUcTxEU8Hdhf8ApOG+WnTJTW5Mp1VICXPWYTQ19DKeH0WkMq7GZ8RRq5bN3its0EF94tROYx8SHYVBe+gmIqUgrU7Kp01g19YIyC0fNUvtafaOJq1Mn2fmufNpPtckWw4p/NhK9GnbEshPpKOspVhppKtOrfJp+KV3qZFmVVVm8o0ljmWJUH9Zh2ptXxFNWtqJz8MaISbATa5vppABAYOk6x6R0a0B8/6xHFxUEe9kaxtowjW4ytes18w+H9JjaStmS/ylUE+6fX0lY07Pm09JiHe3DI+cqr52MoJq30ljyPaV0JBuY0ObrM/URXmGoedwJSDD3d16kSlXUMlS4nyg7GA2Fp+GN8VvqbRtTdf0P94fxEz1UfOfmP0g/EBE7/tPymaeAnbSMMJXv1sv6nxFkGb6TLYX0yG8SuXzLdh1EFNctoHrPz2Eo4RRm1vFLZQvSHMVXeVsukqkAEWN4AoEKCwEp2GaU+mxireVKVVgNQ0o4h3amuSsPMO8dCRl1nv1NYhV9YlReDTzZRMSuKNDhn5ekGSoSwiOhA3EYcttDCt1tpM7U8i5WAsT3ldGylovQzOLXj0dIR8c/PPzz1mfPGuRn6z1l4DrEXWI+4uvrPsvDHLmTMOgEw7bVJSqWs0/CdYcTSFJ3KEG4Yd5iKbBqthw3uKi/F6ES+xgV8ueUMyio+sw+TpKbEqDLi43jpuJ6xx1jiKfMsw56CUm6zc2Mo4cDNvEI0hqTNmzGUxrachACrGNY2Yi8xS0w+Q32mKqtncamVCbWlaiMlresbLm4jAxVopT4hdlG5mwJTXa/Wcpyn5akD9oF2/pPyj5kxR1/WfOD8MPRfDN12inxPW85KVPu1z9P/8AfEU00HNKPDYNzMV2inC8QaQ3ZukIXP6yrUdQb2WVG94YULFusDxZbrFqvliBCOsemgtK6tptDWbngr+9ptleU+Kq4mnYhtTBX56NdckyV3RsRfkuG9YEJrnz7GcZmy3ER6eTZu82tCG0mZsxa0bE4oUzf1mIDXpVL/OVq2lTE5W+USjS0r81tzKNByKtUGYHUZ5hk21lO2izLgg/VheHOadhqd5TGufNAvSLKKamMuHq8K403j0wbb31j/EoML0C19Y73z/rEclZl0bVI+E1QchmYGtUt3jmvUamdJiTZSYarLd7Rv8AiXi23lrxF+LWE7axswXLrBYNUa/pMNR6CU6hyql5iq3NTpiVaLZXQqYSTmjNWFNDa5iNfiveYROgmGw+lNBeXGepr28BnAijQzSJTfLDoTr2vA9jmEHa8HoIqxb6a/KadYe8uYb9vS9jOwfSEDUn9Yb6NeMZxsS/ZeUeOuYbiB7Vaba25xGSnlvpeXFu8BABmFWyhBmEXg7TjXzRMMnLGqFrmEXtC7ZgZkF94b7aQGLStFAtKGL5bC8xeDuyvpKtZV5AuXtKg01EqYuqADbuZRwlXIKmYjeU+pjULOdVbYx6lRcvWfdr1KhuzCa6QtY3sRtGcMHo5hMI7XFNkMw+UWXWCKQJwsOqDYCEgsUvfrCLdoSdBO8XqolKtRdNriVKDFW7wjkFMR6I8/mnItOnvK9JrMB9I7AZmgqcoOgiJgR+K0tOsa9o+xJhG7RYuKu4EYeWW1O8YLqZx6lukSl0gI2lGs1yglOxtpKaG+9owpAAbTEvoOUTl11PeJTS0CjlmbWMZl0gqG8sBOUERreeK89RF/ETB2h2y2jH4Ab94s+Y9DDcWW8/+Wn3bDu99dl+Z9jLfSNqQLd5YiXsRBb1jVMU5mRQLQJ6R30OxjC2WdCd4KO7RGWJrFN/CwhRltvEr0heDUrFveoukwXBbJlvaJVduS/rKfEygxsTTCVqzZV2mFwijINe8W06iG03g6wX28MsvdVjmmEPSAiG8c9IesuItY80oC9zKdOnlQWtHp1CxeVcxvrCNCYpcZjpKQpIqrv4E04waUaS33aV8RVtlIEq1bc0TD0lWAQCfAsyLL+CjwBOsFoAItrTMLwFZpNPDSXlQpYPKibtB9YrcrHWE31mUaRnOkOXRpoRY6QS1+WLuV+s+9V9DyJovsB+kA2Eamb2iLpPiUw3JvrBlJvFJWNWyrAKdhKma1o7W1mRIS0LtNIyws9zGRRk1JlaoPeaCUWplXF5hqJ5ViC+VIubNliCKBvB+KfmhtvCOsLb+AWcRTaYnDVifhMqLU3nCItrOPTV+4iiJKYG8TzGCBTacdbmUzys0puSVaHOUhD5TuJeC2sq7UklUvxazX9JQXtKa9pTHUSmOsarok5rtLCWmUGMWlVvNoIq9YpFrwRZkEXrFPWCAwQW8LGEkHvOaE6NrDeevh3M/KJ2v+8CjgIeb4/ZBg7T0jKcyfpLq2bzQ1Kp+cXKM0wwGkAeXmZwMssbw/DGzazKZYziJtKtQ6CcPVtYUjNDm1MRYDFI3jr5WMqd5UHWFesPeXWMsyg6xqDZWFxFrLZBrGJ1j1WsIKNBKeuggPSK+4i/CLzIYtVJSRr3EW1lYTO17wVGAvFIzS5BRDecRefQxETaUqa7RMu8qu3LMQx3MULrvFirAPAuYQIqsCYMvJKjHUwhhrAUhEB3MzbGVF2MOzRYDLQiXWEAQy02gqqGEHiuFotlPMdoWJYm5O/iYYbDWKwg7S+wh3G8yVRfSZbLfeMTYwKoZYCJzTS0VFvBn0lXcQvvPd+WLaWMGwmSEtBvLaCVH8xg7xRsIIHmU7zKJpH45upsYKThkPzl942L1tpKeHEpotrRCNoB0gpoxywvXc26wqu8xWI8tM/OYigedJVbZTKlO1R4AsomLe4FoFFjOLEXpKarKV4rdYIoEBECCKs4gjZvDSFWl9IcsqEy28DTeFTCXEzWltZeayxg6So7covK1HzHQ9IPBKC3vc9o+IfMx9raDNaX8Q0q0SL62md1MS1hClQnNpFhjvpeAaxCtoGcCAU4VrETKk6w38NN5mi7eA6xe/iveLEqdI1bmXWPsRFo0wLRXtFgWLKdiLwYpy2XeYej8AlJfhlGpuolBDfKIqiPbSVASXMEdzZZkp6xbmdAYyneMbawhYxO8PeG0Phm1mWcs5pYzMIJbw0gipCDOKN5kMzG95Yxqh0gpAACXgtFQaQ1m9sMBac3gDM0MVhqIyapHpPYy43hOsDrAms3EJMOe80gveaW8ckudTAFmYzLNdPC8Jjd49P4o3xRGlM9IEaZhKg2lcys51bSUxuIiCU10vFJ0aE+XWVm6xusEzThwK4ganHzE3nczOYKZ1isLQXmsDCLLGDL4ZR7GbwI9gS0zDSODqZnMt4ZZlFgdYXO/tHwqUDpFqeh9jXxWp0lWltGTQzL1nEEy2l7Thr46+FpmO8bpCFtMs03ljM8FKLLjSGq0CjwfvLzW0S0SmZTjX5ZVb4pVqwDeKsRYsCmKBFrmC+kISZbi0qOZYay8YHeFvDLtCdz43l5lmktM3gPYssJhMPhaBBL3tC3jfwPsAwrqIVNn8NtfAQGCAxH6Rk8sqUzqIrFbxUylZ7sRTFt4EGE05UV5mWCNeMwmsyTMN5rDacNpngIgmaW2jDQzOZrOWAmIggXaExrx1G8djqYWmXwBpy7GW8DaEtLDwvAomsv4XhjQ2nDHtFpfxEWnfvC+8v7R8D7AMq0fUQHwv45pfwV+k7SsBaVE0hEYdYGgvBaDNLeGaa2EyjwuZaFZmloe/haXEHgBABDeMR4X8L+FvYB8LGDLBf2dfERTFEHsk+HpLTWWmm87ezUxL5VHzPaKiWAMysRPSGXmWW8QZbUSpT3gPWevsgwRTFPSdpUSOPG58RANZ0WNLGWl5ceFj42EBgX2gIJfwvAsvLeJvNP4FvZJjGE+IEUS8tAIzezUxRv5U6t/iU8OgRBYQAGZm8CZaX6QHaEdPG8BhG0qU4DPX2hA0Uz0hEqLKi9PYvLy0tAZYy0vCxlplHge8vLeOaWHtEmW9hFHsgy8EC+wxjHxEUewBL7Qn2Vvdxf0i5QNvSMNoznUy8Zpk9gH2RAek7SrTneDv8AwAYp6RTLdJaNHEYe3bwv7APjlmntX9i0ZuvtmMYxh8RFgHgT4BZ2jNv7VvAiaaxc0pnrEA9q4hg9kHpAekddpWpzvFaCCD2b+AinwMMMaMI0aND/AAT/AADD4mNDD7AggHtARm2jHf8Ai2nQzT2wb+2Ip6QRhtKqR138PX+CDBBBF9gwwwwxo0aNGjRo0aNGjRofEQQCCAQQe0BCdo7f+RtM6fwNP4Q7Qdv/ADYgggg7QeAg/wDwvMfH/8QAJxABAAICAgICAwADAQEBAAAAAQARITFBUWFxEIGRobEgwdHh8PH/2gAIAQEAAT8hyxUPNgKxPGhMFmL8wCDxh5i/rUuW4ZcP8cYLYfxnHRrvi6UNQCPdBLzAzmZEsv5/QQwPiDtmLXua8w0hUym8xR3B/MEPlfghiwo2uoSY+DeU3/j5bzDcxxg1FJTzL9w7opz8DtfAyxLWSMMTVxGotNuR2qQIQiMxKBiAJdKYmG4CwJwaCKjHsscwOPMw5+RFFCMLlBdwzUNG63CPJKsBg5xGZJXwfJDNEAimB6zpZhxDhzE7UrhnmdyW3Modzb4AAljmKmfhHMe5g3GfwfA/xmKDHMVdSs+btDtaofUeYAkRUYKbos/4XLnMLEoQMzKGGGEtNJwmPuxElC4hxcBEKeL4b2JgIGXcooMddMNgfuGYkCLhigUD/wAIZ+YYCXouNZGO4KG5wU88X4CAMJvEsYP8Q2IxB1NIgiDmMGu4Ycxl3O7LOY3ExfHkhqYkbD/C6lu/g3BiGG/8I1VM0lbKDRL5ilfsS54LMrqENwd+GYjcfF4Y9MS+CcEcw8KVEsIJxHASOvAURmZTmGyl/eYeqVFwAbirlFwxcM2lhwx9oPBqrzEqIsqJp7+Ad02OYayv5zD4XnL7lm/ivi48OofwOJldzJNNx0cxZ+Zp1GCNabIVW/GH4V/kTWHcN/AfCNSqo7MysZlxMM/Mp7OxzoThZzSVJQ4lUJP6gpFcQ2YuJQH+FJwRJWufhNnGMA+ZRMRnOOJe/iJsjxbBkExVOdBRlFuSIXtgwgkIm5yIJj4vm/xHWLRgwQ6G2Z4/QxiGTG5lIy+8zNBMvl5mdfGtNTIxF0QtkCiKrTG1hj/hUr5hiVB1GxMEqosyqpUZl4zMcvPxHIblZiAVcL1KEyajM/FOJajPEyheHFUrCCEEvMSafBZmZlZnkhdcarJwy7CM1EKMs0MKV4nUmmIfYS7Fl0qDE9ZFNcxJyiNJlURyn1CST5BGZMLHMMNIbhBCLzN0a2YjcUxGDPiFSUBKcsosgHAtWF62LOsLJXshOdHtlcFG03Un7FCDl+n4FpUESZRyyssfqU36zYRvSy1a5TOIoqArcrFy2RBTEMNJmMHMMXqc0MoU2SlqA4RpLFyhBrc6ZlS+Jc7iSwuY8Z5+BrRmK7S/cuXJDgcR4VzHwJicpnoHGXH5GX8LmKPBG7m6paqeIf4UQVfCiOENwnmZ2ZvzN0VswSoZtjZKSLTE8x8WzdIu1eYyYtZCVmNEUroIwzFasogHElMYUSn2xjFDj4LuRGm3mUsR3wlKWtubcwMGkZWIk1lojEGJgEQnmIYfGFty5G+DN9A6gnEPGWcQOp4pQiRWGUmZXCP1KVeVmJLRWduLk80NfxMIgxfBQwDxtqPq5X2ceJbpD7TmhCxPyQFBYw1D3CAtR0Yii6x7B8FSH3L5TAthIwi5cuXMu5zysZisLymfMvl0oyxI+Ee5gKgFzVxf5j5eeZhgAQJZxNimNQfAalzNdwi2AcWoTArEBPjVDNpOwTgVHeErGE1aG+pjRhmVhq33BKJybYMBZH6mqjVVd/EByJLrhEJKMy2VFEENBBtmBXcpyiXNZQEOKuMEsfMCKXeI3F6hgenHUSlui6mq2JFPKakR175UwcSkMqAZWzOE7w1J/wCkTZuKvn8PEciib98vqXjYGwEN+NxFtMxYxy2oGpGo7SpTPeOUbG/jqNyxQi5fxcHPwMIo7h3ddziBFVYqV8Ms6wLgjt0h6ZvEoIMr4IxK8QVsU/tjDCjxMHaZi9qYNyhSwmziDFXDoSQa6AcLA4qvMpMcMIdkVVcvZZb5ilyYKuUo2pXsjRKqNvUBdXDxQlbiEExBSkQesSjQByTCwHcoCxEBBeZ1SNIqLLtOGWAVtPDZ+orAdy7Hdq/R7Zh2VqoC18VNjt7mW9TeXEJca2+IIeZVBbhSrUeXo51000jTRyKr7hbtOih+GYC+HK79nDEYi6Xz7EgMrLXu5fD3EA37W/8AIGc0mloxhNYLsVTTbpl8P9kwDENEvimx+4hODER2/wAPFZrEZlRXLzCLlxV1nMcql5alXkVz3Kn2Aix/GFv5QOEIE5meDiZm2A1YZcy01jMKOMXMT8GbGRBnAzV6mM+e5xNiav6lilQJpgOZSUyoIqUbCOrZmMnI5fEz7jCjxDamoJLtx5CxpC6AQUcUtVEXEzXxx3rFeVhwNgIY4lePgTgpWRMZldt16i8HzWmmTyqaI+ttS8ShSl0LW31UDBwjoMx+VywLGAbW6x4gKawVy93r3EYlqpgO8OZXewvfOvctYG5itvSXFjOtN/gnlDkUc/8AEQ79U11xR3Dzh6q3OSvUedm29AdEoTaKlfGY6QW1ER5B+pTEgCJaug3XmGWn2p0evEaYN447PO5SZSqi6NEIohG9ubo6ii6rpU9VvLTbHpaAboGbgVolh8FgUa5NxYNUkjpGVFXj5ZUJJWLE1i5hAttteZvjD6TFGpcVr3ANYqbDS9/2lXS1KlZpjJZQJQ1FLpiUpgK7uW6uJkxRqUVxHd6Y/wByB74TtHKzNhKmoHXLgsO4G4VXCUs1G24uZqbOJqIIYyTOIocbYVRzUlxnXiKVEYFrqPjsn48fcB8WYiFm4uVwC1fAQXoBtP5GeLRvf+qlXc3RsG+2Rnzaukv2Vm2g77nSF4qZtwfD7h2JYbMcEW8FOlH+2bLpTsLdzkyoBf44l7dgI4M454YmhSKcM+M9pUhQxPKYIMCAm914uoX5eL3ClquabqVarQbR6VIFBUeI98falCxmf9t/ZbZsUAyqWnI9kqvBdwWWPS3zMHQzUY6OoTbHgqxniUAPqcQprEZ2vH3L1YM6lOdeNJHvVCsY4veYs9quH2rOfULDIFWVOWP0l/xG7BC6bWVxcQspA3Lxt3v4F0YuX/ghRcwfWYXx9wfABAonuYwrxBO0usl9FOZdlWJbYLoKHzSBaLSIVkiQcwsLMkZcIRxUCCpmBCPw0TETbkY5mnLXTPMmEEujMewS0oEfWQ9SzOLYRF+oJIAGGmNio2MFcELYT8jOg7YwldYbV15YaJ+9aAebEUbof8gcHuNrUsgfWA/cFMrz5bF+OYaaZrkaN4iYV5QqFVTF2Pnic8UtXhiw/Saj+3dBaj3KMBsZIcUHxlp2wA0X6hSbyocbDLxnqMvgDQHXJvzEqyq8RTIwwfaelrArXme5SVHSXXo5ier2/wCpx9w9w7eL6YQqyjp5v0mojDVUUsAg17+5lHTBcYwBKSzKvm+ipRAOK0fzPTG+ubI5Buvdzhlr2Ko+Tst54pgVYeqP+pb6a48CrNv0Qk94tHpjQK9qRxuoo/TLetaS9PCUjIHlnqo12OcJ/S5QWTyg7Url1mG+NkF1h4L/AKl49aPW9uGpnhccj9y5cuXFFil0BatASz0/ZojWHZds86sGf3iX1nUzKta3cHE8DOI9cN3ExvhFzDeYxUY1FzWHFcvi46s8JczBIskxacCcaTMmYdXrKwgNXiCSWsYaaguJWain48s6NmocpUhhmoIoXyTDwBMENyrEezWZVeyMSH1DG72myJMqJmO3ZXQ2FuHxP6wGRVy0CPI9S+3ym1pvS5ULSU3fiINsENW3ndG2xt1YX61FPJDXFS3UnguUuuoD+FF9qVNxOC/pIHH3hfln/U27wlqzaqpSg6wFo5GOoSu3y7VHZhgry7eB4ZchEvHQL6VziolHLJhPGVmJvvBQe+GJSATZuBT/AGRALd3K5psc+YmGNB13NVg9tQt0FsbdnABLK0A1nLRe6gj0LA0UcVKu3XzkHGE3cxNNhG7PwHl5gBLwVwV4DBE5WiO6SXeXnZWy00dQXEoYFj0QIgwOZDl4wdsFFF8AracqZPED4WE0rbfj+TIauzStA0waEJqq+CjYL1Gxl1WH/cxDK1iQYMyNV4i5lq4SVXqhz4jQJRadqiZbmXMuXLiixVwZXRNf4ZcswaBEAHo4lOAtcLoaKggRcqiXwlpK8PBxCTK4jELbYsGoWbGF4E6uNG7mKW85pMbgus2Nc0TPKgYIcDmNVL1UaLW2oGMm7WmDgIKOH453JiKihsxR/RGCLUU1S13OogkgTmhNLn4CZTNw7lLaZiAB4gZVFwQWCwfeUYnPcp5HdZhwcHC7b1xj7lSnhZT1EKpyFkewCGFhX/7VY5ilpsF9KHbCtaV+Q58RLCRXI1mrdxJSjXLJHGO8zN8MvfYKj0fdmqs8J6YDkSwFjo5PMK/caLsUat/UrL4lHQ02jqUFjuIWcCye5nTjip8gUCV8oPxbLVpxXcSsi4Lf7qecZswVbccr3Bt76l38If6TSTgAz/8AX1MUov8A95h8sMQHBMNbmVjTr1X6myaulsVeZTIIgoKUfRGsYl3yzf6miWNO80HgmMiLFq+61Px6BeaLLqPvu1tgf9gOYtLZ7WGnptwPItG6vGraXa/gntva/tDZm8uB+yMEFRXi2NLw+5e3JsQvZYecTFwIPetKy/cuXLlwQt/SBj3mVUQchLgHgOpWsbQ1blCqLwg8LhiMNmfMx4eZRRkgs6MccnyzMHzxzL5tizXAloKvi7mHClWJh7Ky95+GBKmJA5jGVtE8JOGxaoV54noIBplnGPrPc7Xcx6xOJKG3iIIc9TFni70AZA1h8ACCPL9b1IeL7gd5TgjT1vICeVhncHb5wHfE+mh/+7OlGrcJ6Jd+Qtt/pFQ4B2epWJLLFdfF5xKD/efoh7ltWO5gs1M64cOkmSu3YCfDi2Vlm9FZXie7gfRE5VlvyQLsjZ7W1bL/ACDJWWhl7aC5a08xTHlQrllgGV63LXeI3UukdyzvEAhzPtIqf8rmPt4m1r/UzqUtU8Gxj+PGUA+8QddMC83pmOBrbRYYKv0PWcTJUdDi8bhSjgoFojm+WxttN11COmHHjcoKKNC58IrRfHs7YK1WCoWv5E5dFLa4qOrw8uemNuyoWslYmWCf75nsnL8RUS4Zs1sw4YN2u0wuVob8ynGWEWtVlmnxLlwJAq6CI/8A2fMFDV0R9udFtdEPsM+Vzxq18ESGPBhkmpmKxzg4n8JjU5t+GYPhtATc8412jxE8zcK/hlcvbSRJR/eLf9E5j6nZZqFAGIE3FMGdRLqMdFagAal69Yy+RYmAqEHYqg1M32eYrVgo4ZRVuYjXMK8RVvM6IYJCaRx3H6ZEFTFz4Tn/AKwPBjUWkC2jx3cA8/v0NtmIWgdacYDuKGuwGP1EUDg1rMts3U7/ANKUB4BoO7ucsJ23h/GOV+GKImlPFqsuuIrhFMQ2eF/aXTGO2IrjCD9Mt6MbIZncGgw9XF9W+bOrNvdRgm2zYC1vZD2xVMlTiI+Y+IhlTOJyn4FtPZE2oiiZC8wXVoLTuICZNsaB0ERKwrY/tXAclU8FmxZjaHIfThnKjZhcu8w2Ve1LLe0aMupS/kljJoa2MtMzDB3lYcpyQVB0+fqNJe4bL4g7lO2f/IFwxq39xWwl0TM5Hm5k29q4iq3tVjaYqwVfg8wmDitHcp7CqYpTD0grVsR3SMA/1NJ4XBqrlwPYcvBDfKUfyFbadRwZu8FXKuGjjywBdcYmE+NvmKRocEsbcPcs1AlcP5VSiH+iA65OYdW5lWGNYtj1j+ZjIfRMCyQk9bg7K1cdCZRn/EwdZ5htbXcfFDhgCAk5pCqNBvzCYcSoQDkhlBpguICKiPEZI0WJYGHLFU03C4tdwbnctoLYEABIQKBCvFZYt0OLZiDX146hW8slmVezMq41P+xpYOHkmMeLs/FMNSXbrRwBHdNxY3wqXTRmWaVHVLy0xF4BDCBVt2V4JVprsTfk5l9vtzCWfzIYXDH4hcf/AJBrHrByqbVT8+JbwPQB0c+2PBm25OTbUOShE5Ga8sKrBK/6QKLRXsxEJm/MUQFd4rQ3npQVOX60Zs4itd0ux+GOUQy4vxiLPXkf/ZnoKIgMWYNvqAsqiOhzLcKa8H6ghZgHHKW/9pwsWT9gxZestMybYFz1SPtNRgY7zuDZRKxApsOzqKiOv5lqp9qnFcWwqPtsclm1NcTKpPSLTuz5gAB5q/yG2KIFxNvqaCcB5tJ0wD6uIuk3zFTB0jbSxcClMStnfMuAHCIsTu8zMWrHUtOpalgij9aN+mVc4Xgs6JbHOn6xOHkJ9TmdSoOpi2bnK7lEUZQdT8zSPA/qFK9VXXwRWR4hbwImCMZuZ3ickGEO5VUrxtcxfZir1AAYqXcaagLnEtKbGnMrcv3LOj7mIF2V7gujBI0qncyy47eiYWzkIfoIYLD3BEgLsVWXplUU1dbV/ohApgE7Iw/nEP4XuVzK1t2N1/ymCFXPEB8xkU3/AGB/dn7eYcdY8Vf+y7hZQaqjP3E0dVVkOqnPE5Pwz36RpX9jOgBQd8p7iDlWHnlhOcy0nMupy/UXJwLyPPtjmU0KaMBU1df+NxpbAQaBhtO4lw6xdR1aRtM4eyLhkY7hsBTBChM9i5xCwulbjmGtmpMF+4MCwuLGb8w9bVUcx0bRwwfAQSvW3BF60pFhuOLle2eIUmYhpeDUKMsJnjErIeE2QHhRlq3N+p5AScBdPjSVzaKlMzAmMHDxHV1avuYqi9mo+KAtb1UQ2jIW08L3K3E2u7XbP0NghGAUFmjUYsNo6IRNC5nwph8hOo7bDCOyf7uJfcIGD7YT/wBk8s5oq1GPC+I844yF/ZKoRucvgfcOFLze5hY7llNIPFkR0cWWaL5XLstGHxOR/IgLY7lGOoDDHAruBcIZdTcs8gIuTjBOlL74hulXlmxhz1HoGugltyr1D4cIdkHtRdRZEQkuhKAuM2T0EorfysVNbVxXb7nNo6+sTEVbdM5jrTAJgKotwA//AE5FwJECG3+xZ/JRh9Do+CRVgLM0/qDVl7eZagZQvmJ6oZmcAeJ/MTcLtSqOq5eotcDbdiDogBlLtDOzxCS5BByvuS1XHFyphgAhnDM86MpFAUNu7Ql/ofQQ2gTIwQrHuvMQCwtEbWnNvEtKKQdDC9xEPZNQwcRrftcJcRDmUgbh9ovUGtK1MvBXhL4mL5G+RSolgC2v+zDcIJfJ4hk7HzN0WLCizq41pgyDCsqcj/SM3d6/KdwlfIOQTiB7IOQenmBUX2JVEbSwSYoXY2y7QGKYi0MG1qGytjSz1UuwE1WY7eeFYXsy7xxgjQZtTpKkOa5xGieJdfsQFKiyrqNklqtiPjHolaFQxqW0NgI3rUxuuGVbehQwbmsEaIRKxzyeoFw4Ziy2xFekKO4pHXYeqRKopcbO0qZzG+tJcYw21LNfUDQAHcKvsflQM1L8IoKnf9kNypcbBJyZcK9tBIZoY7bjmfZjxLJlKjEYbBBVpiFqXIP4noRtvZM/a++Pu42rYbC1/wAlSysAqfqMmM1B6ddG4b7adzvOIUR43AR4ZkWIApKahXrqfTAMnnziExnK4iGKYsCVBNllhmUlCHe3sl8H0hyrqItcrmOESJHidkzVFKbNQ16zDvoIzVDcpkeLzLrWQ3+oQ2p+JUIBI15QTZOY0kACiJlm2tRqtDKx/CGJV7XH2wxA3bWAygvB7iqI0jhIFuKxqjvzDnlOsFJxn+yGWiwcaRtwWCrV1UKwfoSj6IS4UIX1FijSo+lNRCu7eXiYugY9VREEHcuLW3CyzIeYKzGQm1xjRcr+4UTUTg9o5ZmiwZXEUNFrRTtgEa709RPgXmfV7iMpfMLanBXN8JXSsSrHpzziOKkcjUUs0wUv1D5FqCcB0xUC3VXfMDYHbNtVfj3L6mTWEgkS5c/meeznhAUg1DVWOvGY5ZCsbxlNJqIO3KVyJuW5Fmrl8RSEHqYWt8XcuVC1AWs5bIbtuDC7KB+Qy4KtHK8rEeRlxdH3suIBqDiPYMMtgH1IKUYZ4ictcpe+oWLotfDNvhuBS+paZqPnLDQrmYVqD5UepqKfaGblj9MDUwNzmAagJplCYr4mA7Fg31iJWXcAqsXp6mGuTHoif8kISBE2G/Rg+Pg30eP9ysABa+gITPt5ilXFqhcV3Oogm69xTAm4PyHuN3s316n+wszXQXUNlPcH3euRnCTtJRni+qt9kw0pCNlPuNlBK2LIBRp6v9S5JOBb0kWOvDhAlxVE/YSktig0QsMyihGzAIquvyQQTPE1EwLYqy6lJ3FX4lxTKbVOlHfftle6VvGmBrNuf+YWQvwRTDUMVVCaWGLtrItmYN8T4lSQl0QTmQqXdtEKWxCOHi33FXS/RSH4+EZs6AtiNfgFXMoOq/CXJ9j0FErMYyWTML91iXYUfWiZwnW8hCmqlQ2d74gNpZWSJ4iVFVARVUIhm/UV6lSszAptI0YXC6ZRpd1ziDozMApUq+luWEKhDBVwBG4hwEUaBC8/eWbvYDbuA4LgWR4gqgQ9kWTCtGWLqI+Fhe6FeULiLhlMpuA3Lvxukpc9dDMmvVtWB3oYJTBuo6QyXzMHz0V1y2Xm4rb13sNY5INOB0FE9TGsY2VcN0bf2gEL8iotXnglOx35gLYY5LJyAtmb6/mAwBdVFqO04EOaDqpT+8nKivd0WFspMB/MxBnkComLkAQi+uAwVXTA6l11ENnuUYsXWb2SvSjglR9FoswH8CpTrt9PsngzP2UxEtCm83IvMFLDzCrujiaf9nuW8O3KYkowJMjGTJNZqal+nHc2msVMKLCbcoDsrMdIR4LlH5cNylylo1CVycDgPJKQRY/MJtQu76hOqAsqF4z3ji3ROUc7LF+ZcK2Iwzuty9+JfNvpM2XiG3a13EBF74R7lAUKk8wWk+ihxDj3Q49w1pi598dIzncFSkKWITyvCYadkq7UpNbi+tofQ5i8qpwRRVThMimNR6MtQZdB0qfWwcHxSnVnsHi926qMR6Li7rjzyxeXjpHkjY5xH0FiEFSGoPsK8x6jqro6j4lJ+YCtpXgZW0I9d7qXXeWwceJUIPD+TKMEU4fGC1GQWbZUO4bopcABeKgmRi1+CPzHWxZ1KrOxRLcl6lBxhM3JLuAwolTJPMu+B1K14u3DE7jO4rlOoB9oUpKfwjZBueB0/Uq6yV5gTooG42d4cGazzFWrWjIP7L+pcB5Q6DoVKrgl6r4phEpmT2QlkAC35jFp7utr3NiUuLIXgeoUkr9gajVUgw2CGkMqWpmuVHKvUr7FPJWosdy0CwL5Y62pVvrqeiLt5nOFheYgr01nMEWhT6Mwq7PSXdOjhg01t2NlbbiDpHb8JOC1QiGWo1Wai+lgg4MJz7lV41cRY8C67X1lEUoVe+5eUYHdLX6hK7RVkWMO7zOUQDaRsS1dxp0RaDIVANy3UXGfylhAzDKv0lDOrjEtyQjcb2hLXiHGW+5SDguD51fZ9R2MUQyQoRWuhj8y9Qox9FlLx7nmD7WlZbz5igbLa147lfnWklwrbLZuHtiIJJQ/ftnfXvLW+oxZbckTPiBUZAQfI9FOJntwFYeUZoSpMOC58Zx7jlXuFRfK2P3hVZ/tKG3vgb+4eGQSXQKNYPTLmJgpGHTKq5Yd39xUFvBDEoMpasH5lxPAesw1m9aCHOkOahpZZbNrkfcNdrCHXrmNaKAxX2jHQmmq16jo4S9EabQdfwFb9zMSMXamYpRmythAIAxwB0nqZIaVvXev8gXdIXHTDDFdV3U+aZUM3mr/ANmaF9LMB2QU8QdDqKHpGf7+FXrDUscGG2W9k4ilgcKwlLaFAEPpepdw1OXiEbviCIc8nGH9h/7An90eoQSjMMuWdWniN3U5hapew4gGP0ldvEeZXLzomTuPjuA67JjLw2RI1vDpWW0S3IviZg/+xlBAFuAPLFWDYTy1/qHBKWLGA2l9Eo5lL3L9sNKU0SGsFRcxacXCX+m5/wB0nMhJgEXUwLtgKpAZttTxMx4Djr/AA4oL2C7Ey3EXfjVOoMIGetlWK5rUoNsdKXSnTq4JjpxmhC3xLG4ZjsorohLC1xLjFVxsq5b1hoT4Hzwkut4N9Fk2bqo7ejPXoFdQLV0SzS8CaIiE4q5s4qUIxwEqDA1R7l5bqUwro2V5cxYc+E5WvqCZ1UbuvZdQjpM9ZznRMWlIgQlRg3UZlj/iBiWlRYrw/iCp4u3t1Kq43Vj91Ma502BfqaSKcyd7qcsVSbr0VX3Cft2CchfbeujmW3XU9s39xSThlsBgJ4E45MhY0m2jVm7emGMRfiha8cPqBLAmQuHeMLlM57zKj/cfp7i3/SUc0iaodYjalVA0uupZFLv3iKnzZFyrnA4mG4spObbTq8wUMVLdY9qjE3B5NUdJ1ER7oy1OI8/UGBVBBwB3yiu1An8LOUjr7lofU4uJiDRY30RycvO5WkoHM5BhYSmiKWp5YWyXONg3GJaPOJdzKhwiYVv1ZVwLp1xh0fiX3rk8uYFqLOPiduBcwD4BcQLiUzxjLqC22oX9x6JXoYWixE2DMCG/Mf8ABFt7tqODTW2KJUoAW3d6ZftNHqXJoOQHxF9sycnNqjZBEz+51anLMxTIZvHEtMxNIF0vN7m5Cqt00W3nOJjaV5cPB/tAf5Agyou9lRNWAtqNZu6jdGSntW7N4SD+ZgZluDrVS4gMFKE067Zal1uTMTwEEXbOF8bjsmJVFQrTsqA/Bks3VeImW4OgpoF0h6n/AEws3g+5ZwJvcBuotLAKVh1fLEZW9GOCYsGLcYKgrqXhx9y7uL266GC7EXBbFOUTqovZ9GrgpWLtyMDELde3gc++4urVlqzyTYJVmByT3UqTiMXPhicQTN/aNn8sWpbipgH84WhQF8skAWryyXo/WFYdsTp4DsNPVxLpd7+SZU/R6ODdvcBmweXTfBNcVUdXzsOQnCRqzj6wA28hROO6N24l1GDCuoBnmeeK8vxbYapbuPJlXDO2GqAE71tj7qcTVpvC56QTx8Mm2HZK6IfxDmXwiip6zpnRFQvthAFD8EGIhjpG41Ni8R+MMHQRVmZTnHqEuEoN7zeXqZeIGyrw1rmCSkMrt7F+6il+cSBBj1EmxatVseIiMpST0m8rxLgUl35b4GT7mHC5Qf3aZY24Hs6CXnuVXi23VzSHOkcWKUzulEYbXxCPnkVrPP6qPTG3jjhDaRb6GOzxm5nbd3Fvh1DqFqsF+Jkj+hW6eFXiKKfJ71OEShNrZ/7FBdK9PcCGHYqntYaXZ6D/ABMiX/3zxLAQ0Bdv+2VigZU/qEanBUielEAa0VF42zEdKy4S/P8AIS1L1x1rPmAcVRT7bq+o9l3553BaVZvWT9yoqxAvkiKEtJDYWy6HzRcK4mo86xjs7dbloRjACtW8Ru201etg7HuHpvKv6QioWr0pnn1NMiEObeqqpiQFMBNGtzlORJhu/M2SqisGxW1lSLCqqaFxmK6a25lXwcjiBOXZVFzlPskzc9Lea/tcrwBZwHRL1ZqEg8v3tfqCzdjtofmF9rlzNzcqeOHVKQDqcyOol+IPwieoHqbMVS4wZmGpOL6mbE+ATyoLAjAt/ADoK34lj/kFc3ANkCZtGRTqMzonc3B+kQjmBayTfuLKS4OZ+vhfg0+tWbV3CtP+onHYUH+y+JUSsBKDwEEWlXCD8y81FHuzUIAj4yvT3Fx5VGnJjjc1DNuT8AjRibjgoOfUQgWq+OKC5nVS273ymSKIDM3xwxorNTYLm+Ae7jgKBoLOFY3UQsu4Py/UsIaluact+OpX7RDFt/8A6zHdZFgaBlvYbqDwdcsG+iF8YqUN+mqIOB4PLDpO9X/tPiPTk7VDxWvUoVY0wfyCoko5mvMIef8AhBtbu/8AsOgwXYwwOOPM2mlQqc4vD5gBb4tdrPXlzNBi6z7WuXeOQF8mWx1FYm15DhzxENt9KP8A5uMCiyMgvzMcWQQ2smMO4xvNxqQ0DQphEWFmbKaIutslMbC+cxpIZzV6F/VQmobZXlLbvtplOEfjCmTi4exR9jk+8zwZe+BX+selsFctyw09Lhp2tbySxBGle37zNuzKFMHSczZKBI2NMB+oCX5nFTVOfbRK7Y4v6XUHgXHG0I4/hH7gdx6oDyOonxLHjqDMXuDX6EKu7F4ZlfwGTzvHLRfR/EbZlEwMTvPj5X/tjwQA4hgKbrCjeYs4QLu58zPw9QPKYtBEPMavE1y0ShWZVCwlfGwwycDtViYqCAT8lVzEod4Xnz9S11S0gYmdcPlnPqF04dlB6ZSzmpO58QQsGGcCiKxxt6/Ervs0FUzmNYAKHQMa4mDKYYPUWXE03/YAmFAN5O4zhtXavNLzK7kv/NlyIZVaaIj0qRvI1n8ynCKNMnhxoplvp5f7Zeo10u2W5a3IURhbunAeWUan/wCBKX6qry/rAVu6U19zLHNW0/cTOwmiLH1lb5P2IjYokYNB0HU3RBrQfwiaqiOLGxjvcJadrzKUFkDkRB9Hmg/KIDsruFZH7HJOvEAbWNmPXOCE5OynMI0VfSXc7eZdX7Lpiq5/7MEqxo3W5T8QiPNw/lGZVjZHLJnxGtrsYiZXTCMi6BQu/P8AhBQBq0o0u/u5U40CsuFeb1EfbQln2lX9yhKslGm+hMxQ4bPxEisIVTRbe251P6w1ar5fyWFD3ub9NUdxsoWvmzIy3Zfl3SVGvcCGCXC63zEm8+iUZDwtq5ittXBqUdji4xVr6xO8PAiTj/csWpa4HKB0S2AIlIjzoluBZsfQLg9v5E1VP3A3DcqBUfuUVH5RXMgPSWayzh/wJTslHKEWgR6pK0Uja74ThYjYrfqZpu+nwiCMcV0oYs7is5dh87iWHG4U8kV9xGU9TwP80Ph5s1XtO8GbL7gxOETmIMSrnAcF6iixwUs+4coFF1+hDq2/SlI2Buzg/MVtmr4I/lhXDbEQYyOgR7ipebWj5KmC1xYtu8psoYXA6t17iY82wg447hBi1qj9wu74pMjE8smG5/BqWaE+MuI2twTmI0at3U3I5mF2NvDqM12qsXpTGuJVk1AfOXCMsyZxY+2LEfRgiazSLARetE4IdxjBat8rOQMSw7xqAijzSfWOU5jbNwxGgI0Y3nmCHTYnBM9NohP1oZ4WrxO8nMmA88sbCLA6740v4gznnCByizHCp8gxX03mG3CAq7gh3+MlwC2g8uhLpRBMt1t3n8R2aKqChsX9Err2gNJXrh5gU1K7uv8AsFN2YRX1ctF+Bwtp4cT7GJU1hiZztEYZzFrVi4AdAc9uWBms5GJ7FOb9+o4AYmeLikJ5N+nUTUtrwAKmWpQx5nAj+SqOL1DZLbLYrIalBQPqOddZkWBrnjzAlFK3mJwH3xBg8eIX/wDASu7fmNxNvzMxW/WI9P7QfP5pTdL+wYZfbHGgqZDFHi4Ayrk9ynqCkS1mDXYw9IJUd1v+GVVW/YS6NDedjhhLIODcwUN8bhelRzUSWYt6MJuJdOIqDcwp+VBCoxig5mN8u9WRGRXF3rHIQBtfh+JfAjgMSj1NzVmWUwe0HGVLw9XMbzVC+L76nAkA1e41nXW7g9RkxUGRSFOX77ZuDZ041muCGxZYB2MFSZ4IN3upiOH0D4bhU8YR/SIrRi5M+pUMjNLxF6IrBlvo4i9jVMsqqaSGVvwLxLyiz7rMtF4B1ZLq4cNjiwWa2vkAK6PEDZkTKwdvT1U/2lLQRbrq6lZ0SdXHkit7m7F9keqDHCw7yeOY7eDTMxM00HDCSrdXAbMazEaA99VrVD+2OTYaDOTcxoii+LXl8Sh1wK6qb0AvC4ZUlbQUV6gH+Ra/UaJjCVjHH0zc3FRKcepQVdq2DyMw2tA45tNy+0a6ha3vJYLXuUfUtkNH2HiKGMN8DC0bkB6NXMgy1zG1leW4lbpq7Ws+O5hKWQzbirAn0ShMprxRHhr9xGAQJLD8Eajb+iFORe2dP6XK+PonUE7mYaPuDr+WAeMtY57SZZIl+IpuK3uV9DF8V27h3FLB0TiAe0KBNLbO0IxQZUEPKPKKiuM8oO7ellpI6EGvoFS2qEPKUXiUzYQg7FTkjMgK1E/9ixWwHusqfMMtpsbHuBOsOf8AMq2uNk4JmKrKDxK+uuZHWtuig3kRjre9HMYpOZoXud/ct5gop7lpkGDafZLxWbTDxhfp6JBgyCqYv2vhaHNryHI+o6U6TVpxAUMq2CaNxCl6tX7ZhVvaLxMXSWr/APYQh43llTyBT0blRzm2/RFLNuWsW594wea5mBajSlc+WJdlItNJ9ot6W3B1z4lAByDbL24ljZ6nmoe22Vy42NbmERwv1eZXENoezxFfcnHU0KVy48kJX8WUY6hlWCyS/wB4MQ1jCL28QYYq2CmDtAc+vUSBwsBCeRwGYA1/Rj3cqMV7PbErYaJeHT5mySLlWfMVwAIIvA6l9qdJ0s8g/EQuVPuXwUeXUxH0JSt/VYldv0lmqcnkj2HXiZFx8ssVy+p4Qz3+56n6j0t//dwPmWLPsfyX3d9VFALx1ma93m4xxsr8SoR1FLebjUCipXqFrioUjkPymeLQllBiDJMVhNIKhiSCeGDDAlWxXKUmyxSu+YkAdQa/bwISBEaRjLEO1kZ9OZeC6hBaqPDUthcWXRL5NmnLM7PGNEOvcvnmFwGRpJhJ+SMN/GMbQCN+owAOacRw+QPSHMO0aMBGiAOJkl0e4s28fV+ZUm3bUD8XMTQAHcAbF4quIkBbRn/UvpdQYitaTNsF4qvs+5lJVb8x4n0dwttcaz4Cs3BadzVR2FPWobHePB8sdc5zCkzUc3LkigEfCVlN1AW16xpmbIhdQewcsNUhutqJXgQSZfZadRsIABQ9PEvRwaXDtu9QdaHcW6ZkOO+Yyrc5IXrNZGsQ3LVphWKzAlnam2vrv9zHd/4qJg271TXupgon9/7lVYPRIWi7KPzhMbfhUV+o1xgQ2xZ2GoBz4m39Ri8oIMN9f9mhoOg/+INC0emZGb8X/wAnQe2/7MbDBpu6JtFPLJuFYjX2b1CgUAdEACvljuWXM9WiYOmNzTtjc92cSlwEPUtnOfFOzu4AoEMOqOqQwF6L0kK6wsCtnL2h5FWGKfWZfMpQ/wBkABrLo4lnS2IKi2JGCAOh1KBicPwg8Ki+ZheTgm4S3YNw40IDzjvaYGspvglDNUV9zFszfRY1Zs8xCncNwFukeonra/U1xlxeGC5S8QClCRU761B+4jsBc8SD0twVXcOHtu5pmiStB0w10ee4pk9wZqOJPUQqoGws0Y2UV1E/bJLaYYjqq/U0LUCbaM5NqDX12BlixxCiyLYFhe2Kk9ktalEYlG8jmYM6buKHOG7MpZQsB20y1cvKzo/YyuX8qD+SUN/Qt/tmQP5K/sJMIPBiNjd/eP5cUGb6xHksp9rKJo+hcRLrJ9QcNf25i4u3hjvSKj8/1cQe4juFFj3l3KrJvo1GAsnPuKotJE4vMKQtEr7dUSi61FRWoK8GplXgzJ/uLxisF1L5hBOsRFgb4fcrgogOIWul1VpBLEcVhxKhKWgbCJYWuo0RRnyiN42U5ySqWlYJioZUQ/XrrCogUrNZXFHEMCxC4pumIfoTXLF6ysH/AKsFMBlfEpwlXMCACI3B4gBTABFLerOVl36DDM/4cLxCwsDFFNdxUoXGtzl648TdjkLlmQKdb1BX6IC5I5lrQRzoX1KvhLzXpDRPpBwq7qJ/UggQQ65jcqCf2cyznUXUBRCqYWXEesU61N+h5l7buiWeQaVqFWpQm7jVxcWoMLWb7mhO4XVy7Sq/3LShj7qVrYK7R93F9i8GKVVPG/5PEeLlpTa/b/ZiCFjg/GRHCctYfuMzlmm34ijf2yNf8iU5pvQkvh/zN/uBAze8n5idLXZwy5MtwIHqRRH6ilpc6haHGCdMB/zFbFEDowDLzyNjLLBE08zN1kyfGsUsudafZM/I+0tlYOYZYuegghXERJTlsthOBt22CJT9RWog/nKDWeidIm//AIxi8cF1Fg19u4rNo+JWsjzDwsZ9EyG2ybVmnERCWflHNUICm1EyK8EjZnOaitzM6qglgCpxlDAwL4OZUWYAHNGJQRI71xcWhZWmFENOoJb/AHAq1gi+BZoVfUPCty5YSHk2NxkQy6yJb3rxF8O3iXPkrLZwwI4h7IQffjQ4UNorpYyt5j1U7hI+fqO4vG5nbp7iy1nt5mK1HqWb+2wA5+uYKxd+4E4FS8qPU1wSjjX6lY2Xoln0N3ELTH4fyLQb46/t18HxC8rL2TaXuCh1BWhcKEbi2V5uUTpuI5cjHw1FNuOZo+ylEYGIOZRVJrM6ItFysnaAvWmPslQrxTuoWqdzKVrF6Rqzr0MKH1aD9wlF7Mr8Ifkm0YgAgjVYu0Wwiq3KfSlIfG5X4k6+I6zFxFSvZMBSZ6xAQ1GIkjo6maKdwNZORXmCuMUb6lw0Er1biJODUGxMqXQLqUu0TgIkyy45HEo125ZYmPxAst4lOpFY/H9IhOHUp9ZlidkOYWY6WS7QBDKuCWq1CeC9XDOLGsS82fLGkXtmto0YqNG3KF3k4WAsWXzuUhGOyecx0z3Wc9uj4Pc9oE3LLRGAsXaSvri4GeHdQ2zfAyvIF4CHNlTLEU7hYVYm0nvcvy0SnBjdnwlMB0CKqWcQphe5eAlAFvxDp0fB8AcKs4KyjwjiJrXSZxRyTfJMw8QG5H9xiuPS4mXPIuPjqBiHMOVr38BFLJsOJSOfE2WvEvAMdTfhhaHWmJ/C+vhGusRtUX3oji38MEwNCc1H/fpf0IggsXlrKAStiKibozlkLnb4mF2wqkYoA4Y7FOinQ3EY/hnipTOYr9fERxXrTAjU5WXNmOIuGB4omJh9Rz/6QZrg5hxmNr0dQmIPE8Uqai9RaMukzuOFhiocHOEe3TM4oZhTMglo4PMNOEeUIY0qoWVMbZBlkY0nmYtigDBUXqMGYlYY+E/hBiaQlravhN5UUncEUmRfWO+mpxEY1G2Ky4DNrliLsgVBBGxEVAnKKbmM6xUCJjEIKzz8VCoo3k9SxDPcF0gcy6o2u4Ai8Vs5jqUxxFzp3AcqmSS02zkky9RW4YzSQPzcaG8wK2YtV+DKHnNRfEDgJOcRsKr5jNSnMQS6XLH2SjMLBJR0mMA5lRjEV7Lz1EYzuaULHX3LPQtPLB4gb+UM8uVAiZixhs4uXFCAN7jWzhhhuk3sVmVS7iOJiWhZJl0R4ZG7lEXhUvpRc3uIx5Iem5Q4tZ1G2XLU8S/DDlhERPaSsyYRYlji7M1Wf7jQc4DKbhKgMbDJVeYUFD9sxkQNUCm2OIWEECA24izcO2Jw17Jg5LyIsqiy4Gn4prWZIJYtqDajMgloCQzpGJ1KkMEz3MCtMZcVLE8xWTMqEpCWmYJvrEGUqGdETErqaw1bQ4ywRBzSyTVj+BKyrl6QbXKXX7mNVOIb2uvgfE9kAhTiWmXEtE8fGtG4bL3FJzLQkLDLPccxdgzN6XiVQGSY8oleY4grJQq4iolFwUb4iK2ilmZIBxEz3zGvKbbGUwWZwBAsQRMWuybIS+DDiWUxW5RNgmkQsr7h+Y5olWxe5r7uXuH0CMMVNWSoHUMi8V0rZjobmoiysVbzM2czOC4ilVbTeczPIAGUuczJLyo2iWamVniAqVbcMSV7r4NZcq4UzMVmO3j5YROxRDUT+mShn2ykFxW+4yxI+VxCS+KcfEeJFiSp3JgPEMiUiLjohkLXEyRILLG3Q2O44G9HxBROoIormw6lkageYUGeiXchs3KLbcs1UE2zisEiszolOYuJssRunuapxOVj8bFqP6bMrYHHYjHwgLuzFQsUMpmyw1iXdywOIYqN0MpuPCzCVKYm2jaYE3mxQVxAzThysZCCW7jJMe4dsz4+EX45opua9zdkcQiZITGoWoq5gUw18pNsQwzxQZ5ggk8EN/XqGhp4lFniZTPMHGZZSXTwQFxuWjmS4NIyxFKLLqOY6PcA4GGMRMQ4ZtylcVrUV0wscylRY5hwuFbqpoXcdBNpOminM6KkWBYRYy687dEeIpiwR6rQLhXzCxzfMeOQoEofFH9tTMiFtFWrLQaQk5WWujMPaFbZltZSr4GCsD3DSWYzi+FZRqswzEDA+MrLz8ZUqKc/Ga3G7FFleYy5+ZTl8QnISjm5l3PeE6imUSDt3c6WyGkMhFfGy2BLflFljFPC2TXEJjzMRvLrSGajWtzI+4A3uN2IU1qYFYmUI1MNCaxDb4mEEzaWLnexKNpuXawl0ZPxhc4FLYha1jsGYbF9awhFUXuADxGcdxdpVFEIXy+EnzNa0aRxF4RrgmOVNxCgsENxvKXK+ZpRxuVYhEKcyvDcFZfUzW/xPH8wm61Dx+NzfGXXxA8Q1olri4c3T1MY3B5TzwrzAwZwzIyQZuWG5sQahNrgG4BTFell6x7BmV3KtSrkYTYlSCZILzHhhAfgbQQyJqLqzChntMJ+SIX0JWoK8st4TAgRklPj5EUirMpxKj45uqLHiCDLrLmW0pr4lJtpx0olHMZv38aeWbnXFHJAOMaYqtIQuz3FXPxt1E6l0dHrEJYQ27i9LOoRjmNfEvMsOJXxB6heoqYr0LJ0z4FtZhdzzTB8RvN+RlSDBhXFw2bjG2F+Yt9/Fi3LYLymKyM5lYs0YJ8sGQGvgr0pmVZgbZWljEtcbu4SSl7l7cDzGa+DCErZooguI4rDGOtHTcpcslNSsZbdxEviBEMNzJ3KTcSt/EVDbTwTxfHPDPrwFoTuepni+PxfEUpS5Yo5f5XtmfuI6IUXiXjJRAJDMWaJeQhx8Rxf4iqyKzkm0anVGDcs5hc3Bd/C74Lh4bdRbUTvp2KW5gkB3EFXGcD4R5blRCG4o3ORl8Vg43Ms4WWMQxy3LUX3MFXEe4QN3Hy+AUu8zMLGGoTMpe51OKQc0z2nvN9wiBVQUIxEeYvcFOBc2M8E8MBxDgxJLdM8mcvEwkZbH+feFFcfSVaACimoY8e/gQyJWYogDJARBlQvJDLTU2YiHE8Edx8WQyJZ5SUY+LWGGXx84LzDzhCGcV8GvKPjF4RGJA3CL6hHniDmW8z2lFcwbi8453KHcpW/iimb3OcwuUJjluKfHX/gGA5gjcQi9bi3MMVLO/hd8QgdxPDB6h9yiVImmKJh3G1bEWabKeP5kPiOBmlZmjlEaNSoYIUEAlQl/FkTIxHcTxSmU8QXj4tcRuLNoKSrlOYlzcrGYrmJ+GDfwFxgdS7iJNEN4hOIDiIx+BVxiiciIQi/cv38A/B+/mEYu5ZKI+XwUcxXMU8y8z4iOIviJ4j9TwQTiC4IBAkA4nkjaIxJtmn+KGynhnj+Ak+AEIECEBGZTUexortKlfFSohAEGZRxDeIXXxvhHxiOPhT+Cb0k5K5iAzyy+L/DWAxDLg4gk4CN4nXl/EVxDeJZxFdRh1o9EeuPT8T8Aw8UZ0x/wAReIST8J9QvEB4ITB9fERZATPmLGbnL8Fok5jO+CTwfCfCFQ+Bh8VA+VaJCCXL/AMicP8nPwwlOJmYTpIQXEbe4nGfkmJ7gw+D5EYQiHUo6hOpR1EOiA6iOiI6JR0TwE8BPARs0R6EOggOiHQQ6CUdQEIfD/ire/muJ7ibZtCdQnUIQh/gf4BCE2+G8bA+P/8QAKxEAAwACAgICAgIBBAMBAAAAAQIDAAQREhMhBSIQMRQjMhUgM0EkNEIw/9oACAECAQEFAXbqFP1vUFyxzXf3xh/LNxjPyBnHuuTOSbNpv64p3pef06HvFPqB7xjlj71U9DNg/Sq+3n6Rec8eGRyX1Pl4RaHlag5yD+B+GPtqKcVQGI4wfq7/AGahE2bAfQbgxfsh/DnjBh/fPrth94Mlmz7GpPjCOR4fsBwMY47Yfs8hwuV/d/Tt+kH5Iwe8UfhXxfeDP1lbdV/kUd0fuFcvXjG5Z3HqgIIb2TmnT8sezN6BbO3r8D9yGN7Mxwv559vlWyft5/rKf5bP7Z8UgZ3Gdxgdcn7z9YWztiVblW5yrdUi/wDIRF6tM8GHpvIuBVXKKONlc/RLZrt1KNyrHgDKYf3g/Cr7T0qjkj/Z/wBv+rHI/uZ/D/5bP6C84fWc4MYZrn05x2xD68yrmvVapvvxq6FBNuQ1wufpTxnnZjPZyoDB0zpg9ZrNyre2PoMfTHFxRirg9YT6XF/2f/Tn1U8mWKcGUYLlW7tzjtxiv2KthyB4NTnblqP1VeWzXLSp8hXmTj0D42i/I4DSRkdUbhV95rt2V1zrhXNc8YmUOO2cc4qYBi42R+2Nxxq7b/zuwzkYTnPurcKfZnnYYreth8ds7+upbGThprnXFPVj/Y1G42KDJLgTldliWr6Tb/x1y2LwrV1HRicROFlTpZ1zrnTB9Sp9OcbEGAYV4BqFPbti08S6+2am6eK/8zvjbFCRsU6Da65azDFJcurLh26h9bd7CrdscM2THGAY4yYw4w9z9Bvey2pcogwD67EKG25J5CqebXhTq03TYy9nm8B3b/5P+c/tLrnGUHBOc43tlYKPLnnowM6vecuib2wFC1aZdhbV1wVwU+wYNjqe9QChfxtN1qj6w7JrFTMUfIxPdo9H4GMuc8ANyDjP0TXoIr8Pv23EqgFO68MynDvG254fEuzIeSLtDAnOa56Z5ecUdsiP6yM4zZ9ZzyB7Zk6r5sWw8ev9gkUU3soXcixPibjXp11/KxUyYTkXlRiOJE0O4GD6q9EJxRgCpnI5+tBUdS9QuTqtmmDjsBmztwV9/ZWx+Lj/ABs3WLrp6+yi0naFfEulPU2P7rQfl1HYL6VPRTJr7mPqRjsEGzbuNfaLkdVGzsocOqOJQ4WSeNKNmyCyT2VeUwrr04xdZPDWQ6UI5V+9FkJmvBqqjgrkjmxc86+w3CtyvyW2NSVPlYBvB4QOVWnWWbm01dn4jS9rJfCElJPIODPzts6EKiuqkqFxtAhuVX0qYyYg+0/1WqRH+oefd2tgoV12mnHnEtJRjcg6yci5PM2Zs9HNuBU6W40bNww2rGMG+RBNN0c/DTeu1VvvRecSrLhOeQTFD3AiJCT/ANPyezsbOGRzQ3L7qzq8D8wj00dH4i9KW0+WlcSXt5VWfdkRUDVm+VhEH76+RDMi/pVyi4i+5/r5N+SOZH02On0BnrIjdiZksqlEnNTmxMBZxbjY1RRdnXIbR3CBuq2zrfHfDDxt8YIX+Ol42oPusS2PFhRU7N1HmUCNq61JDV2qarfJc3H8VaNo6o1wF5wq9MGuimgMEjr85raVZppGjpsLs7rdP4p29iiqP470kq8cYBjjFGGqyT5D6R2tfiemlKZdfFlAdjNfkAIuHjFAAYAkD1Zfe1rrXKax5+K1uInquFZ1okOjVny6qAtUDKlZmqxIyevGZ2iDQS8hGu4HinTYWQ7+CYw1jqurxc7NxemsuSehsx8a/wAwsg/pzsfBsPHZyE66x4/DDAMpXvXa3Dc9JbUZiOvGgDx6qUyVgwrszk8nDzY++wyp5wz7YICh16CeVbhIbZXdp8nrodbYW4L9SGDAdIZNvTXPBVqPraaSzcBqPB2lOLpfPm/itjevT435KJlp/MKPhzs/xJKe1nK0FyuJvVdmf+NPX7LE2nYoFKcYRlmPRVabbCQIiayEAcM+U9rOO2jUDBcEvLkF8cnYnDzwWIHZyIdZFqqdnymsvC1qn4/ldEfx2qysKbCa4WGpw1BnWhoP6hIvnHNJz4DMRinkVHZdpbLi2cS0H5HHUbR5FuxyP/jDT2a03WotCVFcjfxTyjY6jx24ssNeYykAqzHEwfR95s6oV5E8a9R5q7AQLvs1NdqWHXkWWvQax6nXto7GiqtIakw9lxUDD5OlYR1l8iDzAr++VVXu1L/Uqtla/cuacOkK0mEfy5tyPczbheiEVFEvUPlbQ1JPK24y6S1X+dsQM9lbOq/Vj1Fmace+4E0mJUcg92YDlJzB6RgeIaZmNiKLJNVnDU6NBYlYgAcenPDH9bEl2ckDrr5OVDhgzMub214t2Fe4hZkwXUZVyQTNM81Ok0EJmjjNUnjgycHrkvYIyswpbhF2tkTaUI7zFdddW39hvqeTX1RSZQ8ox7PvODlFauvp7Zkwp1SJ7JWQCL7EVCjn3Ze6TmZQMhRdQzVUIV60dE4czdgJ1Yq/+YmeAUcrenjn/FNfk01Irngc4VBoxLO9ppOFX1cFB1m4Vld1cPO6NE8R9TTaStKKGOxRdqs9Q7Qrpxlqf52gCpQf0deETlVVeoYNTbKr02/jNfYlPclS8x4878zAKGLczA918hb+LwBbo+6L2z4m9bt+wrhn2y8aQet2g4wDu/6X5YhZkClJ67uG9UrPlNTfM9sxXCQESvjwD6yTlXmdddfaFUm/J6rm+zdYzBxYzhHYhQS1PrV1VmNgwKAZrg0Wn+LMs8l8mtNi3Jl83oAV1fk4uVqvlC5FeszTJjAwY0h1LRDLDWWA7Oog/wDZuF6XGqizMh203bzcZ8hIPOlVlYfTX1r/AMivyWwsNHTYfzy0LrxN12IcBOy5qMGc1NquKaN47v2G1IjZqzuzhJ3u9Muj+WR4PpzeHXEJGtD1N7h6VJ8okIvqU8uttoHhvaAk2ivW8LwVdfc174aq2wvrJeywZwvoJSgbys997bGgNeUaF/8Aj2+URWMsNuyVqfBsJ3hqgnV0lpPa+T2dvZr8Tom95TR6T+oo58jayXDSpLNdvGLJ/IeuvIKWRSCDmwC2bKHww4OdOtNYd2216rMFoL6WGmi12Um+JAPL4vaCZs1VRVJ70tjRqii1kGoheuvrbybrBepqi4vIzjnNiNJvrdq12NaW0W/k6G5rbK7Ur9HEkXlJkDotIURSnkWWuJk/K/I6qM5eUo67NJ5lvPsMgHnOurqtUEaJKH0yzNYVk5xTxjey6ArKRW+zPodZyopRqnW5Lda5BELbMAM/53ipR7cFNf6qZ9zbVk8zSeuiX8rpcMbw7FGKAnkbH2lpUSF19jYilK9KfHUtsSE5lDW4MwBxGjIMLdZptu3y5ZgISugkv2o7rsB/IwQs0OZjaHZBsilITAFGUFzit2xRznT7bCllm32h7bSiOcNHYUblZoFo7x11096VXmsu1y/MabJPU0Pi8Oa1V2cLmdKcBZ1MsfhhsTK30tqngFVs9dydpjXbb0FXcnadX2NeWwhntbco5b/1dJHFP7nZe6r7BkQ56/2TbjYdO07Fiso9W7Mqt/Yp13A9ritz+COQZePNdGGTQTTHcuv+KyZe7azbBWVZh4s1efCP+UIeRIN2b+hl251rviqIz+TE2E14GyWjraf9L6D8fM1GjqfD78pakj/5H3XNjsrW1x226UMtWYZevGMPtVz00oUxUbyLwpRyVp7PGdcCHAp4K4ZzB5wYV5GkvOc5zigJgZhkoKHSfK0/xUAzrPuzfyYslb9darTl8gvLwREnWnkT/V/jNeGzXZ2IfCaNV1v1LuXz50a99SOo+qdLQ/paSFP4o0zOsNuLP1vrf1sG6qzE4vvIgpVvsBM4U6IgLP0UZ2QYbYbNhcn8FsQ+uBmu307Z2z3jUbiKnxr/AIpwcRm58gnQsKZSspz7eaWzv6w19n51Os573yFW+C/i6/xUhb5P5K1UeWx5NTVfYi5jMS+P09ecKW4I3NZztz2K1ldLbNNQLNk9hGOeF+JwIPRBnaa4dhctscprWLI1wMOxnk5zs2cn8AYmDJNwe+d8ZizeILkNqivXeEXkMeSqNjTDIlGKfxQ+fM0fpH4Te2Vh8TCtF6I/8XZsmnaGv8mKHZyi9s1BerTerxe4gSBstPXXvJQNkzmzlQcWidf5Axttjh2DjbJzznPJ7vVhOfIRnXC2RXHjnizoM6Yo9gex+w2c5OLI0YyZW14vnyGr1zQN9ZPL5C9QMM3gdSobXAQ7OzR7rCSljHXLbe0mjrfHza/yQ1ZZfXmUcNF0oQE7B5D6EetXn+ScDAYkyDsa1J5s6zzpWbzUazsqaXo63DbOu2GA6U1TwseMihGdSQVzphXP0f8Asfv9EHKeFJ184f3x2Bah/rS3TYJnXLMwpDWMo9xrzayBUdgupJVT5XU/l6fwA1PBr+s4Vs35+uUJEwZ6nBV7zD6b97uSJLM96FJLJ1qtV7nZl/XKf9fT6lPZmDbgcOnKrIAhcBJHHGesOcYR9sb9g5ra/bZmwddmw15zsjnXOsrbao51IkZsnzEatkQagjP+EVKzLvsOUWJPi+K02h8l/wBQZSvym6O8tw7FX2LQbT3Eqq+NV03HfbqEXYo84n5HTSczGIFO7WUeOlv6417oR7Ue+pOMvGBcIz3xxnAwjB+2/wAuMYfhGKjX2B1d/IZj20JkTTqhjaw+P+9OcJAG4nOFkVnoq5HcmYzKg/JUpvPqarsP9PhXZ0vitbRPyoR5MhksPE0uvGHlztf8mlzsT1+Lp1Y5WtPBHgz7+N5bArZR6++H8HjAuADOuEfg/wCWP+Gl0nNfDqyQlZ97L5BOhuSaI72h1Vseg42a8Z38Vhtqx/1jcWelsC2nWfSkmYZ162ezLlFNldFgdIqjwdOYNlV7ZtQXVsjzk2nZKtRVZSOtPbvrp4qzBWXo4SM45zjPWAfg/jj3xlP1hv3ws3NbHxQa817T8JuWZfkZs+pWds/6cIVXllDKB8tJ7W/jnPifIZpDzINZkbqeHQFiZUyq8zVwAStBB+rtQDLp5lhd4ZS6a7z+Rh2cqRe6acB8tcYmzaqSvTu1EVYbK2I9fj3nOE/7H/XGT1wKoBzKKvl9notLXAGyJ6sJSLqn8WMNtaKaKZqvVPS5482tZe3x0PGr/LwRpbyUVq8TpdmMUQZSa0QC2tZB4mr9aaaGtr1kKbsetPAr5/GK4oorS+N2tnB8GIKknXBJlXa2eM85Q6lWK8Z+s5/BwYcbPWQ+z3bo2nUdaTbyOF8EwPAafxq/zauzDw0Wa40jWLKVZkVZhBiaamSJCS+XjKHpGckmtBFDJ/Iu5BXVpf107MuogEdyH93UlKQMSJs2a2nOAYg22qARl7WgVV3n/qj38KbJdNXYFF4/P7z9Z7w/v3k36GiEN1XqNlXfbLHArgUQdpf5LtTqk70g8QArTDZVeD4+ByVLa0yf4fBovZvaq0hwAFxkITZLBIVd66fue4Oclsk4sy+Snm5QjJ/QMHJTa6NGldh98T8UOFZF8ddblWjTk4x4xR6w+h+GHD1B5Wv9iyL07MmXmPFQoba/Afxcu6Lt6/x3bwZQqznqc4xgOOvvlvNQkBXo5rzlOejBis9XrSCdJ24LTjNTJM9ANTzb9LcFtsM0bpR035x2N64esvZC8hj1YUZH1ri8ieSPRx/1+LpnPZPH1Okg6lQWZwwEQ2Kg6J1MvjuxwWSM9nYvfEc8rtBil3OazmkV+x6e69ufIFylFONb1V1Q6+yLYH6oehp5J8m8prs/Jp1gPGm3R8jrl8jreJ/DN3eZNJKynueG5wJykRTXuDyefw/7/Fl5RR1Pi4xj4Sv2wT7t0ZQEdGnQky/pQnY2tuXTrvfFSuU+HsKVi8sgOuvp7JptjKU6kcu21yhlr8o+iWOnrtKlLr47u5amw1ZMtWnqfYtTk+LtNf6cK/W8vuiGdGRHkJtgX2DwGpmvUluc/WH888igxH5yyAUlxicrjkAHhl1F4fbcRTUux2h1iG2sn98poB6deqa2uIuG5xV+3XNk/cMFTupHKnNxhltgVXXlJG2GUZrIio4RUptgq4Hi107I0iruFac+RgmvRvTAZ1xE4I9YTn/f4R8I5wjqzzDZUempyr8+KYPP6f5yh7/HKq2vsdrbB8lteyTn5xwLzZX9z1mblTyzUVA+wmxsNncg0qQltjxppQFhYmOH+zNnupYt/H6e1csuoOZ2T2Bww9MGbrWRCyl6Cc5x+R+TypRuconOfrKJjT6YqlkP1r15PyZ77MgyDV/cpc7FNni2vYvPdSsZ/F7hfWBXCzLm0u1sZrRnBNnZ4ws9GB65uxDjUcRnbXoTEBY3fyMnLKB9uRzpyAhtDhQcf2Zn2/LzkQIL6/JOD82XuqtgPYOOMGUkcmSp47PM+tj/AN3xjnp1MBxlpffyrrzOzXdoxEMjtHkEFa7U1c7H19uRdJ5sPzKle8Jr3corTAPeuuqjoWp4urTn9tN/pde2UXpip2ycyCi/XgL+T6A95x+Zvjr1KtxnPbGHGBstP6k9BCgI3F/ulw+O+Kv1uSxUHrDiYu/auqvcNcRktO5p2D1p0RIjJpyjkeOTePFt/Qh+1qdlHo68vIW+tdU8NeoXKEsZr6RPtThB7OAYo4xjiD88fhSGBBQqc7c4U5PJXOiMrwZMLZPns6Yisxpq9A8u5XlWZO+Tv/GFreeMT0Lk1Kr6/WIx68eiPX/xzi84q8trp1TYHFJV9M/OTl2wSzt1xzzhPGT947fiafXFGEZROpB4z1QcFDiY3BwrxiMOK6quEj0yifXVXKKChXAhWiz4zYme0Aqusxyy8AHhVXkj/LryOo7OmdOcGRT7jNgcvOWJLnAoQM+NTAcALt6QE85Ne5P1X/tBhX3ePOOCpV+MBWo4aZDYf3znXFcrgZHxp8gArhf04INZk5L0Dw1G1yDBcaXIdcmPqRwVPXAPtT9xkefFxiJw5b0JcsEAHpcZ8Z/wATiqJq7Zz7hwuO2IOSB+COcvHGQqVYjFcOHUrnb3nOc5x7WhGBlOdBy8ucMfXhwa/BaXIEipX9PMkpLgPLDL6JLH1yzrIBfH6E+M64XUY1ML4TycCk4qCYd85xBgPGdslx/sdecrMHGTjAeMWmPINh7IQwP454wPnYYrHBTBQZ9ThVTnj9eIYZYsvfQZ488foTwTGdc5Aw0xqYXwnP3+FQtgCyD05wn8LnOc5F/Y/wBlFx05xl4z9Yr8Zyr48M5IwHnOM5IwPgpnYYGztgc55M8meTO+BhncZ3GeUYbYaYXzn8jFnhoFDOThOc/gZznOIfaHlfy36bHxv3g/aZXB+/8AYMH4H/4n8HB+Z5TDh/3rkf8ADP/EADwRAAEDAwIEBAUCBAUDBQAAAAEAAhEDITESQRAiUWETIDJxBDBCgZFSsSNAYqEUcsHh8DOy0QUkgpLx/9oACAECAQY/AVKtwg+aI84Q88nhHVR5LcIWfPEpzfxw38w+W0In5TUPmuKkGyDtwo6ngf5EfKHtwjyz5nHsnJw6HgXLKyEPKD8gcB8scJ+RfhYp/tCc07hVD3QKn+pA9USoOECMfNb8wFduB+TOxQb1I4Nn6mgrFlU9kEb8Cz5vtwdSec4USs+TPzAFCHApgKKoAD6UAr4Niv4fpUIJqnifNKzwJKdqVOuPpKtwgrCnhIK09FBypVvkOPdB2mO03Q4NhhvhMBHqVAjMK+yIaVp1kwFPFnt5grlWUDCF7ILSCpBUjcJxWVYpvugr8JCJBuoKghOt5iVV+IdBNNpcAf1bKu+rUlxfgbW2U9bogG+PygAcbjaEykWxBLf1flBpcJ6KRunaBd2FJyc8DwHFnAImF90f2TVMLog/ZBOb0RgGVO6bqcYU9kAgwDKjySFfKKugwH3UcG0qlYU9QyQqfw1Bxgesg2cVRbvv901jf0nUeiH8d+jotVJ5Mm4KFWmGF7nXdV/7Qmg2nY9Spmbpo/SPI3jJQtELSReboFeFN3KZ4AlC6dB2UH1DIVkU2yjhTpznhJ4+yPQK/Cm7Tq1vAPYblVOT2MzZaiQLEW3BEKjUk+G5uk9j1XO4RqgHYlfEEgapLT2GLKlWPW0/umQwSPqhGeaVPpGGtTjqFkyXENY4amjdN1VSZ5na9/vsgG/ThXz5BwBecp7J5WzC0jfZGpJ1AymuueVBzvUoV0GtTtQiE5SLLQ/BQcCqZlEawFy85Qqv6I8NJ4PbuACfug0ZKAqPax0em5P9kajTLQYJ6HvKcfCLadtOoX4Au20sgC1v/KY2A6m53MCOq+KYxupwgstn27r4k16RHhNLnA5J6L+DDaYgOM4J6KlRFQaw21kTLtX9kLGxuv3KLGVGk/VBwn0KtWrpqvBBI+r/ADJ7WnSNOpv2TC43jzP6Mb+6Y8H1FA5JUdVSYTlGOOoqyuiN0QRBXhVM/utFP9SmqwGcqo2LA29lPXCPBqCrf+3JZUgVHdOhTA0gufU0U4/7o6BVHGoXPDjpd7osdJa/Mqgx4GuTcbjZBgz/AOFDU7YhNaDfLTuFUJM68zhV6QpammNI7Y/si7c3UOrT+kdAnuqNaHa3NtvByvDpOFOiMuP1LT8OWucGy6nYF20pzfAdUb4cmBI/4E+pOiY9WP8AZHT2P58t87BSbue4Ssem6ENJhNe87Sm1XtgYaEwlAqPIFi/VRgrnvdQsAqUD1QRWjxG+rY31A4RArOLS6boFrL7HcJw9kOxVJtelLHG3UJukMYAItZBoOVIEJniP9U6RutQInvlBtPF+b2RfmP3VznZVyeUTYj2QYzUwGzDuQN0+o97pkNa4Z0pjteps82j/AHRYaTgXjkeBv3hU2SXNIi+3lcBJ/wBlAa7ldupBy1CnSA1KH3MqkY2TOgKPYpmp4Eqe6CyhHB9sFNYnFOB9JWnXdR0V0VWbOk+K9w9iVJBAVTS3BhYytb7umfZBmoi8mOybpEXsqZL7RieFN7NJY1kQbLka4f5Xqwq//cH/AFVYVi7UHW1ey1FOuYwRtCc6tc055h+ygtL6bn6XTcw5aaQN2m+YctTqQZUd6mgyJQeHAeGTeeiaevF+nYJ1V0wYACrVWjn0kJwbsmnfSsLteyFMmLowclPLzqIsEAsrKusQngnN1Z2LpxRcPsheFeVZN5rkj2QqaWH+qZuhP2CnYlD9ZTw7Yp3+VDVTwTG61WIGECiJiVAeZQ/gjV2RB3UlHlhRcjUTHda7BrRPdyZVbAEQ9qpuY7m/A+6fpaA8Eh/3TWuE2tw0jJUIMbsZRsnQMqR7KE46vdam+nMIXRaenCNJRthEEIhmeqOsy5O1PLmvwShKLgFAQWqlVbTGrRqLZv2Re/U527j3TW03ETd3smGSb7qd0zT6WOBPeFIwVy4FkQDhPhyDRcD+6uIhUiGkzZToQHSF6rjZO2RqVBLsNb3TPiQ8c8iOkdFq8TTW7Wkogta8em+x6qk9oIn1e6ClVasS6LDutTyAIbbuT1VSpOXFS0T1RWn7q+YVS+SjquiAMXC8QGFpe1AwLpwHCE7sE3qE0KQu6Mbqmxg1+Aw6+2oo7ST+60n2vwY2YJUDAEkoU6LtTn7BBhdL8k+65bFwsnseZM3KaJtcKQbHC1G/Aie6JsO60tkuAB+4VStUqEtad8Wyvh/DLg1z7OGyZVpmzMpr3jnIElMBHJhNXYKjTn6g78KHGPEdHtIhO+Gqt06CnAJoRPRBHi3num6vULJ4NkB1R0jZUycqUXDEoeycFLW5QH17L4p7zpLnBwMWjSr/AKTB7qYjSnapbA/unaYNoRb9QHp6KHjRqaIMI80ndaidwg+ZOsyOFjN+D6ekghCdk2mG8jeaU92Jm6bRFXTOT13TKdGPDDI/KLNZAm4Wl59Sa3+qFAdwfUaydLQB+VeJIutJHORZ28p3w86XMte0lZwo6pyplEpoYJGq/smy8wMhatEg7J/xDHmn4eG/qT3VSLQAODh0RcTyZVQvbAkQnA7IdFZUKkcwesEHw2mVmw3TmdgUXbBQ4EiuY0z6T1R5Y1deqHw9dm1/daTfYFNI+orHsjUbM7t9kHNMhO91MLS05yqsdgi0GJVOH6tDnG/7pjpQe3KptNtkyJMIkt34NIdecBPcaXPrDST+kFOLRLgJCZ8VSEOc4EnuEKVU6KpP2lMp6hqcLK6AjCjg4dF2UaU7TkqHWRCYwus4zCBaIMJ94ESi04iysmN/qWomGus32CkdJKquPX+yr3g6bL4aoceM38AqLdQuYXmJR36FFhwmt3B/sqrNmH91AENeJhAgX3Cz9lZNGOZXdAhay4lhECNl7FMTYVMzeUO6BDsOA0p7G8rf9VAaxzS6wBvj9lSd/TB+yqA42UFl8ggoVHPcKzRDZ7J9T4itGFFN35T6TfU3KHsnnuiO60xco06Ytm6p0v6UGBhNSpZoWpwl4aPwoCd7JsZVrKqdwqUbBUA68sEr4ylksGofdGnUZoHRTp5GZK1UzZqgY1un3QJwALdVqpu0ncKp1CqxmQqcmQ1ekWQaMogZVMAcoB/PDQcFPAwE0lNX/wAkE+vVrcz8bR2T3U2Q67fELslUSxkPNmybkLwnnOE33lYh2yJLQQNwtNQeIyMbof4ZzxU6Rb7oV6lPLdLuaZ7q6DUQTwqi8O36qi2QBPNHZAVGei7XdCnZc4X92rXjtuEWHMKmD7KtdPa4WcIKYI+kJsuHpsviHNsfAb+6ouHM4gSOy0saAdC5TZ2Qm/pccKN9lRdOTBCdvy2TahuDchc2UWtTO2UAAgoXYIuG+U1NlBnUr6U+q4uu46JEhoOE15ZE/hB0Q4M02shy4wj0QCEhGWtmRcjZNawADYBEA3CLXZGUHtONkHG4UhR0wnMeOYmQekrKpumC1hH5XitdqBdzDrKFbZ8D2lBk4ujpceY4X5TQnl7S7QMDKqsZ9TAJ7L4kBsu9DFU8V8kwEFTc02wVpdugJkBxWknAUDBCqM1uDmlNKlF4QKkqeAAX2Tqp9hw5aUCS6doU/qMlpNoWmWm3/Anuqbjl6rw6lMs1YJx91ykIEaTGOiqu+KIj6GjAARc8S1x/C1U5Ij7omA2Izuo+kiydOCiHHkG6DgbFGs45mO6pSZtdCx5ZM9l8adMMoMOlx3cn1mVLagS0fqCdXDpLs+y+He/JdEeyqDa90xnhBwkAHoq/Nctz7p1a0PAb+ITyLc0z3QDjJLpKsj2KHdR2UjICLcFPMXJTRqsoKsZWIQEocHEJvdBo4Nc2o7SReCoBBn7rQ+8NlanmSHWGycZF4x0Tm6Zbn7IU/T/Smt2lENGEbEJzjOp9x0AC06ZEX90BTfg6hN5HRU2yZARNVw0t6qn8U0SCyAJ3cmHXpkWEKz7dQjQDP+tbUnsc0kgyB1Bz+FBb/DdYeyLWN/6RJJTKcXeMDsqFV5sGW91TpU2y8kW9k1u45vyiB1V0YBnZG5JyVcYWE4cRwwrwpDoVjwKDjtxBc4EOdgHJW5lOeTLtvsECQphT1GU2H8zDgZT3PpkgtEAm/wBgg2lDXF0l2c+6d/iKpM1OVzhGdk2ScJnIbbDJUyQBubBvuSpa91WpE6ACL9ynazzVn+IWD9O32TBVI0GoHAHogdMQiJb3hO/js8Sm4EN36KjUt4dTl65TDUL5b9OFUZpAFQEO7ym1/wDqzykbhBrLkZG4ReL5VV0ZKHfK9uGrsi7uphau11V6NICzwx5Rwjpxc8OHLy6Rj7Kk8HsQp9+NRouHTHv0XQvGe7VGbSVrY4csi+ZVF9d4s7UXOOFrNdpdE/8A51Rb8NQy2C5+f3X11XE5JsF4r6gfUidP0/7qr4vMBSx+E1tIxpatT3QbDSeqfTknSHAT3uqupgPKZ7proLrzDrgQVlEeO2RkYT6tN5DQ7luqdHS6l8URI04xMoEGXD1d1bbgLK9gs8IsnCchFxsXPJWVbhj5IdFVzJtobumyQLWvckbQm+JUkPFmAYTQ70utbZcuDdAsGnqqrSCAWuipsC7qgxrjrFicSgT2BKpMp8rZM9bLxSNLD9Tzc/ZaB6KZ56hy7sEGUgKdNhOmL3VQlxe4jJO3YJ1KBLKTvEd36D2VSoW/UQBHReGDA0z90TUfytadv7o1WtDTNgMlqcNBJNzHVBziTAu3aUdYj/QpjGidyT0GPymVCwa2iA7eCnBElglp0ujYrlACysrKuVYowJmB+UAdhxnhdY89FzaummA6aQuHHZ39kKjqbS49RhS6kyesImk0XYQ0dCpqXYSAB7ojCc0SLXj8IjVl2f8AVGT9RVN2kGxtCc2m7knmed+wQots0CXLSAYRIyZiewn/AEXwhvHiAu9hcqNdpmFytuMd05oluq0KDjFuiJLjBzKB/VBQcRdu6q92/wBweFS6eLFubdZ6+ypuaZFR0exKDWXBaLrUboOnKM3RXw7P11mgogKeA8xQ4ilLtL3Sb491SbRDYJ5p6BCcpzAbhQIcWiYOUS4QHAI6Y1GFXfUiGSI7NEx+U0B2oZPvumviS98D/LKjVhHAGZQebl2FWa1o1hst+2ye/wAP+ILOJTnOFiE3sZTanRwB+6sQp6ZRaWmzzCc1nMW52H5Tzp+kD77ok/pTrzFpQLzpAIwvugoTcLHCkf0An7m3mz5DwPCq5w5ZsmoulFxvrsUadNwGnaUC03ButZNlU0UTVZVeG26WEqWi/fC8Qy5+qfbui4unpbA7IYgHCaxoyITJyLL/ANSc0RS1EQepKKc7xA4Sv4tUimHDSxu/cqYgED3Xh1WlpyD1UPLQWmD3COjUW/3VchtzCa3cqm0uPMLuGb7qi2tVa4POgHqnw/Lt0LWO6JkWTNN4sh134Oss+S2Fe3kPkpNBFyXOPZE7bIgiWwqhFmyi6EG6etlWdXPg0AeVm5/zI8ggD1cT4UtcRyu2TacfxBGodSpcJXiaTBN42T3zyuOpaNRbSBs0b+60F5A7JpqCeTTHunFvNJ32TQYmZlNqggx6gNxlB1M6mRIVNzP+BVHdTCaOjSVVpPNg4vaD+Sv8gAvlcrsJ5mCLKnOZX/MJzAMCZ4HhlWXqWPMODzJuf3VMa/pkz+USX9I+ypvBsalx2C5vSsJsumnHM1FojgY6qnF5kplUiZN0W1HBsNJEptMEaGvn3uvh6nVqMjuFS0Nl31SmP2RlqDnWhU3gnQbO6Qns+ircR1T6cp9tygc2wv8AENA06g5zf3TarZ8N37J7RnIHVP8AcKGiwCHcqpBlUwchoBWVCxxx5hwq025EKDJGwVGCQGgFUxHLv7lS8zF04tTpsAEx7N9+B7FElvXR7IN9Tm5CY6JgFGy8KeUEke6Y51jpUhMCaZsMrRKfQdkSqcG7R+yp1WGIuiJUSqjdnNheG8SycdEx9OsCSRHZNZr9QBnucqW1GknoVrdkWA7qmQ4T9QhB4haXZRc6yIwVj8Ky2WVnyDhUcMlB8Xwm7gbIkNmHwB3VRr8HCMC8Qm291RNL6XY90ROE+N7JsmyDgMokibLkbHVT0KLdWOgQINimO6qEHHOU7lkkLw/iGxfkKzyOz7pkGDCe57pEWCDAtQFnb91cK1x0KADXtvtdfxHu5sB2VJMrS2wVU7xZMD8C5RfTdGwKZrdct8mPMbWhNa3Ays+lU3fTJcUSmtJ9RQDb2umSRoJFkx/0vQIeC12EG9CmtiwCaeyxNkebTZOb6iCZIChtIwqTewUi6LnKYi9kwloMOspO6ayYcD6uy7phn6k4OuEIMgoWNyg513dUxzcDKJnKafyi4latyJTt5iybAuAhJ8u6z5PdPtchUqZHYpjKfVMan3uEy2+F4O+AvBfjb/ZTMysKE3qoiQU7TIlXcU0RIhBoVwrJ5JJkolosFBMnX/ZH3T+yLDlU9Wy9sKnTm73LSi2bSqjOjVzCGxYIt7QvZahunj8INLptbjjyxCankYAj7qZ7qlJlMd+kodIumdUSEyoPW1N1cPbgEOqBXaE1CQgolaSd7okDKAhPHdOdpEq/CdqQj7nhynGVWMiUGHcZQA3X3Q4Oe2SE12+6hDy6l7KpG5lVJR/p4VHLxOhhF28Ig4lZFl/DkN6rmqIRWBPuidYsE1xyURwbCFl7cNUoduB1GN12V3BEU7lSckyU6NlYmTlPM2iAhJuE+PZYQCKHdAC7HHzng/2siGuMlT1KqXgSnMj7oMm2qU5oFyimEvhgdcLQFrBIMfZAggAHIWltQ3ymRs1PbsB/fgAsIgD1IT0RcfsnkjdO7J1Qm0KkGG+6JJIhNc4/ZQjO6IFzwaW7hGVIyiVC+6wi2PkEJruyPSJTu5X2WubhMJGQqnfCYxo5Zyp6q5QWtR2VR8XLlZSeFNp90JKmUSrfdMpA73KsEWorX2TWs/KCIK9ghGeBd2QKjg0jbPmHFp6IabQrKQcoN6kJnuqdMe5VMlNYOia0FNBN1KyjpTtSKumsYZ05UlG65UQ8y5T0UajOpMIygNViEBPRBRwngVpTSieyHywFZaeip+6avYQi7dPe7K8Wcogmw4OeyqQmiob9eBhBofpG6EBW6rlKbqKL0W7m6c8qShAwiHIiZTIQPVFAqRwARG6Hn1hDjdFFT0PCT+oKFC9kP6iuW8bJtPTDd0GiyuUHKFldk6Sg4L0+6aP08AzaUDChW4aUQiOJPyu3khSESMcJG6dJvCCmUI2R1KdyVqdiELqCU7u4qm3qgG5Kkq+yLVK90D3QHAngCrcQoHGfPBUcbcI7olqGoXUhBQg5O2hR0RThHspHRYU4jCk5UKOBWUPIT5YHmnzQVB8llBVvJCqK+6I2UAIM7J/vxCHAjg3gOBWPJbgFHAD5EFQfkBRwCunIlRwjohxlQu3AcJPn7/MgqR8zHkMeZoj5V8/Oupar/wA73/kbqWlXHyM/yMlQPkjyH+TH8sEOH//EACoRAAICAgIBBAIDAAMBAQAAAAECAAMEERITIQUQIjEUIyAyQRUwMyRC/9oACAEDAQEFAa05GwfLGpIQ1AzLxuP8VUmV1aY+1Ylw8OPI9ln+E/wEbyZ6fX2ZFJ8JZ8kXc4R6o6fHMX9h0ITFiDct8QzKfzuD6E0ZRX8Ux92rXqFJbVzW+s1uYYi8iABAJryEgGpZ9W/aw+2/5H7npA/bX/VP7VfUJl31nHTM03EMpEuPky5uVgWDxFXim5X4Ff2vkcYVnqNEPtUulHkhfAXyB7WS37/mJqH29K+6IiDauBOazkhlw+PqDfsPmKIikkaRGbkznQP2JqFwREaK0oOxqcJm18ktXi6rtjEiia9jLDH+zB/IQCOPb006ON9NaFiuTNwuRBZ49UXVqiVpGXRqxrbJlUWY9t3/AJkQfUWAmdaKOsSnwQNzUuXYzq+L1jQHkoPKjQM3GaN5B+yP5iARx4npw/ZV8EY/KsgCoBhcoE5anqS8giymvxjY/Y9NAUep4ndTlIUqEHt9H6jLs/1I+0PiWT1NIRpaxK1n1GabjxRCvzWtbFtq4Ti2vdBtjQ04MIUYwro+lVef8YeWuCzHypfl7It3MgdlR/WMSnePhL8gAq32T1jQ9kMM3uct+29so8Vn2snqA2CsRYgjRjOXlaGsnQyw07L4wrjU9jHCrVBjUqDiUl8rGCnGx0Md0QUlXlXpyOmZ6bwbBXrilQMm35NZK7Yz7Ne4vyXJH7MNNYON6rgV3s44Xtueot2l6HFY+JaeQR5jDwFIcRTo8oxmcPiq7nCD6KMx/E8HHSs4vWtOVdyfFpLMVBJXryLX5R6zw06TIf40ltpWbD+MaJjZHFL7FtlrLScjLHSbhYhJikyleTdfGVw19mR67f8Aiem0Y7mj0jINmDlXoqgNv8RUxMmo5IUwjfsa9h01FEsPF1aEzL8qJrwLBzLalaGyZK6a3JZKKls1gZNbRll9e7UpBI0bMmgFc3QakcasCrtN43FSWtwF1r2kbI09Ur1YqY5MFTUi1hqhCRdmUYV3qOc/qOS2IuP6H6YHro9SPpwbGx8f1FLjY+Tcq24uTQUce2vFogmSfmrwt4v8womnZnOPikAPufkcTZbyg8zf6ksam2jMFiWttfzCj0ZSl8r1BFDk33fQwG61b5T/AD1L4DHxhxuxBp00bLWpP52YWXOrymfIt76/VsCvGPO63HwUFb5LjJNuVk2dDFq8v8Gr864nHy3MuxjTV7als3Ms/JCTLF/T+P2D8SvopIpfIy5WwmQ2nqIKsgWMPF1fmtyspydi8AuGIDszTGr+X+02lZTdyn+ZLHIupXUOelrWsjXu3O2enqqDJqF0FavOVdSYuWelccXlK/xbrMo1V23tc/XYkqvsVqr1yUzQBkx3jHcaZjeam8cvlXoRnFdWnyLrkKhW0LG5s9pWY9pY2Wjfhg1Wp5BJllkqTktKiHwe0LMS0E5OQKsbsPXbf3YqW1rMzCXMQ4bcvxbVIcKnKEIi8nIqbnDeqLZ6hjzL1W+JZh+lLkZbeozFoqNhx7qVyFYmM0J8OZlfK3GJvvV/2LalYvyzlTFw1xaM5QSzsIu439kPEFvNVnhPkGq0b28heUHKtMfJ1ZkjiS2ziW9dmVktYGKx7XeU7CYrDjmGuHsrpLfr77DLrQyhn44tLVpe8tSsY6Jyer0zsvbHtc2VgX4z5OJGajIqnKE+HaZIbfp2KKarkemz9l11bBL7bzatp0LKSGqxmsSyspYo8cSSgIldgWF1mRifCsfK7H7Men028zNQtUtZjgo2NSt0vTTiiKwVb8qyYDCtr7//AKLDS2KfvXODEsMOLkpCLNszlak5R6A634IxmCNmy7TWJivVXbvs5TlLLx3ZCpaaGtQ3NRdTa+oLdGvM6zflB5i6sNZpoqy3Rrk4aGt65HwJazPKXFuJZQKLqFSmhs4OVZGl+PVWtWLdmv2eoboxxUMg1lD5NiqArcVuu+XFVjIVavSsnAgt5ygdhuTY4Owi9V2rjmU1V4YrKCh2oXLwuyzlMi/qSqwm+vlW2Te+6cpt2nkzL5VRpqzum5qWsywVWhnY4gVL1SuI4DfDm9izGsCzOs3bZnWtXQY1jIa+V1uK1FSZVNIyPUErRNNBUtdRJ30noFa1pwNb5eLW9lydExLAyAgwLYYauDY1HAOb74LasZu90j4lV9iUGunmxhsChrO+9xSobj+Ix3AoBTTWOR2WXDd2QpYfsJR9153CPkOxu2fYLtT91Ma51i4dXzatkZuLDArOTMchargtr5FT2wJxJ5uaaO57McmU4VL151IaheGZi2/MW/EiUubFX7x8N8pXtsoANxvp51im4pbkvyHHRybfGFVzOTqthkuYU5Oy6spuPM/dx2T9VEowIe3Mxg7fJYrc66a1cjhzqrNlgrBCN1i0butsqD0r2X+mqlFbZeycynYuV0X6FLtbi3Vw1vY7UAY4RGF9V2BeMtXtyDu58Q1112Mgox7MWvIyqsLFqyLLstEKzVTTI12OQ6sqEs3NqiqV2eXr3FuWIOc69Wf2Fo1YTErrFIyRGr5134UrrKoNiOhRMEd0ysI4i2qeLNwTe2xmKvjMZbelMp+Sd3WyX3FlyA06TKc3mtn/AJ326Zs3vyc304Vx00nJtemCoWZNw45OVZl3YVoWxwHh51Qkaqt5S9hU2OpZxWXC4I6KdCwGVXMsNy7e0S2zlYiebWJjKQK7thbZZaGKojnLACeiKipb6ldZd2FRl0L+EGlO941gRbGF2TkY4xUb5PVW1hajJxZi9wmPkC6VXEL6sGrpsxvx0wbVyacjARwcK1WpUVi0WF66FWYpRIry7RiNssAbclt200ioPutEJeZNXXkKvIjaRrQZbfyXluIw0TsWfQYVwuGL11kCsVVVVNlk35GPVUd30hbAg70NPCxl60+oTp8q3uoC+arFxZZn2fhYi8hh0B8ZMt6G/Jx2quT8q5GrxFryrC5dzK6iWuTrWgjstEr2UdyTUx5t4sc7d77SgW0p2lbvU8c2TEoZzdQaXarcZCIqloEIADK4rdg/lNkTFeu0ZXFaKb2oWpsTLwMjHOLZjCxIbGQZFitMglFcHdFRtuodPxsZPFdT2XZdavThdX4fpwflSndc5sx7cbNpbKzbGvswccKpq06qRL7u1lbRZ9149vi1dFQBMk8a+VJiguEvoZMShUmZ902cJk3c2NgAqPOzgzxq+A4MsrtDA+S1ejjsa3uyTam5Te9VStR6jgjtoV7gww+N5z/78C8CDGqroH4/waOaDZltun06sWUUoarWZa7MjVwxt1XU42O9RQIDssychYoUsdTkdY7BXvOwfAz7j7dVQluFXTjV5XwyUsybs/0zIx6rOzVKqQaakr4pUjgWnKofECDmi6ckAx6eB3o9QYtW1SvXbg1jPryI9ZpfAKVn1atgMLDttNtnO+3GIoKVAALyyAOrD/XW0dPgrlH4Ixd+AOTYV5kEXywB4V17D7D85aQJc5secKEhYXoqXLbVjVU0+qAFFsQVALYRpDb5LkS2z8kDHdK8fjYVWtBlNWyuvJvyOs151ZNzNkmvGsva0m2urqVMu0Z+VgXVnEx8Q3X+okUelc9xNQpzDAIHccWbcZBFbUZ+U5Tc2IDNlh1wqRF8TNeanGUZNoltI3R8BfkcHy37KiW7K31MQY7NZjUtZfRzsxBqq5uDDKxqa7WvvevZFp659uFCNj1XzHsVMnKusF/a/PH9VVES0pbjsaqs/KrycXW4DqBtQ2QvskiKeRPhdMZwadcCCeBN+zCcpdstqaiEK+YBfSG6xa5Z7PqxV2UJCIaI6XrcpTEVciqg2dt7CniCB1V8q6sCiu6u7G6b8f05M2ZDVVplOUuRC0bEyARRwRqXQ05tjuG2NgTkIXnJjOLGdJlVWmasKeE4iEfw2I0MsG5qcYpSmf8AIUMMzHW1v+Osrqybq6hVkvz/AC0iXcxbmJYLUsMrpQ23LVW/WNZF+PxQNYBX+NE0xe5vTnzGd8irGfKFtaYiXXALllnwlJSbMr5sOmDHEFMFIE6xOPhSql22w9nMW6dk5znGM3DCPZ373NtqCvMyqJj+qW24/qa4ucXxhjgVMTcVQ0bY2L8FUIzt1qbblV1Z281p+Zcxxr7FtYpeHXkeamZFu3o12eq11p6esK8zbYmsfMrtmPlrbXXerFslQz5nnv2EtVp3nkMjz2yx9zkAec5Gcv46lVbpKDjEaHJx+uhfm1W8f9tRsbnZi31qt3PJtrq4m0qTexd18FjZwI8/JJg26gvWI/KzMDKcH0zJza/WKnrqRQbeYWkM9rOprNblBRb83sPZ2fLs8Bzw2dq2ibPBaeBOW/YewPiCamVkaxnUhqKmsayq1Rk/kuMDs16jYoi+HSxDHyzdYMncLBUpUGXLp7DuosELmxoaX2KmCCI1lwxnzter9pHpuH3kYld1zIyWEWWx04LQW7MaoC3Jp4Wg+CdzkBA24WgM8Tc2YD7D6Bi+xQWR6CSi9csX4122ayLNNbazsVICjwK2MwdsTU+jsK7oSw1XjUJjrl21rO1jUbbL4lGylr02UZvZM1+xQVqHpdnA5I4tVkIwTqMFVaX+Qxq7ktxTTQSN/GA+3mbh3OUB9v8AIntRYvaFV78lh2PclRVXy0/GqSsrV+OVOpwaYNPJrU7aMusKoqXaLuLZyTISpkrH6NBgD1h8YtKrHqtdlurzU+eOetrv2VUsFdraiKnZXDck58EyrGvoYbc7EAn1N+xPsIPdPZaj2DhXFoAlopY1dxsx1QS301kqsrZW2dp2I7fB/kxyKf1iUsFltq12G4OqFIHHAmxJWytXb/bFsO/UP6qrTltLavlRrsF1NkBWWOqztNhWrGmRi18K6bLHy8C3FT7mp49hB7pNwt5yXbdlzlExdWUCjitHLLue1KkYX3XYDB7aHRnI5+Sqt5yVUCn5QYe5ZjaampezgFlruShsBvq5Lj5DY1r3V5CZoNNGOtpHSLVNepqDlD2EAygDrxuBsw6cbGtv6rTl6M3Pua9h7r9SzYAHN2G49qxWYXeTYn7qnwqkqw7Dm0WZDWIrLXfz2qOS1vmd/S2si0jFsaY6B3utaxk7Xhr65jkFsmgc/SbB3+pv+/Fb9ZfTtWL5+O+0qaw21DHqx6ibfFQrsex6xu1qjyGKS19PA7M0YBPqfc8Qew+QbWqOdlluN1JjUbpGq66vnUFLKMe3GudcfPGUNOLGEpbYN3N9K4XLu4jP8Y7caLCGsDnauWnaOS8dV6TK9S33YfgXY6cf/NQ/A4zALe7XMlwRSFtW96qavT1Z7eQDMvnKr1Hr0PMURvYeT7VH4+GXEXjHXc4qELFovNUpYi1axY1dj4GX6u4N2zOwhK/ELRCdlvH61wwNsVVZX9o3zPBp/wDvItL2U+Kw1lkvtUV+SXXowFTwtB09TIrUNZVhKVTfydtTw0tpDS2nqcaEY7EQe9DxJQQa7mIa+7jKda4bnb++thx9Q4Cu5nJGxNmcmE2YfBbarzBVVHDodhVU4lePtqVLi7G6ia+TqlnE12ADFutaj00pMx+x8esE29aV2szoSwWkfqOwSdxT4tfQtZbKj9eyj4+1TaYNKrtAWPYcg/IXGpEvBrqUOwuFAybluLEMxqImOvKW1qIlQI0DblYyrh60KqWdGXguIA8e/g9OYtczsgWSnFfkukWhFqe3MrU5OQ7Lx3E0llimwkiVn41vxUtyJ+qzLvMCS+oKs+z7leJrMHg1EavJMbRGJWXICouWd12P8aa9xENs0BLXi5YCcuT22d1a06jOesuZhVbqatmcVPydTMMOiCs1nJa22dLqbCzNXyLrTp2Ph7NHkpE5ahJMrbRsPta68T5gGh72JN6iNsVWQfaV/KvSLbtKkO0+2Sv4JVwpQFVurYt17PS6nDsCXZwQU8iEWprDRU2Hj8uURfFNY7GAdszJFdNLFjdxKVBTE13PqcgRe2mrbwp8NBNx2hbQPk63P99/7R0iNqK8rYNH8ijyuU3w5alQ3Yn3kA8D5XoHC6kVvjMlpy8TjagdhVWhao4tAybbch8P01+L1046M3I4tvnMp5Stl053EQpGHFgxITxMq3d2OdkeD7vvkx37HwAIfeltFljDRRor6ldoMQ8RkP4cRPFlZ8cw9ettYeK/jm+LSuPEHOGtVmTWy2UYFj104NSTJyhVW4e2UUnsXGNcss/XV8CfDizlPsmOdTJT5Y50d7MJhbyTv3+z/m/dliHkGWEcYpgMqtnDnMisqeB7KR8FTUQDi3zi/BAvaxp60ts4xNXqlvXUt50iG1wFEAVY7x15K3ib3FXU3HfUbyLxtcdYITGfQBLGMYTuARjoTc37eVPhw6zjOWgjAwOQSyWhsfyg4jcRvjVaC19ujWdNsEW1c3qXrZtmVVgKoCh2jWePsb1NncMYyyzyPKukVdQtqNZPuINQeZZ9ge1tny/xjqA+Ebc+55Q7DgrGi7ERvZbtQuDFbyzECokO/wAnYaWqzat4j70nmvnOfj7LfSnwfvx7EyxvH3EPxYxn1GcmAExa4RCdD+xAljcFHyb/ABzFbxTbFO4RueUIIYFIohEDkTw0+SxX88gYo8gwaM/rD8iwXQPjl5eybhiv4Ptz0OyOdhV8l9AvCSxVIF1NwmE8iompeOUrTUc6BOzAdGq2K24RuEFSrAzj4141NanKFRNkQWGC2C2ds7hO2c5uA+TZOcDaJedgCtb8uzzznOeTAu4EmtQmM2oWLFVgEMI3OOpbv+CHUR9RW37FIlhWAhgVgmpqahAhQzRnIwOZ2TsnZGtnMznOydkNh1ynkzRgSBIBN6m4WAhJcqkA9j73L4/hW0VtQH20DNFYtu5oGFde5WFZxhWcROM4zRmjNTzNGaM4GCuCuBZr23DC8CkwLNe5mpqOIw03un2IsH17NK/+k/8AYYfZosEH82l395//xAA6EQABAwMCBAQGAAUDAwUAAAABAAIRAyExEkEQIlFhEyAycQQwQoGRoUBSscHRI2LhFFDwJDNDcvH/2gAIAQMBBj8BUK4WFIHmk/wLB38xHlCjgG+THCeJR4wo/gnHtxHkPknifKPLMcZ6/wAG9BT5DCI8pTkeIj5BCj+Ech5ieIjhDgjwHkiFbyHgT/Dg+QHhPCwRtcYV/IPJPlHyYPCY8oICwscNXCSVCz5Cp4lNjgeN/kDzWCugBlN0rT3QBCwgQuVBQLq6s1YUK6ss+QhQhO68M1bkxMWQINoRXKZ0ZRfkSoPmHyIhDUVKLiEYWoq4X3QCCvxhNsoV1YrUCgQfPSosMOq8v2GU6to5Q/TqRY50mk7T9lUOoSAUXEWN4O8rxAdWq5BsjVYw8ufKPKOEoBWCbdG60ha3GVoOduAd1QKAVm3WkdUCgeLj0W6gq2E0qwWqJNoHdSEVzNL3fyha7+GLUm9AqtKL6NZP+7KrEmPEe0N7xlWpNdVO60FmkhtnBPoVdTRTtpZ/VEaoAFo6BVHtjRM22nzDiFIRAReRhQoR4ELO6Em/CEHEohn5X3Qb5A3+ZAndSoKhuVTJfZrg7TtZMZTvJDpOxBlVqYAJpu1RuWrWXQ8sJFMi6Lzl7pQe8Gcwq3+o7Q+3hz1VNrTo0TbYLQZe/L37AKmA0y7PsnuIl7gYeVysiLDTsq17uF/z5hwgeqUJThF04GMogY4kkpsHhPDS5EhY4E8RwB7wPspOAEW0qVSrH1CI/a8Mtcx8TDhE+yJxtHCemop1QOIe1tvsqbpjr2TSDJcRdDxS4uhxaAPpCfWqMIY4iTqCDYZoIzvHdP5hDvT/AMIbCIAWupTcBHLIymVabGBzBsdvZc93TBt2VWBA/wCPKFTAy4pwQTyeiqOaEJ4wr8bcL9FYoFFvkeeypk1wKjJLB1nZBtxDNVb2G33XwjWNAa+nqcN5lNqg/wCo2wTywEti/ZDU3l6rAQ6J7ja0OHVARi6oPFXQ4SHf+d1pERuntZ8PqDhknHsgwPLhE5tdNrVQanxRwz+T/lGp8QwsExTeAS1v+1M11fD5v/Pym+E7xGQcIOO1vK0LlwwGPtwBe5FjOsLmy9PDdkRxJ4HjHAJqLkUFpYwlsZV2DVGyMmxz391TO4CE43Vat8PU5mwHRgkohxcZM3Ukb2Qm6jutIcdPQIuf+PdBgtqP6RgXG6oRzHdsxvhFzyHO9TyThx/sj8OxrHNZL3D6Sdrp7dGgxy68/pS2sNM87CduolfEvcYqC7Y38s4RqEtvb8rG61PJ0hNc0coCsVV6kIWmRKfDDZEFFYR4NndGoE0IaRcIP0WUAYHAKg4slvgt1Gfqj+yc1rg4gnHZUy42IlBaWG0RKc5zQ+Y9XUp3iObZvuAPsq0MdqLpBiBE8BdWg/dek/Yoa5nutKZa4uPdUmfDwBV+g9epQIcA5rZaW2EhOqVo1NIyI1N/ytIqFzBgqLnxRYRun3i/GmzqbprGkSBdU6TjyzJQLiJiyI2nhGRCcUJGAjoHryjARssK3Bp6I09yg1Bz+FxlOqTACdDIaBnKNAGqP9kRZEES4+ooNaI0pyZCZsNacGVcgSRy/ZNZDwXSHAmbogoGMIEfpRCB04UIc2pB1tYAE9kady8m46I0ruGWHonte235TTUJLHAeH9itVMxOenDuVqKNRxyIQumhxKA68ACNkeDAN1PAXyhBUkqGiAgQtQCY2TZSUVTa5pfbVpTANLWkFre8ZKpte2xaN91DG6UXfYBO1epwsoIV97prnixJHuvhnaCJ6+6nGoDT/hBudX9lVDnBpBn8ojVKcTgzYr02O6F90KdB+mmGjW/qD0T2MGBEnJleiaaYWuLAb2Vam64iWqxd+SpKaDhNc3JTBGyugmk7K3VN7KwULOEGv6KzrJs8JTe6cCvsg09VGyE7Kscarj7LQ4C0R+E1xnWz0lNl0Rn7p5izP6qTkqSz07oW5QtLnWYZcmPptgAAt9lq3aBEZBCLXt5m2cO60i3AHpZXbqP8qL6kNYQYATKTW3NlVDgJAwn03fWMIsHpTYs9g/qiJUInrZQL6EBPKU0lOPRAcSh9kW6ES3pZQV7K5VRowtPRNG8IjoUwoAuFgs8qqHV6HFoQgXlOEzLyQhBnoiHS2Su05WhrZ5rhXp8kgtnoM/dVaYN3Nz3WkMhvhNgrxaHKRluynRpluFPVMq6pBXL9Rsi9xOt1oVFuXFv9FrFPewTjU9epB2m6Lmt9IshU6tXMwz24BhdA3+6cPp29k4jA4TGVKbKeEAnOJggBRpud0G6oITQLmLlO78Gu6oNaOc2VOfVCEKd0ZTxOyfe2s2UnJwEH+/D/ANz83RBtbIuE34ii8XNtPRN8RkOA9SkbrQDtzdkGlwe3Ad2OFqaCQT+E3dQTZCo9slvpVGclznH8oPIsLAJx05AR6kQtJRKJcAAST9kGtdZewT+UxHq7o8+0gd4QBNiYKIQBwrqyLpQUbJrvwgVcoCICsm3VSvpvSH7Kcx7pbqQjdeIM6rrCc7sjO+UBNsBU2An0A37qVpbmE7U0i11/pvjcjso3Wg3hOeCdLmRHUn/hUHuy9gsi030pwaf/ANUIK+NKsLogtvxKcItCPay8OPU08yYTckIZaYuVVb3QHXgU1gERnur8WBNUzZBzzfFk6p3WonkabrSwwxzjKly+6ew4UHqrD1CEU49CqVWLen8BWWs+vYd1UZWEvdgqoZw1fEaTDpUVJdp+oZVN7TrGQqLqlw6ZVaBBcjzG6JJTXOwg8n1OsO0cNQUopynsnHumMbTs1U/FeCMtYG4CfJsDe2EKobcC6JKLTcK3CwlZH5Q3CLkCBwY7cRZF4kkrU1/rs5vZaSIB/Tk0ZHVeJHLKrRlfD8t917CylQBN7oMqYLjdVCRAGChONScSLtFlVH1zY9lUg23CqsI7rlJDSbheHGDDe6LhjCa9wunxjZS4rs3ClHutKnqinO7L6lRboaWlvp1aS4jKFKm/FpPqVRrhqkyJuolXysKxVxIgyow0bKSLIOaVEXRaOErS3HB7QJBeCoiHs/IRYfodPutbRkINqMktGUB1hEQmkHmei92xJXw2p0NI1uTBTbAaqieDkORg23VRzRBUjqtZyDKbI5lYbIxwIUDg2eqHAUx7ngSa4JAFMNPqneFSbbxGN9QF0aug8h/RtKb4B1CxcenuhWa/UBkYIVwjkIeFnBKA+qFFgmb65I7IOFnA3TTHMFZvMdlC0jhEzqgR3VNwfD6mY6KhRqU4LmxrWg7FVSG4plfCGIc7ZOq+MWmCYVEaeURyqnUj/TL3CU0doVtmwE9OPUoo+6PRNKaAcKJUyuilY4gFHsi48GaG0/EYyWnR1OSe6lx5okAWPsUDTaCHODXz33TKMiGfvus7fZNcTBwfdas90XFB05QuExoA0MH5JRM3my1EdjGxRc6BfdOIcI6jqh3C0hmqEJbcbFNfOFDT6UHH1gXVMvfAqgAN/aFRjeSkyF8az/5A/wDSB2hBlrPYP1KCCjqoHGUPNBHEe60jfj4bOm+P0qRfpa9+4/mTRoguqEuPtZOAKIBQaRYGUeSzgmRU1Z12mCnl5/0x6W4hNFBoPJLg0zEblEgC5R11AJTy0h5O2FLrbIUmiYM/dR9QB/aicoGCp8B2iPUm3/2uT6dNrIJ9SpPLyTTI0ztC+Jon4e7xZye4OibJlr6QqNIDmDgXnuLeeEFj5MnjTGk35rprjGoY7FMBPNoE/wBUUUHH6crs3+hWqYvF7SjTrMPN/LcQq+hnrploaOvVFgpl3RAvOMAKYVQ3kRCkWPVVDUGXWPsmjRYyZCY4iKeoFxHbYJ7PoMCP7BFkXEX9xK1G6B8I82N00ObeLouabArRUi+CF+/z5McQYQEzA+bz6dR2LtkOWoIj6bJjPh3l1WA+o4Pix+lNd42ok27/AITtWWu0lu8p+oav8KG3BbBbHN/ytL4QJz/hNvc9EGOfHXdRR5xsSP2ua/VeE1gaO395WkbwAmM7SmuIm8flDwcGOScym06zw5uR0aT/AFhNIIEWaOypsZGoNuU51ASNvZPe46Q1oAaPqc4x+giBg7Jt7oAm+3sr3WFhXCxwCPlt8h5cJcfq6BeG2oQB3sop13gRdU6dV92VG807ZTGtf/6nsMjuiAdTgYd0QJgybJvfZB2yu8N5xzHZAFo19BfG61RJOFtKkoluQECRJAiVzOsTJVJ50vi8ovm+b9UywGnEYTz7haWE6agNu6+BcPUHH8G/9uFOAqLg57HxpOqPTFjCeC3SWCfdEusQ4qEQhHCoT9LSUCo458o8niWkWFs+yqGuXD+W03TouJVN0f8AKBMt1GARj7qA6SHFN1nlE/ZW+y0Hldt3XhCwYL9yhbKAbdFuzU1FjQOaPdAZKdaNQITmF1tJiV6pWUXAj0AoOc4UgWywmZP2Cptc+YfUAHYINFpcmuLbnA9kY5ycyhfZHgbHi/8A3EDzY+RQYzIZBRhQmiI03C8R4mQNk5jm5FloGd0JMQhqnT1XhsgM0xO57INj3RzJGf8ACc4o97qle56IQJKZLCOlkJGVPRag5VMucLqm4VGtNwGmYVPXDZdJ/Cc9/pj9KqKTLMuGbWTtMtcDhMluAs3GyAg3T5JBiZTum3AeW6t5B5KriDytAHugNwhBgzZU5MuLbwomwWtlS4IuFJOt/VTP2VwrYQDyC2eYbo1NU0zOk9lmIKaNRxumht3YCBgF+5WvTJUtGChqbpaP2nkHlCDhkKk6w+kicLS68Kgy4cASviKpBJJ0/hVKhHMXXQBkO/RR1DOJTWxIiU6MQj7W90yo4wS6NPAcMK6x8mH40px0GNUD2TAKe5nsE6nGKdj7osZGpXdLphOhsVJ5SphBX6KoTbTATqYMQLJoF5N19kPwrHsU4mpA27p/huh3fbdNOqSc+6I/mKed8hMg/UMptUG9tQ6JsOsQJVRuvTzGCFU6oSmwcZTZ6FX62XsqQLQNynnusKVnjn5DCTlylwAuqzyJJ/unknmiyJpyNk1tXYn9oOYZ5k8PwLcGmfW056oQ/prUmWtPpKaWXgcJIT2tMiVBKqGYwi0G+0KSg/aETG65Td8NH3VO14UqCp3TdQsDdZHQewwgJCmVzCytK1MP2QYwFxTHm4OexX+eOFjzMkdUac2FwhTFiQLo6j9MlAjKubTKOYOFWbU+pn9ECNxKp25WCZ7owLlaSVG26Dmj3R7qdK9KqgiYhbBEbLSDA3Wpt+qY+J0nBQcy7NvveFS0tguRJVvUEeEgqTgcGkoAjlgyqjtQMmB9lom2U8NYLOz7LHHPmYQ68qqT1sgqrRmwQCc8D0hQ/Gqye9vqhGnitRHL3CfTNBwqUxzSieoRM7oqEGtZPdBwECLKXOXxROzv6K4jsoao/KM4hVSzAuvCeeV/9UBeALJxjZAgQiQLoiFpaE6m5w1OCgjCgBBobA3ThsLBN9k8IkDy7LHEdip7poBsLlVXTfVITqjslOPUKcdEG9U6s3a5X/UUrPAuOqPbhKd0Xq0luCmaiD3QsqrtUFz8okqxhXTABsjq9RumuHVD2TJ3UwE4hTuVVqAWaFrJQtsqZ7rTTzNygTgmUQigUSBHDKt5QeBJ6L3UbIsAyiO6CIOE5v0ko+Hg34ENGeBR6KEGn1apTlZFAxui4N+mAh7okmUz2TRNlpbmeDWbvM8L7pnRE903sUeAJHAiLbcD5dKhXF8Ie6pge5QKcUGhE7wi4+pHvxwsILUp6pxRK9+GgDCJUpoa0lQ2e69JWupYBWwMITutuyauxQ7+XuMeQcRxFrL7Jo6hd1MbJxcbIzhEIGFBbwktUHqh/wDayhFTqVzhEAoAIR0TCRIKDGi8qoagTW0wO5ThPBrU07KE4O6+cOngPMF+19032TipCqQcFBElCcBcoUrTClU2C40ol2AoaoKrVAdoTrIWQHRAuTqkeyF8oFALT3Wo8QfJHHT18x4wn6hkK6gJyrT04kqSja3DCZrxhEM3QVgqjn/VhWCFkNWFyelMYMkoSFKcUOB4R5RwnzT5L5ClSU72Tl90AqYGFoURfgGlqJYLItKh6kNk7KJQc5q5hdO0oNTCgAtKKB4HgPKPkaSj5LqFHXjKb2QKlakTupKsFZByEtutDMoIhFyE8C7y6k353fy3QnPAIIoKFCcEAOBnITR0CcVJ4THAe6Hnv86VPG/CVB4RxKAQPE8DKt5h5B8uPl3UhX4lBBW4k90D5R5TwHyifkW+cPJH8J7fJt5r+XPzD/EWUH/uF/4qyv8AJP8A248P/8QAJhABAAMBAAMAAgMBAQEBAQEAAQARITFBUWFxgRCRobHB4dEg8P/aAAgBAQABPxAKNGNETFSJbUS+J6CMr5R9VMtsylkRoGEjptzJwllFbqeD/Fx5AuIifQFy6DEI7/hyDAYEK8EtoYWAoYpBzNWJZbXI9MU+4xaTlQb/ABDJvGq9S8gAth6H+A+jpSdis6y2NNgqW1La6lfglxArqFysgAfw6XQERBMWvEXS5xQK2xQhF2KkhuxQHFO0iWgWlP6hEysCCWsCs7ZAibVG0v8AGxqmXpjfwFyiu4BK2wnkKvoj+SJwKKBAkAl8VKgb8eiEClMvBdPALYpZLwhWPfAoRFQ3evU8WfCBoL+4MK7YjWy0hDuxvQMUdyoK9RfHsD5/FYrcuwcc9v4VYOGR6mv/AIQDSQcQ5gShJB1DWnFtceUlbQCAWjCnCAhPZVRubH8BkWoUL1HdtQ7LwMFss/g35FzJr8QFTBKFNQACLQs1HijxU/BkZi5YPsiTFt9QVRL4uXLmYROtEtZMKqqsFzAj2KGP/KV5f6iWekRVnxiqFQoCGNxVtRCAgKW3KILFsZgyJ3YraHqxNarXnsCI0zvvefbqhcAAU9j8mRl0FLEURjPARGzTcrLWOmxg2OzLsY8upRYVWAQs/hLlhuS0speQtiNsIkk2tgSdpPkQ04u7httMoAZmwtJfUhV9wfSMpcP4JUFwpFer+OUtEpP4jyK1kJTIPDsCg8xVQlWGBFVIldgz3n/pKhLi9Q3UCCtS9r+HwoI2eEH4zKVLz0hldEpgyugJKl5ic4QZyym6HamtULyZIplui/BClUaMl+xCWEvAVS5c+XstbYcolMblKQunu6hEhp7uiBD2vsfaKCtf6GAdRKSnTUFqu1CQXAzYFdlB2XCXCFoBxHcEAf4KNt+uweDdLahbJg1KtPEo6iXBjVav+HDq2NSoVEUZCRqUBiHUU/qnI5U6wu/yf/47ILExgSOZL6ycIA/wJPP4dATcEexJTzBmjif3s0KgAqHgFszzpc/yOJj0JZ2pRRfKGDuIM5BXqYYV5DBgAwee3YQK3DWoSxVjjj+5WV3yG6EJjKD23UwTqkA0h02rlwkPEMs7eI8JSzd3GELZY3xQK/5hAyK/+JbGPeWMtjt4sspuKRaGkL+Y28yjADAwRXhLjRaUbVI+TIbAME6giuSWZoSqkSwCklIlcTfp4xfWMwe9hmTS/wAoFLcEuYi/yQwCM0JojWHeJcxFDkMotIi1FGySoJ7gPPXMKDnWFYgwzMCFkrsr7kf9IkELsnKOQFagZcCnJS5BGAwdxCLQ5Y5cJSF1ZMAMR44qt2lWAN+4JQWUrKoxMSXo+FYtkQGA+oZLMFVVEdCaSkoj18hW6zcckXBGuOa5yhKRDkHednf9M5bKy7ie4P3CvmD7hGirGnE2e3c/E86z+EHNsVp4RwR1ahDLm2ARs2CLk1Uq5xhyVUEZ8EA6xfc3CCUcio+4/wAjIbpfRlqaKEH/AGIR+v1hEPF/EP8A4zLQlyKaZOQc6QpLYPfiGMO68IEqZ4j8UD6l5J+iVMMELpSEvcysBpC2Ff4WPBgT3cxRBXAUppHuZA3FtOVMQC3OBHoTEGkItIxAFjm1NqWzCK4IuG9r+N6R2J2x9IEoVEiYCViY6jIYSgH18sAxKWQyBUHAQnqAmlICml4T2TaoiDsbzoIxMcMTVikbGDnbE+057/OvuF1gWywZmQqCSsInYhqgPl/BltmOlbCA3FqsvLY7iUMMRLbqDhXFBBWjtuXFcYqCHmi0BMvLJV+gyW8ksD5D1fgSliE4Md5O5BGk0/a7RLAjb1FC8pSJtWnuEqASwIKNmMQlOTIvhKYFo+C5U0Nnd3HWMIWQBRkYTCMCb2Ujtiw9wPMl1BnLwCrhFpUadh3UOPUYhvZeEAgq4dU4gjnZVoDVY3ZXdHHunY4gAQeMBeZNPplP8WoxAlHMo/YWdjvgy10KLr/aWBfrZX0CkFAsIo3iCSnlDAwTKv8AEB4EYuQi9UqNXEArCiNIZhp2BH1sIHl2faH3/BgnEReg9kWC2B/ALWkmVGAhh18Sk0vqY1vYqK2TbK3pZgMolB9Cidz3UtJJ+KjIotHi133MiIwKwltGPBBoo8FG1Li/DDxN7OVMeIKEGiUkolVaIGBBgoRB4aINX2SgUj+UUWC5gR8rpORui0gVKzirhosQ2OgIXVXkEtImyMwwmtxa0giUj8CKmk/iZiiZhNtSIQlPeJ+RK2CARYwb0JrpX8BLZ1YmnY9CPsrVSq1l/DkF0pzKtPSTt0AWTxbqfwPzdCob+CAp/RynuEvhKBCnjJdDsCClXsq59iT4B4ZTXlbw6tab+mA4bXtX2hMjN9DrUSl+QkcPH5ufxlL20SKyLSkYZvcvdleMYq/jdN7GUcMt/wB/gP4rjCgmAzMviV53+YbbPJ4RPbSqC24NXeQkDjgW5AtH31O28ycD5DsKuQSFPEDQtI2Vm6m2fo8RWprDRFtDyKk9GMXhg9OMM1AJmZ9UxFkbyq1NvbFza3K0LNRi82qhgL9HGGGALbUqNn2LlqPEWD/dlxLsBjqO7dzCXPDcAu0Ol2w2NbBVZUpYEC5cZQ0rEvwrj8a5UmW6TURO9pOvboICirIPqksRNhdXCm5qSybvaYIAt4ocWKFglPRsJ6SFFtEp9DIVFwKg3fjC/QSpqoKke1KhwnH1TGIW2EH+ts/cwEc7H0xfkvNaSPrUqDHgAlI79ibSNr7L/pDZK3DY6C21aB5lX86KGNEdEb/Ey1sg4oqtlWJkBd+Pk4yVrAS4j1LUCuoeNRotIR9eG4xe9kXNCuvw3EgoB27VNktKrs8ocR7vAj51oPDGhvsillzZ2NnsRdgfKOpHLpuYVX8B/GG3dPCAebAmbZ3YdgRwHYcfGQErADE5VL4ER6FEQjhaUYEkIhd+fbjc4qF0wFRGUHEaNT3GKUFasKC2qe4qhj4QAhI2VH5lKPFimy6YHNiyEYORIQ7g9BI5LaDqBDYTuolPoX1iSsBaeEUngNE6nsR4IOv4m0aaQin1mv67AClgltsydr7H4hkQUFgrGb3jS8H1iEMe7hgNz6zoK5g+k9S+x4upRNTZFUylEb3dnhQgBnaK/wBxo6l4YdnVftI8wwNmCfwlwYp1g/Zyr2sTQgEcST6zitTxHWeeiuh74hwN3v8ATWyK6oUd8geVRS4OaDkrAVfa1CTjB3wrmyCF6ikEL0M4Q1jkLEbT4IaIlFqFRmxV1wD6SwqiN6gv4dC2KPu9qJiDRlInNEDG4bVNi4WhnR4iNUDcMJtM8FIj58NEEXQboaUbXfEAZnGglgCNuVEcbL+1DuO4+g+upw0VStseYs8DYtbADDDdmA+gRhEtuIVLNX+Mt9jobAZcwj1KX/A9DtnR7mxpWKZDzwlo9wYjbrC+7wKCpaMvty6KrhrUsYMA9fYuQ5uS/Oxopvsi0hqXz9RHkhtjo0ZZHAAEIBcPxUBQFe6IZuvoew1k0nlL+24qflrIHSfH7ewcxcOVKl0HhpKZt7VLvIbjKgDFVoHgm2oQ+BH3Bo/bH4fD9EGFAKtiAuWMw2Cb7lxt/CQyFxVC6B5ZQ2ltMTwfVChVChzEiwG8I6vbZ66wrFCeX+jQTv3G7CVe6CLDALFC/FJ4+WyP0Si9grYYcvwFNr9+oqtVGwLAZnxA7BoT9orLcvI8vivYdipnF8w40w15Sdj17H1lMBnwGFwNhaOkp8wxWTvkV8J1yYFSYG5a/QYoBWt+2VF0oeLgjxsgGsrWkYlNNGBEi2PcIRRxIo7YEODMzvKS5Dxji2Lx1PI1WTVeZA3PhUWLEEnqlgMnQyDpZdaWEUcVssoT2AlXyy+FDym+iUZFIzR0+gOXcIJx9RrWk4sqNkx6NGxCMClirhzKgzZm9PwikrkLK+gfCLm4XS8b+PkoJJCnVjqNOAk6lVQT26C8ZqviNYv+BkYkyC457LTsqGb46p4TO8g6nxWiC+IdrWX6QLFrLjSjl7LV2LDFvSBxkTWYJfdQlT4NltE1yCBB9uX0dmbi5sCTjPGsAuUI+psU2EwXYjDXWKg1UE5R8l824nVcr7iVtS6qEWVFUk93osfJWWOS/wCLYPZjpsDleUR2F4uHXPQISqiiE+xLnruUxkpaLv3Hbx8Ym6LDwOxLaEHN8GFInzzpBB7K2cgM6YDgM12afc4ExW0/TTBStt820wDquuLAO8EAnympWD7a6AaPBYPjoIvXTlzqcMRvr/2hGDsZh7pVh5CDxq8g+ODPLKmkFoIehdiHK2ntPtlKCIuqmrWu5B2AjMb90pqCxs4qdF3RYp4SluxF9r3Qc7S2JSS2rWnbeiqGVkiG+W3MFCH0W8EqxAXOnnG9JyYP5woMSa7AwirZ8hNJ5IaKbLFDXQe8EUuLawo1Ivg54lCyjtKNseDsRuOoS8ILVVyXeHx3pYV6eyXcAvtg8G7OiD2sljImKAz9RN3YoN7EWvyDC6xc1nKAQe0Gd4sb2exlS0aDkMTpL2QrDY6Txo/rwy8yi4Mcq38mKJIZVt+NCA0A7GyMByNhdDWU+lhHUjlGAWA2VIfSnQnkYMjdjLBDMWWDG2a4bVfAETSNYL/ATvmd7C8DaD0Rbp9nNGCMYzpLrh1ZWiR8tfiUkihgQzwAtdMJ6uQqHZCga3qYXToYxY9YPBEA2paT5ymwVp1fuWgoQqdj3B5AWoyrJXUiAKGfhHi7eDGc4YtJV6qMi4zfjROu1BZEDqUMSyYwivXyko/z2CEOsyBbUhVUS3wZKdE6HpmgRNEw+bTERz2W4pq2jyUhV+IpIwQno2kuBMA6NIkhVlqYlQnmbyi95vdz+66NgRL3eW3CzuIpC1r6PB3KJfaKdmcL8Dek7BjIzTJ27cUwfnoX8seLkFXPPlEErbdjf6T/AGNizkuTmCtpRxRXgZ1XAngEKBvjgrRpJ2TYBVtaIWlxEY9fs35FNUeNFBZW0NdJ3fhyFUDTq64ftPIZsbMSr3UVDZxk2ySaLjXc9Orc6bEDbxf2CwhMydeLai+nTPBME3kU1RLSEhopPKGFUx760Nvipay+1Ym1IUUxwUBcGI7H9pOuxTry9RwLsIoWPu3WqR3t0E3E1sEWooDr5KkfEW+o54ADFzBxhrtcpQ7sK5rLCaFIG1AO4plmoqV2tXSgeNEr4SFzZKLJjXYIXg9cdDRr4SKBauhAoECwGqL7FvOmCUnG1a9OMrsCR/mUzWOAqKAtVmWh6hp5YA70GwnElFCeMYzszYBeKh0qa/qMExUXWj68YrfAJv7uWlCK0D/ITfD1SfAnurUTKaiPeIm0t9KlBc0Y3IEJuiGCWLRRYAuRQwIlXLVWS2I0uZFCq157CyJvUlD2AMvaox6ig/oK2KZsiioCEMrQK4XyMD0X0rIuoewe3xiQO4KTNFjfJQMpVwOvRL2GlVEMYESPiJuqMWNoJqIyUFC9h8ANqVfIIwB3QqkBSVspVF7Nxp2ptoAAPwisDymvzFTVnpuXiOVxC/BUuofkz8oAbRrXwHY/NoWT0TGR3DejS4sz3sIytgKoMbQcMUzmGxXb6SAqgxQFrX9CQ6EWCE3Va87YXQ9+3Af1A0gg0FFAgpiirTesOCwZYeZHoEtgcosi7f0yYk1/Ck4pwVXNELz0Blfxw+Suju0yCyvEH3VaI+gNqCRhR8RD/wAnMPqzJ2BXFFSS8FSL3QlaYW6N4aHfhzXZRDjRsbadDUOWOgEonDpK60lrmdfqarDanZGii0L60jiyrpBeLHi+iHlFcQ5pfHq6gNMAknbX1aXHyUU83LqVME5KTEhh8i9qFms0TbLHwjBlSixLU7A9LsC7g0seaXYUyGyllEWYixZs4qj9xQspCIz5Urwq8HvN/wD4A+4cZWlYZdei/oD1Pvskte2Cdbm5uA/D2E/iCgvxMbm/pXTyS2TejV/I5fQD/wCIhpK2f9qCKaT5O66jkh8CqT1EjNBzFyWa1ZXQYfWa29ldyKrFyqd/Nq/MEI4u2Vjr54MHItLMxxuJYkQTz/CMWp+oXVFdKhO/7hKmfQG5YiDwzFsWQ2BLqA6pFeWSlG2ACoxDXAQQQtpb5GmDn/2SliEj/IvqZdJoHI7SVAnmNZV/p8Ev8qukKPysBldtPTLYAZQ5zVqHGKA0QYOMELfPJOLcOB1leEW5fBPoKwe4VuuvFuVfu0ibqXNBGXGrVCL54X8R0DiIftDq8DrKu6yFcI0REvopPG7oXQ7LBycCAkGCwPdTvXY+HsYdggyVaABPDYoIPZcrQBbVeowXDFbPciMO5UtruXXSue3hRJh6DH3NOE8gJ8Da6GkaPcNJRBsB5KTHYPVhUZCHF40Uvp3QlovQFA+Fv1IQeHnr92WanBm1VogV4SCHDC2YFpw9EYTPZI7u9Yn/ABuqzpmOHwQz2Nlo7rSebIWYU2oCiv3Th8j6UKrTVgm1SRF/RTtGNTtJjXHwQA/Flrcgg9VLCtbaXG9gs6ilWq4PSokB42TDaXE58iE3oVPHgU8ztgqrxmSiBE01dRxfztpegWrDa0EkLiGEETDRYPBCVmCLY9jwEqkKw0D0FywR8CUargFxOiJxZd9rtbKXF+IL57/MuDgTsb5QteRsLRu9yKpZ8APQifSg+sNAqWrWSeBtpCMkqr21/kHNleIS2HgTLgYNaZAgfAiNyRmW1EASxneV6gFFy8iYh7SGQr5KVxPjSXor7YTWLhA2NZ+mQoMtK8jLZUAPKnbEQnmcYbh8UEV5edwgBlalK1FyS9IgHjgTCcY8jq1wJURvZlRiW1HdsgdG1ZZ2kGOvSRrol022J9aiFp4y18RE48MOUJplzeLIkcq5buru0JajzR1j1cS6kbBwA7Ad1DTW7sLGj6S2GULhtHwtQtMOpqxrK/Tao8VyhRmL7lohoKMgdzGdtWkLQxpLalLlvQsefYDTO0VDoJY+UvRUrd2XZl9D4ISpa10gjUsfOy6WiDYbTRMKWoVhstKqWA8WIeRbQRtHpAqtYfAa0g2LYv7W4t4XZVp1BZZZDl+XKG0TaCLL0LtOaJbU7rH0HTdMWTG42uqvS4Ou+HrvwvGX5sM34rPMOagW2jQo/JAn+2Ct4DC1him/UKuxtIHbasGshHO0bv5Wh0y91D2hloyBXSJBTS10xB9P2B/pDizC92eL4yko6xLt6PcufTVWyXUxFcfgpJO2EDki96KuUNJ/xvjs+f7WV1IDwvkHUoAUNTPFlwafuEcUHFco7OdA6UUQYSRk2DdByBbUPnqONlgK5Y7Hrm+DaRip0ofD+hDBYPhZbfRa3ccgbcBWsWWuIfscBg+q8x4EAaNENju6dSU/rKX0wppK9QkS7SqF2oKWnbXkdR6gNQfYVxpTepsRwOPoNSjQXmPx4KJKFrh1H/jDO0lywCD0xpa6LjksTRYFS0lX+pbjXi2D7fsI9AsQwq09D3D+Qc6pE4hIyUIjNVAccDqvW6AmeYB/tirgm/TqTkBfiJC0gP1sKYYvRsWAirIAWuaNCFsHlk2vff1oOdSGaS1rjzKwu4AIdVcVxThRG1yIhiAxDlBlENDJpQAWlMHF4EVyPTlnI3/xgauWhmo+e9uHPlvlwSaygL8W1qeR/CfoHDNGH+36VmGhKrULotl5Q0OG8IfGICuQJ12nLInNFx0rUKB541D8D3Tof0RjYcVu7xhdyN0siRDgk9SDKYSMUtsAbBAYKXUvliGPiAJdAtHryIyS8WNXlnmHNKbhdQsQQKpPhWMtU/ZQWRUooYPYTj3cZCA2le2DngbIzpHlgTgW2J6sI9Kk2G5YEB89S42cI/H5z5lt+UrlEvEV3gESJav1sqRfW9MC0hUqi+GUTMC2sDxF6dFgo0lB9QS7dOke5VoSGEfb8ePpC9Z+75NQ4fGr7Zu0V/RCqqxFwS/kCX4sQVB7x40RnAFT5fSMMthZyvkz4bVF4eYpQ1B7h0m63C2qkqFlVwmrbFVGZouGarGz7VflgmEEh4v7KVEoLbA5K1+4sGFveJpwle6h08uC9FiNuqjA/lAVRWulMLNfkdNJTrRddjRDTa1iR20JpRgbalaoR/iLNYlbUX1GsJ8XQwReQ8Mut1RyXA2IdC+MdmJ76SFD52KGKUnky8D0zGEwVtTsSlWymDzHjDgCOUY7uD2GNXukeBu4SVpdR1+lmRO18OQoB5Exi2vdq9+oSLgdL7O39lK1K3OPiS9iC1YmasFlBttRwIL3B02pePaxhIaFJVNNdua8Q6QbR89CVYsUu0tKytetWAZoB8daapsVOekAxp7VD9y3Cfed+uxvLbXDQ6PZlcT5ClVRKmjRmAhRacsi0b4sBBXILVOfkKbGDHw0TiNCievkukJ721kbhh9CNXWnyXHSiu+vue3MU/O4niYDNhrJsgzYChBfEj9TQtYokbctAorFzjz250dW0A+xCpO0iRUOBf1B5ti4yqZBqUZh8fLJoRYbWtRwOSdWJgPwgEMCv2qNEA2CMUtGtJhquPIS9mA05UQYCMoIQbqu0wwjCqLBsb9WeBaX0SoIIGy2pmJ2GYv3wS8dEyPXGlVfk32WRDYGEM9wSEHwiAuFAppbgwIHlS7aVSEvieVmgcRsZk7rVbyETABUI8+K6r4IhViYsrXEuCVyxQ7bqXACAwCOmKprsXIGUs2tKnmqKGMOZrYjV+gOyzF+fVyC2YhrxcvrqM0hLGS3V1vcK93VHAVXxCBA1Vpo5yNKqZgElPsCdTGqE+Fo9kqds1VxKunD0fBi0Sr6tFRshWpAhhwy2lWcvGJXbm2EC1gPGRe7la8ES7ugYndQCzbhSQWjUV0mj4g6sAGtXci1nDpgFcbSwJqAMqYpSHy6GaAHa/pAEPTdh1WVcNwAJDxWVBU1+TF54CAeIMBksyHDVSmEJdZKAWQI/RJvcACA9X1fqbWLBFSlAPCmDZtuUTRR1Nq3qorEW0HoWDHlSHcMi0GbB5EbluUijTNa9yutBobK+MKIodOAPNPrsGoWrtNEbINF41hk6572f2T+IqYIyhNs455KgUShbP7KGP1lz5M1R+XgwFuAxH6rCMAuzMrKSrK2lWRR4YG/6hL5h7cF5TboB79zOOqRS+RpAg6TetJXK161bLL1ULVSoYjKhCwFE1YyvNooQNzNDy3NCRYKx18i9Exq3aET5MLietUMPIC4gqgDzE2AKB+EMYaVdbT3KuVNdMXhZHjpEvmWR3lDqtf+sSOQ+Q6MdqMQ6jPL7jq97wgs9PsQMDomQl4eDQFkcmovFMIBHUsvCo6GGas2j/0y1l88+egJVi9EFebpueG9W1HyEXeSzOlExErJ8T/1l9NqS1Ifdt3WpGEgFv0seevTNt+kWRAhqr+ZUoFcT8t1j7HzQuP0fsRmm3lnGHUVamQg71EQShLzIA/G0H39yj4/h/SIVTFi0pGfCJFYH4uoacU0JbfuOM5rYY6OFeXbGHR4gErFrpQn4LGGsrCpF6JZmtVCEOBXrMTwJWUiU2yt1h8fuC9Jjpflw6EehAgKcRLWP+fvIuIPDAikF4RJuqU0ZVPggpyYHUCg50VD0hg97kN03VwcBwFNFbGX2mEN86tZV1wWGBrf3EVsB1KKlvfaXa+ksOy1oYIeiDxtoUxWqKmZVenAghQ0lHq5cKLy2ob9GtnLDS6TB9JduRn3iCg3iQgRUFg4QyMQvgmSiq6JOByXfHg8Y5phsEF9w0Knpna+ThdCmNjhjyKsH97B5Avx8EFKg2J0igc8bL+IvCtEYjv6RPpb3Gl/bhIEjHXpYNbZkflX4YOASqp1v2DKT2E0Pz6CUK74Evk8VREtw5U6EU3SrQcm5awRSPsil6Gz6L1gHm/Mp6CGYMScWC44c7TFiaHljy1uXEys7S3/AHLmGVX8xhNZGFHJV5Qiy+Qqn5xfALBCbiFUp+kf7SZ4WAEJgTxDj9G+FQzpQfPnNRwFukdcjhqYaVWN92pXJhOleGAtw+P+k8WTdZZVStY+zzDOLhUutlVT41/pIQHYxQJnpNbrOR4B8ktwaJ0oZuzfROkHNCYcfcTsSIst+zYc/gqUxyBOsq6K3scsW/r5UE2IwHTZps9tVXn4IcfDBfMh9y2VMiFXvUMkVannYzgIQ02qYrC1nrTAW1RyY1KLHKRAMyKwFlaZL4NUZkRCqyK/bwQHe1d2w9jBQlE7F4w3yECx1NFzzH48S73qPbIfpUsnk6iDfMkdPjsPPen104CK/gAWFxF/OM0994uQ5Zxj4aLXRt7HqM8SNXbzA2kAcgmtaFlEo0XUHmEBEdDywE0HRSxQPKqXViiw7Lv+1pUNiEK+CWJmy7pLy2/EF5JJfmHqCnDpCVwEM5WVqxTnFQDToEa9aUsmARsgkGtPzqji4wFyiINitoxKqIMIAF4Abdy/u1eX1QNAci9urVOrb5E96Ma6kUC0rA7kVtC0zq1ulYDCu2bYT6iBtsw4eJXKXvBKvw6alhE6DXmH0iFoy5/7I0pnpUwTZUIQhc8P9ylKvJHkL8Eo/qDfnO16BGooqalThOMUPhVQVcA7B5g29tVJe4Mdc5kX/wBVDzDEiiCly5WpAYA1pDvZ8hURNWvVHmpQrgmtFduI9gqwg1GL+RFtVU1iHOXDPRBgmk5gagmTRN7KKZtC7X5QSEbWK4Hym1KTYxUhORZQT+mLRrBWrwXBmJPzSRTKEKj4l14gsJSRa69g8D8IJeGhBf6vls8VyYWqaT8BE+6mdC3Zvxxoo0yH7Cpa6qHxNV+AFL42GYKq1amIageo3gWUMMgxvsQYbA87UpWR37jx0RHfSXc/t5AyBvIXqkLbDdGwZpun16lA6o5zDYxcYBYuoFVy50uw0ElrCUyp9qVcx9ixkUq3eyjmhyB1WIl5PUzksDxCWM2YeRwZQkbmRCTiNYRiGFTQYNUfqAQCoZFd0mEdFfiXszJx2iWopIUKIzAbKAWjZKgPBG2sO3uW/TFzV5vhiF30QN/oCuSEQMisnvJ5s3QY0gTRTTNeut0VZTE2NHmou6YxPBYeGfYtYcCY8bQ8sOuh+27cUJUWhw72IwAAL54jg5x5QHJf8ekeMgThW9mti3hdtVH0Jl3FPceuUgKVrTwtZLPW84Ph7ZQAEYgLIFo31VRVvjtkrLwiN4Di5fb2EFG8/EgwXAVAUIyxC05THokY6gETyD1NASlND2QHuQAGXeFuMeiY8H17xJsVwC0PTYkDFSB59URprZELimC/MgB1lRqNkvsuAZ5AZVq03r9Elek/Zyh8iWMXsNFvTPgDC/5dxCS3aWkia9YF224WobKCyaq/Vx6RgA3Yj8tQLoQKNJyptxnW72VDE0mvN74IXF3YOVbrXuJ7QQukchMoBzfQRrVZQGsyoutdCFVxjOwuC7cTS3AP2UbLtlPhc4u8PKbtBmNrsEpyUam2iDGSocr1Hynu2cUyLu4iayIvR2LjohW+xCtWCjbfCKC23rGNDhci6C48tWmynWFIzp6Sh5mDMCg3LeAWLCMAyKxgvqER68gCPZEbKiRN1A627qNWZUugoIDDaqKPdlxjV18Pn8DeCCYPxu5k05l1r4BaD3jWPkH75mELCoaYcAjqBe6U7qxUD1TLgDrsQtmeEsbtROsnPcWGqgWba3xL+4FTZSIU6HRg7Nu9pV82C7YE6VZ2ri/z8ZP0IEVMTEraKt8lwV2rk93NDZiLYFvgLiEGGh9KmIT76q6hxivBApUG/PiSv8mHV+qgb4ogXBuEKItpWusSDdTasOO0ioScyF+zpHU/hdLJXmQ40iCLQHKHv5AUruBfsQ7a6viS6SLJVPqpBHgi6qVkR+r5El6lsV25I+unA54t8kX1rZ3bataLljRVyP0QzsZaI7cRg1gsqvUdtJdKffmyPjCk2lQg+hhGR76UgPqXBiJ2SjrLnsr4hXzF6O4vpMucLB2wVClCE066tSzxEhM9JQAkKGhv4CINtWWWoxgvdNzX0aCyWiiTwQjc98COvYtcWBaYL4J8g96OR9oWv+1gLLv+7IXEl/8AIIMFfYrBfUlT7OevoeyFuWEkmwnGIMoadBf/ACOUkuey5WLA/wCxewRcUpLz4Bs/bmiXQfmfgjaw/XoFw6JKS8sQS0L6SwDB4QYLllLKhtjY/LB4K8IaUeDLLL+wAUx2GJwqX8geQUzXhlGJdMfhi0YhqJKVKgaOUrTQ72wJyUUIVqo9t1L6mb8bAFsps08QrgnvPopp2KaHw2ayXEfZpLV6CRhluWkKVHPa4iLTRNGkqstD4YLO+rZb1EpMXbG10iw8JpLJGO9D+AgwDpyHS4l0eq3G2J5WTJiGFjy/7FkpVCAVlrzSo7pVdoD2WuARWKjHvSBcA0AjJb3KazgjDU+0LBlacvsMiqqKHPV5YfmBbBAh9EVL3UuDeVNRUCweFgOFnbgZVHhm6DYjz2N0fFsinLKvoUpdX/fN0K+iAdqt8UQRb2lhhbE2ZvyMXOGezR9o9yvV9Cn6vr5E1yEW9PtCukKy+0E8/wAwhg+1jLXLd0r+KbkqO26lehWAgi55R1/aHqCy2AtQWOJBpv5KXu9s/C1xpUJzb39Qb7NliK38wxlswl6DyAHXidF5O01UEgHQvww72YcK9H0xNIX6U/4j2C96LUPgEOTUp1diOqO6PionNlGc9eF3/JgDfDaJIUCJFVGBV1RdtrtyHAaeY8XkW3FaCtSMoFtQfyfym07fJxtA8y0livAlILG/8M/1j7l+lgB+WaUt+z/BFgBUiw3UGNlLS4SrVMiya/wcYEpHRSxNlPRY+0bhYgtD3ZDRaGynLitzzRcOxovSVWvgsmQCeZ7WDIT3BiAmJaKjD9HvXA8P1Fq5VB0bXHoQvdytq3Am6He3L/mDa3+V2aopgvLxq4RoKS7gCKwJr9gH7cWOg/UqAGm8FiYBLjbu8ewtBaRfM4y83dVSmJxKmCrMmli6oB5S0EKyMaAUjg8ZtZYCxVACK8K7G2nFe5OfWHARGdAucARKeGWUOVwC07g4plfrQQGeak+NhMd0gDx/HyICifdTSfPJHbtriCy/MMwDUvbQ/PCNcQWqvomE1W2aB9VDZKQi+NlbYRE1kkaBA3CNK/Rv8tQLFW8TbB+22JOLzQs3Ttoa5DFrUpOg180bhznipcxOyjhr1FhlWGkg3hauVCkNhn8DUmASH5AC1gY9gDKEVkG9bMeWMN7/ANgv3rLmjhF7GUwiqxQVdKT1m37gcYBHAIk30ooQdIN9scM+AiwKPoKopjixHScKvQeEJ4Un9GtA3ui+DLl2W81WpEvorHmvQMf4+Jll72UDeBKc0zuDMl1NZtDej6OTQzaEqfOdmOokCoH5cuaEBhqM0yRIUrB6wK3I9NRQ9L7hl1QvNYBlK8xAkvH1/wCUDItfaj/Mit7Xz2f7ZiWx56XHO6H3EB8MuWrE+VgFZK7Fx7B/U8moIgDgv9R61Q1BCUQXAptBuybG3uCu3D6IzSVsQPUfmML9Rs4tdeXguWXd3sQFRLEjSiQDqC9o0WbN73reqPa2ytdagW4BGni6ZYYau3SwjELr2kXDS4qxqsb+kVIKAD+Ec+4k2ElTAHRR0jn5lKtqlhpWQjihi4Ac/JdCGrWPiUNLR8YvYqzKFUWvu3FM1LctBeggUBcf5iPJkNfNC7A9hd/KrNhHhcJc2UDeIl8NinUWfDUsBCrG43z121kAyVdMSfIZxaaXECJ+wFvtQnZYMHUe2g6vy1D0veFg/ojiXG9w5Gqr1ovCHOs4K9G7T2y4CSf/ACotspFh53JUvOQvLhaQ2Lb2ysUcNmrlFl0YUuGZuLcH3W/KAIVXXfcDonKl92SdXvFbPLyHsjug6oibH0vrN1UvLivNXsdT21m4eCHNOkF+dFB/aly2ew327xffqNXWWKcd4NgXp/EzHSMVHfYI4N3PUJHcQ4wXLKde2lj5hyinu5iUvAED+/2Kmk5+rBBvEs43TmxFybCCGmd63lJEN6eD3OLZdZqqJhU+x6T4KzPpfxDFwPkHKFHAKAgCTGLMKrIY2LKWxRHMaxG81SKQNZwGg0kqqsaxUbivSYVCCLbxO7U0JRuqZRWoMsyrrCtXLKQCMzf+JQbX5h/FT0RSh2JSFEs02yY/xTGixJmnxKRUqJFSq2HG9fKZVzWg7ZJq8FQKwcMHFnTWo92VS3kZqgNYNGi5Q5DxNj2a7JQigBLCHh3FyQfRAEpzwhh4KGeFXfMfORB9fsR4ESWQ2BirbU2xUSgqWqn1lq1hAY/dTOESmwrJQO1reFBTGVeF9d0SCSt1waYV5amgYiyFMyiUqEo0JSYLfRCYfAki0rvWGPbjAcWiMF6yggCoV1a3ZdDhGiclyh6uyn5jFk0WdFmufI8T3iXPFeFQs0DbRlqSouCLbCtT67B/bGiqqJPnYJnXFvO3ZE3axI3sSSiJxcFAupB7LCX5XDbl+cfTRMtYCgIoq3wDwazyztzAuDZCwPqa+wmmlI2up/yOlioWLez5iJ624rEoKIjUW83hVUJXPPhtC0pLinHIWvAdIur7yWYuVIFJFLj426s3MqnALB9hYY5NYChA6U0U5eQ2tTIEBxBbyBU3Q9ES17FZCF7GrALYwarL2TBfhwbEU23aTsUQ0KFxls6U4uvsTGUouYm966YKt8bG8AKVBXIrXhiN2luoyX2mYAi93wyt0GK/StCGsGCsr5eWAmosHNvy/wAEo8WA2p+CWmPYLbyzYEFG1qU7IEv8BEJ5wqX5SilgNLF9/wAMos6h4UTVYb6nWn5YsTW+I9oT5YfTIB0IJdLHBLG2NcS5w0hyJ21B7KntyV88/EH/AELgdjKCcJCu2mVMq02ZItbhAiC7xZ56KvuPQRTxBE6nDXc5cu+BhFrySiqytqEdgM06HSvrCluL+irMOFwOPqPDiqu4+BYOwlU6C58+k3tFwSn/AMIhd7QaTdvhKNZBeCKsHViNf9MtJm8cS579aKJeRHcsHUo9BGqyBdNPldA9sKQCrt+KAF1Zcbq5W0Yq8Og+IrCZ3JTD4BtdZ9NkE2lBQWDUFiGpTVwNUPqy6KFANwKSks4dYBhKRklJegBYNzqVOyKG1XQDHSolHgqKk47ttspl9CatwRRUU0+1oTawSzgzvz38KoSm8DbJ97Aw4RaNPZzIirhIp6V/DrAEQqLa31UUtpHbG0UNFzhlLIPgnIrVOXlRzV5YCq6hMEiURZMN4AFq7C4dLAwFF49V3wjyw3FfKuuoAeTVnS3RbVbKasIvwreJcdqNwl7GMkJqyk34ZdoLzrEE6jeGXG5GdwsGeBTwHrswp2uRlmwSeZWvCl00cidBtvqEqgYLS3fSgCCAAaJeVAk1hupEPLW3C3CuXhV/aMF3iMbW7qXHOe9mXrCtRRZaTLLOonAe0DIGiK7FSW9Qiq2PXct02iXlWNnmkzL8xCKVaIsStX/quq8wHtPBrVXAyl2ZVyqWEnVn0BFYichiy1FbNrW3GRCuJZeVx+JGPUVHgon4/sFjdOguuyWZICeNr+pV1QXWJRjXhVnBaGS0lX+EYij5q40hEcYcwlHkwnSpLF7FD+ANiQsr+iVyhvoXLpvudEpBVnpPHfgYRBVV8seFWEkH6uVu/FsrfaWkeqKXiRckvM7LYrQPxPnBFyF1Er9QtQNbGloJQMkVtqI/AgZjpPZ5ge5k6IWFiXYDK9VgxGAih8KiCAnowhbktBYQzwEdEhZziiyXvL9GBCMilOuLaMz8VVIwKvC6iOJ3Vj0WIywEbsu9ulC/mLLshB4IuODYTMys5u17WQi6YQ7tENIU1i+hwIIe3ai62/sI1q40tYn2dY2EkaXnU6+LI4kw2X67Cb3oGz6o4fWACNs7igb/ADVQ07cggrr6b5qBhGj4ZnuVztdWVD24VmUeTfIM2empQ+pJRWHpQ1jjrkoiCzxrmLeQtGqgBD9AjLrc62O3qOy0CK5erjoXMvwLNA8UW7XrEPf1rYPMYoYs6hfHOt8IyKm3Q2roKouXfoS2sPiru3yRWIsugIzgAg2biHLq1Z7bekyE/Bs2Sugq1fl7CHFIxYAIOcOwFkHBHNvJ6I9xoy3uptfMh0DaSFgKvKh5RrqgoC9RsbSwBq17lRmdm7SadoX5AAQBAByqW/HtVqBcMB0sE+U+Sy1ZB762q3Kq6lF0IjrYCgOo7FxKy0FhC3dmnv4SrZyLR9Huwht65i0vIJC9EprC4AgT8GQylbKEX+2Gw0kJL2qPcaVV1FSLrash/XiGA+eqWYTT+MUC6XxexujsC5Rh/RPEhEpFgb0IlxPVukpjUuLoW/7C/oyKUfuZdSJv121QcpuwViwFdK1Cas+qAWl9l3KakDkS6eXFgLo2fAnMofRsvUyK4p7bl2z4qjuVuvyQLAzDGIDHagN0C+Iw3VQegymBEeJior9Ai7F49VbEu01FYRyKJM/MS65kJb9Uy1uYAR1fuXV7yIcgOGhRF6amujtCAzSmWwFmpTu2jKn4qkb0imO4SjRTRO3LvfAhDbR3JvnYKN1QPdZFvypKFhqzUqrD2kCVKBARFGcEYxiTJIqnsVKR6FmgsAaLEOmfWe0H6KL9SxVCLNtxy2w9EeMVHbKrMm2AE+qHgTFr1lUPj1i1jwinFBQKIM+Fu1t1jCLdpVFADoWk7rNca6TxosQ6fORuLUQ3YZ9gFJrqhLpB33Ur6xwpBl/1A/8AY0bO53sgiLiWp9MPfaxfFbFpQLh8thFr4q0ngBfs7Ae1QtYpL9ZOlTEhbIdVriQhTWNpBKrguhl6n2W1o6oBqBDLAKtqeNmZUa8wensWizDEI7U1x+iO+YkO1yVx6Xllly6+z0QyIxsVoyADgLavL9yiJGBLU4FBgl+UEL0kgOJb34S6ULaXfUXxMr9QtSDjdEDpVEO/TUS0LyGmnlgskU9CSk50HylYVHTwlMZicBQjsfT9xhlJVZhZHnTkp6oleL8j8owebOzq+Wo2Ljbfh4D0QXM8aLIvAZRdQ8wfEh1lPDUFbQPMCruCa3hFlBV3WKIyF0j/AJOepteU/gyMWSlAf62Oi87cXG+TN1GWLeA/9jUPWXcF8WPbbAkD6T/ibQB0FWVlfmwGUWjPb4RUPso/xUWLn4D+ieMNuFEC6i2q8sQ5V4oQlSw/MRB6KqPQG2pMte+oOBGxVHZ69SruBYGOW62jtiij3LEOFNVUj+IzUP5v+4jV0COQic5YzDoa/wCU4JrK9CINRGNizvyxHe2dhakND1/GMmf4f7m3VN8JMMv6mN23CFjJdG/D8aQ2wNAvY5QR6NsqL3FdpN1GYxKgNot+B8PSWNykFk6Koo3m31VVMh8MtGeqOWKDbJ8WlZQZcQXuW33ku32zhNDhGu7A+uBG54V7AnzPgxnZP7PjEFW3VefuGfb8fGzqwSbXxw8p5iEkil63pfmaACO1FrHAjI1oe/7OK6iWvFqWy5bYnVeDu2RgQuehyPxbgagJNX9KOy8TpWlhHdIKeMekebmOQfnk44QB4pJgyAKq8A9buNPzFYVSC1g2QMpAuBBK08pvUSFhEfEuiHRCw+uEPEmw56EOlFrWoi+oAHa+IYZNWQVqu6R2XqkhwmA+ApcIzCLg7EcPu4GJqHCk4zJsboZTTzKUYoi3oPJ3F5kWQLwWheUcl2JZ2qPVvgrkMGuyqcUR3MrsQcTlgNeBj6jazBXz8ExviW7W8lB9ccg0Kh3VoWr4MeTllYXMLGXnfkLahjGqjXgL5nj3WXiLqtChSq2gpdrxAxVsSwD/AJEHZ/DUTWw5A99G1pX5WVHsdn3z9E6PB8o/UdfSgmiDhVbCh/qPaOnshQWV21P6JgID7tC/EW6wRwRnyq/axGWU/KbLB9rJZduYXGcDob0JZLa6nIocONGKNrP8im11QXhuN7hsddU8OV5Bf1AoPw1KjLKFF+WD23qKR7Jd/R8RYwLT1xBtko/wApVLrOvks9Ru8lmoNSbUU9Qqx2ctvPWO2ccUaNQCVS+YgDbKldqughuhqZsdPYIlY2PfBA/LdK9E4xXVt1A/D0RWVLFxkErRclZ98JHyJBNoNEfUa0++JTcstXDwoWo1BSuXJ2R4rlSqsuNKuiaYfJVwjE8EtY9vsPaj4eIwlId56fsRYuocXsF/Td431244++DYFgL0ZrFLIpCGVntQA6qtK/RoRFSIHWMZzVsFmtQAZgcoV9nEgaVE56pwRRX4Egcz5Vj59jGL6fiuiuAWBZXvHgprBPLIZX0qdFQbRzxEaE8KWF5NsyqxVIqY+5amMSHzhUywmsfDkGctYL7oQP0keAe1qyxTCqoan+lRlCyd25w/cHdUjxtpge5R0PYB4NCufIgkbFqC6XaEqlonkzIwu0JuUqD3VC6+I/DXIjS29shTraYNUQWfbiCJl5vnHKALEgxdGOhSFVZXqKjQQ9JcBArQTC3/ACvH8kaRLZl2y7TsXSkBbCDF1/yFI6JoCFy0aO393L8L8Av/AKxyynub/wCSibLSqV9anZR7b+72JUNkbLV/bAha+vD+gi2aL96/+xxADwLGzzJktfjIOlN7I/8AaQGlPjaiH1OWgDyUvI7aoPku/p2PKhDQByUusFhcU+EFqP4oVK+41AGQ7FqBans9PJjgsDRuxHGIoXi/QhbfSqaRBgwe18QdWgpEEChQEVMAz026Ql3qJPGR+nIXZWLUrnKeHGPVND5FYhnL10Rm4CkToxgXh39KL2btUHZeRBE2szWln46kZ37surJTyh4C+2Dnr0G0xYmwGkHc2jPxYgYKDbsSKYmgFYnuoV21cCNYwGuvwir/AAdovB6nBI0IlnNWwfJeNYKMSfuLNwFWy+0QP0oozwWU0Zcmv5UI8FZWFIhdr6LV+ITIOi2RBOhDmBdKfYuURvL5aRO1mToG5mctuW0VWbfMKfSyO3emWULa9PxBqoxBQPJHwxsScNIlFVrs5AMi6HFjDdq8H7JUJsojXsbqMH5qBc6Rdk8FyuQgazIdy6TaBKzVWqoHqcAZ6R9YXyKt8I4kqAUXNgxgmLiqwCFCsjK+pDkcD+FWFpQcNEqUyuB5KmyLQno2E3PRF+bFCfrzAnCOnF8NpBvV5y//AIQCgSalrerGotXXgKboNX4mfCtICb/C/wCE3tbia/XRYsglu0B9uSeyBaDzGPRZyGLCG2VD8NEzFFWAP8qUQZyq/wCsZS009C3f2y4MI1YGvxSoLAFbV9+RciIOIL+7jxDDR4v7KwQWAGBp+IMfnnNfywYwX1gVFdAAtT6xh44Fqhql9mM7oQrCiO7NIV8GkUdnVtgtCWtIkq2WGAyjaSyC72SsIsJrUNkVw8RXb6jZPUqXlhfs8OpXgkZwfdDTHUibPzzaPgmt4CkPqL1MKrrd+iVDKeN65Aid3PJC8g69xFBNJ7ep/wDt8JBCJWy90lxCAftHfwg5sSDjOAg80iqAhonGE2fC4vVIiCIVZM7K4hdGIjRmR0L4Nkco9OJnFNdizZDSRfmt4v0MzHjhDBi4n6Y0K/MRXCtDxscT4wAWdou2Qt7caHUalGloJ6XhGIUA4pjQvzJLGIbBgO7aX/UOVj0g4qJF+jOuOJht/Jogv2RpOpAC3xKWX1oLHSh+idICbK+W3/rEuQFvZS1ZX/3M8pjVBNITEaiDcsI0CtqeECDKBcaz7jpim7s1x8VH3ANiUurFb+glBQXqGtEe6YGob5lZU+ioCr+UsM+NqyT8KZjkIq+DV0XcEJDbfPNUpi0FprS36sZo4rrQ/wBuxAj67IU0Kqi19uWtbkquXP7VVR/zIiqsrELhVvac/wCUsZgX7dVVv3Cp2GVagE7uBUkSVRoc4Czf11PYhFEfiwKkIh5qOyjMerTI+pYyt3BqBEPpcw7xaXDBNgqigEcptuGdBkogVcrYPUttM4axXH1DTLn2h7k6AYP0KQvuyAF6/YjtvrVggGepdoZdz3hxCOZdqPGhwETUZ/ZjFVngQSxRu1oGEMWUQlzwIhLQtu0YEVwBA88dioeUgCN6r2cnvwcVpeSwqhJ/RAwURTHVdniNxz4GEkKmsLqvmGEL2KJYQ75k20F/p6liFejGERqB8f30i9oTS9kQdSP8EpYr9UOLNUf1bV+eIgD5K5r2C+kvBimwjtGLrmUx8LH6zBX37iiWgoxi1U4DY431WBUf9+6dx0eIEWL8Zl2QRY1WarMubjpccp/stXD/AGzJYFP+ARdUEeXDAgxAbIIzKVUcot4inB3QKqlIajUAtPgnTsrSLli/S40+jorT0WzIn12/fgiKnO3K/KYQUrtFgX9r/wBnauxeJzxWwH254YfPqGUIp+oGjWaaDTuz6/cwhQcF7gCE5gCCuPd22iV2nBXf2o+nRFrz8g2EvhGym0PWwepW4iwFuhHDnwqgrVxkLWviA5qFQQnUShRDYaclZOOxaM3Xwj9fSN4G9gWVIoXfDKDEuysIJL6hnqEwB+EsuPzZspB9SDFwoCJ/MtGkQ+YibrPIEFCkrR+wwVoPkW75OmvjD5Suh1gI9cUJa3O2qKuT/wCGzkR3Y37g4pbvD/TZMTmiZZgyqiwjGC0UY9oSfAqat/apqPgktTPy4Fhkq4FIe1S8WYTwwIyqBYks0nV0/vBuPdPK1YlcVWpF5lKCTLRBjfgLXhYGKM4oAIdoK3csG6Uc/ps4x+ndVXC/rKWwKCjdJf2V1luBZ7qZMEaHIgVVhFt6fwhmj8Iq0VepbWqxSwpHrcwP32RYGjww2cvnlTlMC7yw2ALKnZh2phrDkcr12WVch3mB4LgmI33Ux3dNCA/xL0emrVw85KqRJq6t/tIy8NdXH9RYt9LV+mO1lloNP0NRWwZXU1vMSCYtNWc/CVKCjXVfil2GAhRsZ96MBQLyVodbpsvDX9dDPLOmF/l8r1fcSy1kJSC7+6yhyBvH3EoHex8MvkPtgFVrYtjh1B/cQoI29hYYXBFcPY13Zv4PWbcXMgQEaaYKV8Y4lGiFjRiEVBbcectAsugIsrxCWvdxKFFixiaSJY2V60kZ4ZCGolLChFfVB5Y2v8pjKYZGJQw257GCN4wXSCpBV+prYNby3xUJYXjs3dqgezQCzsPDyFoF/UTbdGDNjdHMixZ2RH2EUOURNm8cARKWzh8T16HYSIJLI10IXBp/ihVWywrK7AwJgbp6IW9IAdbl7OV+hBaV1WDUCXAAI+y+MwDv/Yin4CBdYEzrL/MzRfSLUU52TNpYn5YwsFSiACKBbz9syQqJLekNvGFIbIfIj4RuGIWkzYQa4WMrfZtdJdqKRAM9kQNloCih8xLT+w5+yZyLUU/0A2BiEU7f4lkOWNW/62LZSxVvmMoEm8gDTRGGa0BRs+mB8SG5OheKjlx+HBxPUEM0OgLye9H4jF8thuAQbNhiLonNiCQYYnqGO9gDG8WYh32pUw9CJV9KIPQY+BKubUygjX6AwKKZnTLIY25amvpKtgfnD4LB5+sYOD4g4Gh7lwpiDjREgAr7Dp4I822E0YVYK7EIba0lQAqrdgjzi94IV4taLAQF5TTfSWZhN4e+Yi9rpk7pPC48ZPCCxs4Qxk5wNVF2bSlITSlqT1ShtNyM/WPowtFis1Loj5z4sYxtDLCWSrV4IyNX4SPc/wAiHWSet/i4jXvrv1BYMhVoueQscUzfhgKu6Vus2Wq3sMA89wlbx5bCgNjFGASgbEeFcsGAWMABVkEGYldWoym34jNaeJZ0gh8gxpD9siQEYWjABhyoxQ+l5EjVXaJvzZfI3pCwH48wAIdNVDftRIt+sr+kYeXrDgQ9oL5xMr9YpPlHvKzGo7KsJ14NQrzTbFa7AhIJikp1EhfeuRLHjkW4MmEza4zUxVSzZfjCp5KZVWWmNdZbWnsIuAuwuCfE0kVjIgeIclGJbKBjT1XRpl0sPCiR8XYVX9JgGq/rDKEnvKIfCwB6Axa/n2BKnqwGiMR14YS2SOBgSpgCBZ6YvGf57qPzqKFkARdO0UaVNq7HCRq0uAU+7Lb0YM36WjpdqaQ87qCFRMVYoImiWu+YZJ6KjoKigSw0NlMFiwG9pmgtpZRWdgZeYAgGUl8Uo8yvBaF1Qrhd+bGn7i2Kr0uPyekJC45BISsW1lRSFzg+bmpdpx61yIG9iTKwDYTfEygJtg56jZRDz7lJnEXTFQavO3/2Jgg4WHcyxq3+qiADUG9OWjMn9pTtxPA/oiupcO/u569l7KFKMhaVpqXFFp2Bqn68x/2O2FKjOZ2gGA8siaS3SdS+8x0olKd1tx3tvE4t1CwPduItAhXwDIQIXMLSyNeSw0TLtYMpLIwVeMJg4eDCX9V/wiDwSGE/AZeKHpbg4UqU0NhshAFg+CKkCwVI+EgIafbPKMKL3PPZmex1dT6yvCyMfRMgdPsS/A9jPhHDWMqQqmkO32+spBH3O+50sLchUAtyOQn9EwYhzFEUqj0IRFhfKrDrgJQDeMw4pNw17lXNzXpUKAkQgfh/FNtSENo3CuxkrK2XF9mb3tQsFAwQSSXjCMOpStdalFmrICP5A6WwjCXXY3xzxKxogrl2Ww7w6owjLfYwgEJvWJpzg0YuVwKjsZjXB4IPkZCv8RLWhHmWxhqrwVKI9Q6mVFgUwUg9Qga80DsdG7eiHsaoDtAl0D7ORpAiw5HI7SBlS1Y+WKqFOQKFLbC1dydUlvkX2rxIq3kPBQQ2wGNCE3MIIKrrYJ0V5sKSoQNQPWNzszEQMwiQDYXzAbcMhzGfUrGYTgGN3OqWxxTXLUTAUjxDQUTGCCaheWqUcfgQgTZRYQqMHpMq0UCLCF4E7YCW8Iul2NIEt8jwSpmi0+WXIqcblwoKNplDvfcdEscl6C06RMNjKX/umw6Mj5bjL32l61LKBFhar5jhYln7wgUBHfMuVEFUb6REoaxugRCRcgB8XmORQLnN9j9bCBwoK4EKFj6soGw2AnHIDOiz6/iNT1+Z/wD5EJFCwAqcnP6iFhZ+ZQKKYEFryQLorYS98fx1cyKJh7G4i0rXATrw6IpKwuiPBD6KRIzQ1DIrrNNKzGPqKZ0xEp5S1WzCMyEexXTUsqVUALIRmpBVd3sTpbl0HZ9Cy9KH5G+u4TEA+YtBLPMWba47KjKGBLMuBX5C3D9uau86YlhBT3PHlIipGJQUD3yP66N5T4jhBHDbL1wSkTp2UDacC82TOxObBSsYjmBy5uwQiG/LGFSxgoT6ohgUEGR0IQLlxwE5AQTfserSzseRgWuSpXpEVSK2xwCsIkqbBcFVYgB6RIpTQlkGDDq0IQBW7cApPxHSq5HAj/hpB9TUyO0tSLQpfoiJ6/JcKdU/FEWxR/yXWUuviS61ItMYO7CimHUUBgMuJjPTgojJk2DGompPxE4osELPDNAZUDqVZBfYg0c7FGMRcdrzSa8XBtgIGUSpb+IN5yDeesuAizGdlVdYDaaZbyiL4Uz0wao+A1EBKRzMENRAiduRJ+Fcp3URCfpCHrjpPIx4Ctho0thg/lqJhXDSCXlpDDmPiMyUIXML4wJWKlBD4WxX5UgwEXRfIRAjGU7jnoGF1lTAREbqXyixWrHAalnLqVdl1n1KNXFQOXUN2FiKYmPyG8ZbtqYRjWiYOCFtRAFAIRYVKYQuIQ9WperrHzkZSqiBgDscAP8AYSJUioHKZsUynbRcMXXWxIVqDD3nlFGxGORDDrKUWFV5GaQ5Bpg2YvRLK0IYhjBZAHzML6miOi/0wga0y/h5APg6RiKvqMuAZG5aiHfkEtTDEJ9RmR4cIpIbCMaxDSwoBGiHtBANqoiQG9iimvpMtqYw28rLn+Jw8eTToQQUo7kz1KJcsWNEsJWkUj34l6m7JgFtJUFSjGil9TzeKPDbsHIzK2WLaGMQviAR+nInpjDDDRXsfMvGFliyvbjoYCVtYsXUJXKGXA4jHRq4EWLhSdCoQCgEEwLAiy/eFluuPEO8hkl1ARYLCjiSt2iFiNeFTHsdr9pOuQVGEiJtweGVH5yYj4yJUkYWkrhEQ2XzaW6ECAH8RbfjeS3aPjDJ0JXGsIESFRbYO8awVLZEmo1DutEH71mxJaQgfF1Gs/1HK9iksJrKFZCPYxjTcIGLAYLIXhlzE7HdYxbWSohMjBYRvX4YmyMtlKIsSFVOwI8mK0mS27BKvILdXBhpQSie2DJS82EoBsocgUWUdFQQuxUqC/EFCDbUYWjAxBcpeCGFIyS50KJcJZtUMJ3ZYjRCiagi4OTyk4hQWSz1LFZWNjTM3hMWoLzJc/e++iMHH3D5WJgW0drwLWCCBPBKwx9CFaNIwiJOBE9Sz4HseMJI1XWPtN0IpqRBoxF4h9UIQW/4sDAESJ9AiuBBAqlZzTGVWsoBuAERKrpsUIUEI7MX1MJP5hVxk3QQrDAlXiG1vH+GFzfqU6txP4sblkUVs6Ed+QtRrpw4l/YlKu5Yj4IXXL5CKBHcLaZVKxyl2wozk8aMiSRj5mZaI9Z8Swl3YxKYmQAFjmpWY5lVQYJVL9DcE4MUG8uQuy+riruV8kHFhGfz7GGVitOWi4EbGR8iusl1tIDvz2YJHS+fKXywMqmFeQLiKkuCEXSGlaxid1DdD1HbKJsaNkKSoDjcviH5KuWGFanFBI1YVkONQmmRUWyjUA2GuIM4L2pfUUl4SLgGdxmBJcxbt/xN0BlKoLVhMvK0rCB9v40LiGJ76iWqXFaqipCMGfxGtu/EuO4g1C0bEK3CRUJFsP4WYv2wGLlG1IVF2iVTdxVIB0CONOSsHIAXUrVLCLZiPJs2axxiHrvHQtx3YYpORi6YS/MyPcg2sgBSZYlLsqsxCRsyVVHIBHgVEvS/NRBrQgA9FREpY8LlxsrhMg7ELeh7gljVv+AqylE3CBDGlJvah9GAWzLKhLChOegjoBGMqoq2yHQWEZDmxmVCeW4dSRhU7CXMJQy4oI8oicm54xncI/rlUAKVFrggQBxkA6ldCCKZ4DG0gWjBDpH2DBqShMzZF0hFpiMCew3Fnsyk7PrPvBRYTBuK0YQA22XlRemXMY2LSvjseIYKwZ4iUFqcMsJQmVKCVcJcVCIVGoXUZcELWOgKzaTfEfKimshej+ENlQF9uMrq2P25Dc0gcop9yl1b26yeMNKoREESRbh+3IDVyoC4hbQipyPDvxdWN+S6Ai6gitCIrAhlM5ZWVKIBo8JgfKw5WrLS4ReII0xgyt6Muamzi6olzjG9VkX+YuW5dvY3ygkYisHtQd6z3GYMYnjZb5l/bFQ2DT1lPWOKFjr1HbgXIUdxjVcKYnFTyKebTsRmuAKsSrzCqZDWhAXkr1JWbWNQGAUMNc5dWtloBCOWjBKwQSKAycqP46Yash2eeEbBbcvXUbG/BhUaJkEhxiM/ggx/gUSuhTI7bjoxugbclEHxELpMMbEua/ql6zF8QP4ZL6FEpnUGrYgFsvezLv8Ag032HHkE6AniUXdmPcJaUZZUP4h3BCWhBSXn+YfygYdMYA5GQPDKfKegzQUy24wWcquHpZ5ZG1ZOrEssv9THcUmZ/wDlU8Ef1/CvgQBtSlktaYsMOOym7YFghcBoVmI0sahPOL/MrsIIR8YYchI+EFwGOOR3DU2BfMq5/ChTGWUk9i0WfSH85HjH+K5pdwHqE9QmzqE/ghRCVycwn/4BNv8AzJUQIDClfSNzWK+2ZNZUddiWaxvtgt9iajOJ4Tr+BKMlDiOmJccR3z58Tf7vU15lX/yln/ym7/yj+y9R/wDhTD/ylh7vUsf+E/8Agp/8tMn/ACn/AMlMzM0YeICuEBThKKnhG+2C7OYn2w01G+2NrrFV17DXSiLFhFWT1EwYhMyE38wnrxCZnme4/wAns4nf8/B+P4uCcJULasnUZ//EACURAQADAAICAwEBAQEBAQEAAAEAESExQVFhEHGBkaGxwdEg4f/aAAgBAgEBPxCYWjGAuIou4AUxYQPkXVW+I5YbsBULKIAIgkzJQIhKgtBwQDhDCpBIcmTLUSupqwZEsHXUoNIHHn4CEhm4CKwoB2p3yBFypj8GE/GRt29RznLcWuhmeH8MtpGZctWWxVJBZdp8DmU85eJ2V5jsQrDrJpsrZ8F6ghGmEwxpx7hGQq5QSgZg+4QTqaL0sBED+JlcqBBq4nHqVZUMcZU0zT4WBfEIV1YN1g/2INAlSu7wSxhsCARmtRWMWhMJbixfi58EUtYwsmw4mRDIzfFD18EVkouXsiK/H+pC6ipqGVUfbD2TgMJceYVJjKhcz7ouVi4V/wAKWK71lkmoTinmG9cGqe1lnFIbTZ7ZcA7mlkphjQRB+CLWHdmvguGAvxAL/gSz/wDF/G2SHTKKg5P8jKFljpRKcI2ZRIDNBKJbkSDRxYAeLk7Izx1/0yM7lhEO4f8AySukubUwAsFauFwEIgmttJypCyemFGCwzAnC8fHrT8KWvg9EAiEkRmxKHwsuLS+/m7mpUxZLg4j3LQcJwziMgS4I1p4mpaEpFmUhhUG3bCyviYASP/Ns511RzGT0BiGkGsvFvZTF+6TGWVh1vuC11pKXiPzXtV+K/CDdShJXMkfEF94hBeiJQVb8TfC/EfElJGz2VBKJgjCtIAmkBCM6CazqC46E7i5FMZCLPiD4DllmZaQADXwJBuG44sdc79Q96IkZB5/iyhBUWUy6h2xJrR1cBKcMLRMLBXBoxbLobUcKQcYuNtjDUYFsbEXaRAocj6YJKsloBs7hkiw62rWqjIm1dm9atgREoorHLAORlKjCPOONnJRLGVBAVME0MqRtAlOIq7AR9RQFfHXUB0ExtD+PhlT7Av8AYTXqtMUGUIQyI7alwuCKZlywdkKp5xKSkr/dR5kYCQIWolKtYdxt7UJBVgYtqciDBjLG4b6lIov8jLEFPECrSN4qDcwm3JVKaJd+TglxivLEg+0vA0jDziIC3MygRAsJCAxg+CgPcJ6vi/rBLXYVApnpAYKNvuZxbFDW1RBGLVKaugQwhwQD0hemvyGKhQHi5VYF7JbcAFFCqpae2JyMYATZPbKz8HwEZezLdmQIHuD14l0WqIG5rXKG1RaFx4xuxqB4ZC5a6H1GwjIrzhSd0iR2LlvzCRzK+mXjTAx4L9TZ2OfE0BClqZPFEaiR4z7RD3xAlVSlh2rMDl2YliOz8iLpLFCB7qMGWlq5KoMQ6lDrJf3GEoN4SYf2GLXG3tr7YLCOvac68PuNt+O8tt53muR3RUOruKZQNBo3j91KUKoIXSUjJx1DA9yoEsjO7mg8sNgjeYtikCtAw0FeolYFfQ9QaOYUJ6QYetdqYxxCn79wAkY3AOYFqbBsHUfQwOYwtrj+E4qWEJAvMjLwDRlhaaJXRqDIHYRAXSWE1RbLV1TzdC6ZBlXCW5yw9mwZmTJYN268UEKq00j6ZbGB0c7RQF6jI+l68rr8SoEGy6wH/YxBrC0tfRKgQFMFr0p4i4hgb5Zec2FReWLN8GDSP4UckBNvYYS2rV9J3IYFyoMn9mCK6gqlFAEDCu6tBKI20O+Yu2BBzmyklgx7IYGyJWy62OvcrY0qILFdiQKtrjKFkYcKixp1hu2H21yuJ0UujxEAgSwbDEi6csfuv+RxFoXUZ6LWMHosvEuEsQ6AIliugLDp41haa4gAmsRQ2/qhFMdjMMDuYhd2WjwF0iyrggRqEsRmQLHDxEC0dN9+XYtTRYXdvUMhdcOXjuK+Fu6AgYqSmw1brzUoUAKItCztBUTaG3YJ4PmWRlqCh8WJMsEVJ3/RpnKIn5UOfwWzXXWB9sq1rAIPSVCjU+8w1DXIfTrLsFRScOGLnBgBMlC8H/7C4KmJYpQ6LuYCX/u0lZWqUJyMGusmaZexRnTEkFyouTl8DdxUHlFl99yP+xj1w5mKD6loyvYWFMRsa8A3ifrZOCKUbKzDBF6PYCNazLK/ogaWi2i/Z1LyvBBbXr3cUtdDxfRnAJdZVQPt4i9aHXnoFgoJhGGCLuRxNo8eSCG5QInBdgPuLprvRej+M7lh2K5rj0ZpZpajZ6oQikmEMeJarKFCJC79QW4z0xX8S23IuuCK8gdOiLMYK5rzFSpeRi5zOd9wCEFiXRBOGQBDuDN4cRuhFxITa6LjGgFRQqDBlAeowZigIRyrQl820NGgeGFGsPuZCimBX1kNHUpdDwLLhIHLqyC7zfmwbj9lwq0zSyCS4AIHszthL6At4ytqC22ZUmUGFn0Qlk6HAP2F9bLXRL1/Njg2C15YNuIb8MlpbcS3RbXplGFExwfYxSVNkPxkWqd1e3BxorYUh/xGNWHPfIAe5V77VT1UsSglhKqYIHAr0R6mn6d1Chi7JBcE3mtxENvb7yNbwsJ74lN1PVm31eQhttFtSsekStL5lAFKZc5q5la2clpX3ltQmUwjNIChENLwwWmCAUwdayUFKVMCCirPNd1ASpBV934hi0ocqrGFJVgR9oegeH/6w5c1LqM/reAv9l/QsVfa8EKCoibBLh5uLwDyIf8AYWVB4wfUKQkBFURdU8ZRGRZgpuyuCWPaCinkxBoFHis48A5GfiIFtFFnjuIT/ukO3HEWI2LLRbk50AEb6j8Ct+w+XxCtX0wsBnYFc8RgVrTXEdbrszkg3KY4ii/MITrz3KfVfOPirej1HtIgB2l4SH6FgVVD3KUbXKInAwqQ1srMlNdHI3RDZa6dSws+ofrTKcW7rdEQ5rttU3DWVBkBfFCjqVPRifS9EtEzk5uWJQrk/ZkgUB0e4Roi8I09EEjRBGNbqKsgSZSxQbgtWu7xElUEM6iHwCAi0o0iNF1FSpseBco++0l6CKHKjU2jSgHeGPPQbzHUJIINO/DFJ7PBBsNDUIUIqPRkbuLeoxlq2Xzcf9Rb+HEuiVXiBnMCDovZLxs9zutRi8HglYVrykeKB2i4GIoOijWNvEQ7NuKhfDLTXZcHCXEuqDHjmWjYJDsWWOKCIhsjcXBVwiqXQ1+phz3mpxT1YltHvzV1Ck/YMUKsbv1Dbqn0EQYPIp0kuFvXeg8ywoAUd6w5ZDjqobgtRChuqwwyFEuja9RVNYI+Sp8geYettWBxj2RMFpasHdQbTN95vbwwjaPWLrEfdHENV1B1vN9X0BiCog1tISFtk+lh5oF+kQ1Yy2o3cLS+Qi2FZf1mYRVbsB8aD3zFx0oEexKJb6h9yePgx1fmVj4TGAX7gSRLsZ1SOYG84IgfLYODqyUAOiNEC49pECDeUu7aX4WJd8CXqF1dXDewivgeWa+HeBWlv8ibfgNfOK10SljqLt5EFL2lvHVw1B08FvDGzAjThGMxXI4GwsuTLablbmtJazR3/wCSsyZXA0PuplGcKqAV9LHikiassOBMj5v3GoGgOBIJkp+qBGKwK/y/DCqP/qxjGrA51h+sUV6PNsBf2FgyDx3Rcr79sqbFauGEtFRUDxsdJbD4hqOVcT21MOo0U5D2xGzVUwRIwy3IqlD17xcO6Egd6NkAa92jPR6jV5DRKRQfMVBXyl+v9yNKFbkwTLQ9F3z1hLOoSIGw7YT6MKgNCjd/cdCjqZ9KdkyyUc79U+IW/wBB+QnMG9VEKYI/0YQ4BN+IKPSwQ0Nt4Y8UKasMM0vovUucX2RdKwhelaCrtFeRsOr7feR9gfsJZxCTfHmX8Gre+CM2H2XAhaQ2/iz/APqIA6wXG8tTKe4GImDM1w1NgfcSzpx+xzG6Sme9iUvPNRlE3lnT+IpaN06CI6X8RjLbftPsRpZAXUAuI6+CFzA3qnvolukY+pZRmSCYcRwpR1CYGgPpJY7mg5BOIQpDgw966R+xrLBtYJYnrIgH2wA6dYK5ZfmWI60Vwt3MBUt7NX3CsmhlAu+PZhPAGrd02FvQjDoKtXpm9NM6+Z+s8EUq+iG0o59zPprdR2EIOrFPLGCTCk3dU1+5UqND9JvXaRgN2yUo3Sc1PmESLG8dIMHywkhH7QidRRcO6ZugRNek5Pin6m1cpSq9o9IYJTWscO8GXAGuIsNjlj3VoX09EOYn3zAplnKy6qT1BhK4gLOo8VhRvZAs3cRVKihlhqpWGD6sCGk7F/VzcOnWgAOl1HJFv9OEorZ/iGCrJKDhsYWBOAciZUKyXu06IxBlsfEGIIG3oHP9YQi8L5joLSMgrTp5iX4V1CL9MMSpC+4vwVGNwGyapKh5oZQI1gfk234X0k1Wt5+4OL5V9zVCxYHe4qmR17ulb+y5zV8hwvsVLyq6fZiGGIqv+Ro6/cASNVYB4gwj3dUXAE4Kil3OAVZNtBEfc73tE8GOJwwDEDzxNwwL+/OZbNLS0ctgk/8AtOcyrlCboiBOxUTfDXYC3eaZobVsAx1Xfc3RX/NnCWXsJG2lC35RA1oneiDHhFOlepSRVv2QhEXbyttzJjQqAAE+r8lW0SUh6RXbe2IQMDACFQLnPWYPtUHEEl7QkEU8lxKlfBAFKSXE5yEu+RjDTDkyfARzYo8VZunm+PqXa1eV+V6glQ6boVrqE1Kdrww2Nqx+pZVgoux8zQWFunuo46Y4RbOh5TzpcZ1BANYpttgnR4YmTzAlwlbKDOyonEWgOqwoymI6nW4p1sH5gF7cqnDt1Km08vk8MTlu/E6SDS5ft7bJue76mAYFf4FTFjIO4g4DIOt0uKWiC2otcQsCC7LqkFLSw+KkvQ2ahqI9+K5i8grKlqoTtHi5iGsMQTFo/JpxtWjuCaQeYEScgB4IxdNkGFKixAmCo8jCJDToVHnRF31ADmLvdiTBAOlhtCq4cguXlWLDyVoJ30qIiU32h0G2ATn/ACHgcfED1Kaq6QENF+rIYGlDxGqMhzktL2EQXaZv5ulHCvhy7SDSHAFKzqkpFJV4DQ1DPv2SVUxkboiOAigiorKICZLQqCStgVrKAISuProa/wDYOa251s237i0tULWtlW/EWo1S9jzBUN4L1H2Mb+0zktwfUpL6unTMKEek9fU8WTl78sb4oWKITHT0xqHjI68gjElRy7GLXAKfTcGgwuBZ5qMILf0/FbVW027q3kMiUNLkKt/gQxeFnrqv6uIrQ+DT69jFB9puT48JkUh7YC1Rev4yBZtFRSWuQw0DOR1NQl2obEUZFF8q8JEj0lvD3GAqqHw3kHseFcsfZSldkLIXjk/Lgd4Ud25KMFT+INIXUu5HTniaYQDpyfyP4MJ2kGTH60HnCxLqh/BJaNTU1J1KhWFBxbwQ/ADK6OhHAKVgwErKfcKC5ylDbm0fuVquhSiRzeETAh/IJVuD+MFXSVfcot+hKIN9Xwy0OfC01Cz/ACmUxeyq96h0MWpx36hI5TOpTn7ZcW4IC8OLxgPQRdHDJqFkAnTlRqcFUUAWFRwIolKq+/8AYAb2Pb4ihgPQ4PP3EUSlV9nLUpx8sZqNGCcwXsM9CKBX0woQNHzSgjhEADcYZI3U8QFjnXRThLZKawf9k7grazgCwbLyXsSkoT4Nl3DWlBwqre4rRmh+rcMHBPBIORYbUvvOF/2AsJkV1ubhbeHJhQwLHvX/ALBBg8mLRsUV6YVcRKkt5N/rLSwT3L5bKRmuUhEXh2sTyH3O6MvIBFphoR+nQ0ROtjEvJ1C90qKT4c+5SUjizsQ9hb0cMoKADX0S8cN+hRULijcg4LVpUfnlRFLXZBaLVAx2QNAIg+nAc7DgLiGnkctWOryFmTgD1AJQHxsTArUc5fc3KXSQVd4DCFpghpPSAUQ7rPaWVMnlC4Lzrpz6pg2ARWuguACsGwtzpIXCBQvyH+xInBA4D2+mCXlIJo7YRHEJPBWzVKgsbW3FYCChUAHiKH6w8JUC1tOf5sEPLt+2FniLFOYy6tWJ7ZpEmkQlxqBNQEvurY0rlTgtSngBGGMW5Y+ViESxJdxACcggHmJew0OILL4HmDTi4+x6Y5Lm0L4ZmnKBGhZmwAoDDKHMF4psLQB58QcpYwCoeYpBcGB9IkJhU51xsvChtdDXtv4lJuQbR8gIiamoPOPK4QmM6CNNDuEYCGuMaSpC1Du+n1F1KdpZocguvj3z5L4u4LKGjlc8nbFG5YWywUeSAF7vL5YUbakbWc1cu9xDjE6fbc3jqBJDPKoqAXkCWM5YqcSM4B7ArWBzDAGFwRSlTO9UQ+xLBe2jn0TmIv4S48viUc0JY5kVuJ4isSOyMx5hYliWrzHVbr4NZQpxwlEtI7oi9vJFe9d1xANqinL2hNCsEPVSvAXA3bzewuIzNmJw455j2FFswxZSAKILzbQShxYB0UoIRvxWh5KU3btcnVVwEWSvBt5bd+1lC8A5o0AlvvdFUovVgjLQLBGYKj4XN8WIN1CfJqy3NlVGUniHIlrwsIuk6UI7+5n1lML7a5oMji1Nlap1P54DBYPajsqKGeQuE04hZO+h1ZTdX3jE9mIaophA1AGVxFmDLYQH2qXcoAydD/YqgJLq5MZCi5YehKqjILhK9E0Rp8PU3/Uiigj9BDzAEqJXY6i9l4KMVMFYFsxr8cgq1InRQSzhULC9uXWI2xilB8txBq3tl2BbDM1h36JVkr3DVdxI4aZG2+5iAXDd13+sc6nK5+pa2VPc/wDvEbDQ4uraxNgKxcgwtSGlng8h78TIGqHfQPrYH5V9FDxGxe3ItcXDTgWXOVjULPpo8xVmkvXugf8AssWy1N1Rqaui1seYfaEAQCH9HqbOYt54ZfrDMnUXXiEubV3KMXTMFb+CNZTguorbuJgi2KLLuNgFEUuuXuUDSHeQAKLZVBffwLUPDLCdyi9O7RvXQTe2LKkDqL0yCyasaK9XOcWAFqvEsp/FMOJCreFOIXiFHdXCE8qn1DoV2iYtxFVqgVpyP3WytLIK9svVQ2UoK2p8MJlsWu9f1xFJSihj/wDIKKAI2XNUC02qSXiofxiGPRpCIhrqnMQgAB0jsFVaBoHqhDfE4pAtzg8Jsumw7YKljkG6b/JgUwDeTn2xWgIIh6NLhLVVZBuulRpi2QF5Oug34f8AFww1+sND3LCv8g11UCBhwTZsREqCwkNbRKvshzBW0ogF4r7sbbuopXtcx72RIlFx4BI+QtasltsC6oEEQQUtLeK7mJAuO6/Wy5WhZy1BlL2EF2Jyh1KT8BWgHQgS2yXuq22KAVhXRGWMLfZAIAXY0FEdtQAgasBYiUfUBYDH0sdhQNAFA2e2pksAbUALSuqU4fvzLORJqml4jWNSMpxCDFRMTz1FsWniDXDsIAEtBRDVvimVOBZS4vgIZPDb8JL8YFveRnOFgZ9Jf1OQtLEKsUHxQgKmr1AaxyBUcE00qEs8pPWQeEAyRKk9kJVF+IBrDZF2o89kW3yyM64CA+2AM3VJ5hMcj/0mtNTfvt49QlLKAK4rKlbToq49XqLmstj24r9mEmA4CD4TwV+wIhQ0FK6qG4Cv6jVChiw1cJalK9qP/kcUas8BuKMqwSWLsCApTWuQDQjtyp3ulvkYmQlrv2MqqYjWcWheAgDzLOEDP1qO9XlcVH9Ik0ioAxfbKJcjCxhTWyr7K7hACapFkmtthkWTgRKNvKzCEs7gwK2U90IOHLz1ES3pwEof+oM0alb7lTa+5UKfmFbCwNLroHB6sl6gR2O3Ebbhb5YNHLXuIptun6wiACr/ALEXaCeemNZ4Xncs5eGN0YDSUSz+JUpWkRpeNFx6cDQIBNvZdGltTFIhul98VFHql3SOypOwVwG8kb3aDK8pUr7YWe5gwDZ9ziJyTAefsdjbCpd0FNr7NgtFFD6lwOdxLFJiQ2WVC9J/Vw39O+VxceNsCCkeosGqBbAzILrqF8FFFw0tQAvu9myaB7CCm/iOcRtz9RZQ76Oph5V8dTO3F5Ma5Zu+iIXEKdBYsg/1gEwAr4epRIwELbhboY+5VuKlvNisKAcGwvVEP4Qy2Jp2cwbcC3y8yh9ITulzL6C6ntg2VgbruWQCwHBfLHtslWqe0qcRhzUAfFQiZxTNs1uxQhsU9xkAumpS0tovZBL/AIwFBK+m7rH6ZYW2rj3ZL75P6qb2NCuXczIjnSxXNWgxOx6pi2o46RRoXkLlV1IjlLjY1Ti2ZCFsRuUIDyweWXAnJKckwpyKeIlubd9sKG/pgQ1DiUdf2WRfDAFxtUC98ErXQV456ltQ1fYhoa9mUIJWChlO4xABBv7ipRa/VkrQVr6YY26rpGX7Xf4icMDS/U4isa+ZVRU0PQwXFJmaLC5hta87EJl9LIQPECCKd0QNF2pfNRc6w+SWzFoJjb3CQbVa68oVKIL+uLlQ5B7L5iaApCTLC9IWxB7C+v8AsXFoLcLITkj+oBLXmMJFhFHVRbjRuNvdIZb5gFNh5OxnZFntmr0H0/8AY+G/5K1PqFwcSl2QNUXU5nolKG6mjE/yVc7PqS1GiLT07G81kPsoiEhrkRZKRfthPaBLPcMESTB5lthzrDeGHNzbzUcNQTNdtGeLtKLyIo6hYAVcXGw6QPEQ4LrXxcuEW7YGJ01L4IY+kakkpOGVA7vp6itemOW+IQORQsAGgrbKLAYL2RZ8XeZUTiBrFh7lGrr6iPb6IHrUyMzRdUsVPRGO1CmChaiLFHiGUnMNjHm5RJRQRs7ZzagWykbXSjVQ5T98SOb2A6xRP04lTLP3IIKgD6SIjOiWQsvfbzO7i6iA6odU76ZxASPah7gBgHPknOiBeCkAh1VoHWckn0mw4S4CvBGXocIhTapUAEm3blkduPuLfC5htMxJb6ln0ZR53CBHOz7IWtXp4YEAIooihWhK6YAo8SruIxWVbkLnPERC9wuZdwDQ/sNd3hH64P8AsSt9+ke1rZS8nhMsFwn2zmRhL+7HmPaurgmgth5wGVipOoWNgKv3DNabWiPQ2zKBb5XBYhpb8SuwDH2ckGYidRaUviA7SoalJhC3LahAogC14lhTvGMwbccGCAXMib5khS7pgs81CGB6I03aIa6pmdsupHuBET+FQ3ygWXEC/aHxHzOIMQ6C9QUrKP1sQsP9rJtN40wNAAhfEA+LB2JGAQvayWeI68L+P1lTQ2Nw71GytxP2L8pqCjoM+2W1eLsjnTsqy6IPRKq8MIuw/wDZRqqRMqR09wPHQ7yUVDwIN4wLiplCsYI9S16YKP6i8MPlODYSK1ligUgIK1UqfXEyqDUsvYdJaAfbORXhUReXL7Y4Ww/7K4ENs7Gc/A4F+L7dj9rQQWMZJ4ietlBDSDAisB9TiIfSH1HfPicwPUCRNTIsKr4RXqMQ8xoubpHYLA1KAdKh6M1yzTwAglmnPK+44AALuumLALIrDeA6+yck7I3UX4ZQuL44gy2qsA1gcxBRcy1HQERA1hvWzBKK2qIZL3rGWBydRwKumJUReHLbbiFZQu3BArMLWsmoLK2EtFcv9gWtIceY2GzIvGjsUJ1UG7h59KppTbiIqmWMMFTAtxWzWB6lZndhCKdEYpfCAB9CJs4tQflpbIj0bFRaChdaCq/ct8Wj2XzG18wANBGHEH2bEgTJRDAotv0ylAL1YA0IKd2hlOhkc0qCKqGXkecQ+7aF0ETIWhavM3IBOoj3vV8x9YE0+oh1rVjgljNUtYpzqUttsScgu0PA52T2E2Gp+mMr0NnQTemUJ4VDsVLiDfw85MgsATjoh0rZSqot+oFHViXOBj0YYooUOQEYrWEumwWX/sEsR+s9wgIAG4cnkHNY/MckfKTYhsEvcN+svySpOb4uMb7UvoXrzctcK3fuDIueUGNypZrI0h3H2CUGBtITYhWRbq4mWvVQwDhmb50jqWWp5iPXYAV7lAAhkXIbViZ8IQ+YAJUshdhjPgZRThewHbNMALpEAzw3M/lCDCUDCHRunMClYtkucICwccGOY+aJZL4vlTLlncT7ZpIPGxqHwDWsDF2Dhh2xCIeMvEqTQIgZjbfPUUkZLKuIsalQcCCeh8AFtIm/mLQlC9hFQOOI8h0hASKWVfwXoj8B2JzGOULSXp4D6Ygr2QOTHmXquSZDAW4JPo1lmPCQzVxc/HZEsCgAOZaD5LML/SJOhk6LJDly5clyy1qV19xchY0EoJ2cRLFc1abtiX8ldrA2MANWys8YVDBlFpLKOQaeJP3UNN0xLZkIXDXeclBJcCVollBVHiMoaeGNeOtJmgIpMO7QGj1HIaanP4jW4FfZAuAFIiecIJVrsqLvCb1bHSmhloaKhM3h1WOcgZPOsn6yqHMTmzkS46rys5/ZwISlAdjESAAeRDO9RhRmW1FQILggtMavVssT23GAx3CKMVFqXpKivyWMsfhFjV1gp8akCJ3xqpi28I42NtK5EuXTLuogT4kqVCrmVCcxT/2JooI3PbQGkhIJbwSowuKhcVMDT+lxm7aiiAwHui27DSn6JNCusWWBfiIcpc1I5EShwxn2xTbzczPBEUgIq4clv4lGE5Y6l+R5Y7KFjpL0NpsUoDdT2+O+4TRyWGeCkaqHDAu0licEuQc3ktO9EZAa4Z3IYm0a/wBxFBg6jlRG4OojK+2Oh8QPtvJZFSoNEQKdQtEsv7Yao6hmJUKwCMhyXlGBOqFdWGARwo6jCEpQcBDYxI3AgBQigiInZXpj1B0yiJgPDENpO7yD1wzNIsg4lkkaHMZQRNZupvjrIybt2YxX0RdGA2G4Q1lFUjK8oj7mIbS9JemRkhHAERpcJqWeczzsRsv4cANmw5S/uWRH9rHbPgKg+KiMBWiMLPhRn9ZiGTiuCLBEq5BFhZVjpOfl9hlLiNRqW0lqx0PUugQ1VISjljFZLLQiIamhk4VDJwiUwumwBzOBieajdRYVcZoNYVeiX3sbTS/jJUgofLOZBXIjSpehJWibsDMESkjLwXcIdBjmMSaQdshlkoweD4jNEeolG8hWiQhMIZupQCVoQ5Fe/hVjFVG8J0Rh1EfhUHwIoEWHykqpIQ4iqWqKjYGoRBYF9QIxp8Ss2XOwkK8z1gXcFCQQN8fDZ0xCeJlrzEjeG1E0nKW60SrM7CZfC2Oj4NGVhll9fL8bgzn8jYTXMBThMy8R+DmJqcoLE5sFslt/AWW+YrUt8sV3fifKd/AK4ifMTfw8/B1Oof8A5P8A/8QAJhEBAAMBAAIDAQEAAgMBAQAAAQARITFBURBhcYGRobHB0eEg8P/aAAgBAwEBPxBPoIzUQG9IGjF9m8R7GPYrhPMFETcORVuWRU5uORzFMa4tkYQUR/w+LeLCz/JRNxH3AJkqkN8DAweII442sUsCOhHkx6DzWOpwZd4XPWpizsEkQAZKWEKoZVlwfBTENATKajIlaG1BUDWdQabnMW4TqQIcnb4D6c6Veo2n7FUrfhQNhKjLdwuTUJkrwS1/BU/cGi+wcMP8y2H0IwUYWlCSISaSqz9oIk2hseN8b0oAcjU4+IyH/wCDkPgYmV+M/wAorB9QZpC6+aGs7ifollFTIBOQkq1gg4y9fUtc+7mgjwwqRwWXAJYTAnEow3zhFlUUIACGklpyZlx1MWOxMDOPlniHfjlNr+KlFcGqvfhRRrzHaMrLyyxliSlHfM5MLJPI+GPX2S5GCFxUpfiGGV0BD/pGmQAMcynPmbdS4fLkcrx8JWoxtFdC3uNmMqn4X4OQ7DyZS5QNiNPZD4NSIq4wnsoDHWmPt+Eb2XqnIt6eYaIGn21MQpuoIruZyEOplYVNCGiPMuESEph6ko3w63LpMIza2XQy1RKBaZAPJ5DXuUvhlX4gUSuixGVaXBFGhHUSb0QLjTQggHhAq5sKZb7P4kArytE25BFkQNQqK+ICPm38hF3Cj7IAe0SlZVyYPqcJeRStlpFCTCOdocGb6yrWJ00nsJFnC5TP1hIOQbZqV9BXIEVksicIQDBUSAdgpsuI6YhG5Fa/ENVsirsU5cYqYrw2k45gyzCqKLLYXA4v7GAlWE8kdGcOON8ZYgGjXi5ZwqWSyWCZqxwFdlohpjOZsl0FEMbEENSJCtj7Ay+lU4PICBhKNQDlSpHIJMEqIo+ERzfHUCtR5zUwMpE5UBg1l5+WscuJaBgNwYLaRLndQfAtRxjmhHr+R6K6xMMArvaWRflOIDTFxIBe3BIBLi76IugUDgPJZfVgOYPFfZEtEXQ8MSvyAyABRKrJbi5JWktCX/FZqOsaVcJHSppqfcfrAwLbdUB9y2rIgsCgdZ9QCISkjoZUv5e0avBA0JycJoYdAORgTkJFhDqqFl9MsW79I6JSx2FamwNdKaDI8cEEjp7Jc844xqXtPWC/6wQCnirsQqcHzq1AEqAbv62RGfPOAOX9fU8koTgVTvx5IPBZp7bmH0QgEtNEDizY/A4qUy5TUxVLUOm8ZF4UuqmGaLWDuxZcRmO5EnS0Ys8CoV1mGAlRP9linayC6XJRipmpDUfuNTRuZDAisMoISM6rlXrYMATPCCRNWDyCDtegWdkMRDwYBR+4xwQDMSG+4UewJVPDUaOrH+rcaK4cWELF9iy05AY2IDQPli49B2NDQfLsA87D0GNmcmg0+D/xAXTrej86wVu1hS8ssAAPhAb8GkEhmEQPgFhSdYDAknHr6hVhv49RFyuMbYZVxZ9Q6Bal2YRJVUQehch+Y8MJSG4B1Qn5EmaiJBIW5YWeBbAbxYfVICsDucMgXjoR/Kicw4ko9xf4UwG6CCMF5Nj+lDLve3GrdQRFa97Y+/TAaix9JRQWgKR/2BS6RHcUwwuhggLUXRZzX2RgTwHjtLT0RI2gFeErLcr1CaMv0McQMpEeF9LWMWoXDD//AAgoVggc0Mr4KkUonV7A/hK2fCRYCPGANnCcXYVdXC6w+t1KcvG6juzQSmBlCY13iFOpSXCxCi2WZsMgakux6Yuq9himON1pGyHfb2xtJjdQmQ3lubXuFNC6/VSnn+o1pTKZwFdt5Fi3owobNlSADNx2PNLR/JhIUIKHjPcQZBlXSHVAPf8ATvbME1CIOlHbhknU3fh6+oAKQXVAc/eyviyIIfS+K98kJKp8yDjqn1HakVt7VWUCPU1g90Dzfd1WeYVGB/yy6lvwsXYkto8vqOsBR+hHdvcg5C+HlhR0Eg8uRGkWg2KyJdUS2aVxAMYjFRPSUi9gZEAPBEH9i6xBell7D8U8Y7uix7LixGXMaUaUu9PEciYUtf24J76fC9xclWQ9g7Kw96v5L9SCaeC+mJJO5q/ccVSqeW+IAGBGPKhf5FXFa8H7SeIakqJCp7gfUUI4VCFIYKUUUEvLqMVysQ9a+wiJDvdW2GzByz1xl2y08daxPOCiBtWFK/RAcMCwUNzz8Nnvwu0obFrt/YkFXB2NS6MQ5Y5Ra4pb8ugS4LUlEejRpyThOuSCS8a4TzCajLhARoHUdlSpdVxgaDsy8kWG3IssUc+o9w8/Dq9+mn9O+LH9lVByaowrKilsLoCDjX3BI0ODz/sGvUVx4EOXMzOCF0nAuQWMS3AeyxY8/craaQJytnkpOAJANx+MCVxdhgAGtDfS2FA9YiiD3RV3WdENl0sLSCW2/IwlGKwUpSG1m4wP1ugP7CDvRlGQ+0cdgwt0xfaBf3FQAAPIEIsOtkAhgzPJpURauki/mQKiYugbmPd7kSxyLQbSIo9oSC9ttPEKEQxkqDdRBEwOyksHzHZwMCHYPlAmf9VvAjwq7QUZmGsULA5pKefRUMBs8IevyUTAXDbgSDzz6IuIbLhPWgWx6EhwozP4g/KhOVgteLhBUjSRqQ+jM2hm+EXQp7uJtvCMA1lQolH6PrYXC+mC+JfvNjYae/jL3LKvVKsdywVP4kQadQ0S7X0zH1F16VxP5CBSnxEDraX2cIBD9ux4CyNqIyCeZr/PgNM3w+ZcA4zeXXmMTolq+ZfVMIylX4RBjo4HoRSRKAuVZFwxHDUIKXaxqtL5M1NG1FctufdSGJX+BBFI4qG68/hEghSZBFm/Q8+4398PoSrgewZEQHVSb1QVSoMC4IBNAKUfKJHlrsssIciqVrzPCA5kr80lAkqVtTyYEp5u+Rl4Ax9yqvmC3vmKiIS8jkMcStwNNv7OXxvuiGVk8RviIKO/aBFvGAUYf5ECUBFYVffoJ3Jkz8iKje39h5dbRN22DlwqZ3LAToARUtSwFQ1nBovJgVJBC1XC5ZVnYYgxkvdMCelSoGMU/fEL5MA+fH7hb8cAUaSnGshfohpVOnboLCF0Fv0hf+w0Ydj7g0SlQe4bb7qDn3UsqZjPIkAAVb3P+4Bv4UvVMHwpKc19bb//AG2BbDRb8K/2UJP4LyqVrahG3iyojekAA8kf+/ogBecNT2pTzpAd3hGezqjuRjYuC8WVNRgtX2VPUUnKwkU8mn1deyLUsVcwN382Fb0Ajfdjz2oyeOgRPCCMbxmUp+RTILk59uKaAvXzALo1+IKKOR2XtYGyL5EXTIEWpyyMerUPAjR/sAL6X9Zc5cJbLa+pGKUvPcf/ACQFV03HCvGB7jlOBZg7daSvKnRnSLzqxYXxb2W9fQXgsdA6PGXfvoF6hkhBTaqtRSyjQuj/ANjL9DAb2KcpZRIoAXA4bNnEqVwK4DWWDx+RFYZdLWeUtiy3aoHd6WG5B7hoU+YQEdseagZEpZc/uF2JlqsDmwqPFInc0076ERdXUrxLQoiuXAMHj+Sj4TKo8q7LQYhfcvoIVHssrseUyrczQJfwlqiqNh062CG16V5l5TWyPU2vYisylRTkqusKKptUTfQ0cte/8RBodoMSKFECgPdhBEA8wSHPz0YVEfIntAcAn4aWJE+nII4Wzpsv/rWOOEoFCl/8GWNg3JdNvRbLbV9LhkPLeGXn/wCYk/iQRUxwRX6Ziaof6gZHzjAFL22KiGB4tGqULBfcuNYkF2oNcp6j76oxdVCr0T8WGK84QwVjjA0F+ZQt0HWbcp8wLlWd3Q1nM17GsbWylXoVUR9dal92ZKm0ZU78Wn3CztKl6EVYu1TCcmn1Ate4vr9M8sKK+9jirY/pkV4LbTot5LLbOR0VpB+x5FWF45LJYd8J6uOCs4fIysrjSa1BXrwVdfH6qxamOewAVZ+RZy5L8kIlTz6i4Dj2Gl/UufRV/wBQirUwI+3l7cqR9Mu2+GAGsuZzU5ACt+T8jxUHP3OE1/k+k85Dr5Fhjseooun47K87a49rstgwAqZ9/B1Qxoj4hteCEz9zHmVDld2SoyDxcRMcv1ycvaa80QWXoS6sozykENi7YKTU5hYnYkvjswQ0eCICgmMQ3th+kptCqR9K4SMNF7QxJlT0xnUI1+R0p8y+YIDb+/cDrM+gjWQjA0xU8P8AQS7KkpD8AmUN53IU9QjEfWTD0djEpePqcDxjGQ6tmwdUZG3b7F6zcnlGa/MrlpkmEJRA3ikPKXBYrwSnNQRPsnlBjGjAqxdYNv22WlMFnrSVKwiK8Bbgg+mXGG0rwku4cULmxsLSgxEpPwC9LIcNOeCSvFs5yOi6/scYikladt/UMvtAzRZXjJWLlU45AbyWzLYntTi4BDQo0/LD2Ulnwn7QesFX0kFVrr4+GJbhZeiTSYuWofRDgLGiN2V/iMnDGttqxGAHmGi+AmxcYxeAjDPLBdvIdCQ8BYKqEa5ng8wEKtTD15P3sOCD/wAIvfyEqwAbMGMchKmAjJ5SpCsBFAVxHsyvCKVWqSyOXTzgMw1deFnLpw/kAlQcZVJCV9tR0CWPiLbGv0hTMUjqe/yETR6OGIqyhTEebBgUXmX+wrFthwwOuBurCckgPLEcpkPAcqEDAt12VgOh/wBkG4AP8SKtAU+xFEWBZE4av/DEMN8Eji2/cUFQUJoHmBX5noM7AFnEYZXgTxUghHhih4WEPhLFihgU0cXYancKyWt+3xAvVkVfWF/ENg6BhTnpZDhVah/BfZTdtPEHHZpzYllW3z3ACb6XDzUuvplqoBRutUkPxhEBwnL+R76Nljp0sZuLRi8mLpMeUB7JliZZ8KVGC+uR0eYSgqstOryPkLEHo1hxCsSxDw+rgZSg/jWWs2IeO1cYioP+YDvQ2eZSqhayqo8f1NkXYI0bNQLTVD+MsUAeIKQKl+OuwHG4ytbXJdV1MR/Y6KSwzTIbrBPI5h+EqX0hIBa8Dg2aOwm3FZ4VQ/kLnTaC9WIEsJ5VvK+2FrvqqzPL+4bD/IHYrdc/d9QumVYenhBaXOKYUQmajyBSxD1Riv8ApLgzYfRChfuw4IxiDaWquI2BzSHWOgv8iBxG7LKarOFkcmFp9eI9KbV8nk/1i64/0nZWlg4LXhFlUBZ96yzx4/3LGAH2D40mUiC+7vZ1ORoWZBCxSLgU8OSpPLKSRCU2O/psZFzyImPCL4GZjcq5Tly0qJbrS0pBN6jLWMg4AQrU4pTWsZYUa9MPHeizPhAOoD/tybSNRNdsYZjQA5b7lMqO14wzc64Ac191kfysgULL/wABA8N8ppFD33Ylkgoc8w6wcr/4qYCGD0vmEzAAA4H1LqheTWDuxQLHjx/SUoGmP2Zi068jVpraMI4Yt9GPGC0UL9vjUtYafcXyVwqIJQEoDgoHsJkYG/yOHPEdBBNH0cnJctGzlG1g3pAY+6JRJqk8CBoezB9LleCUgX2aMGYwp8kfrK+Y56EXWuZf+Q2cDXoeSHxi/o+1+WK8bV7gl+j2z2wGhb+M0LYrgWnA4yGMUEdC8XAFeJAsdQbcYCgnK63gAwkwKgwiYPwX1jUqhv6lhdC7o+X9vYxmoWvA0i9dYRYafsYp1BLIlcSHoVYFYFiWS2OvqPmuzSgzNff3gSFHfpgjj5K08MAHg3/pcehmjs9FrGB60E1uaVxGXiINYW4So1gEQfNypUZLRg2CBjNIJXhaRQ/1gUpDpWtrvA+4aMOanEVYPl+p3h1WlH7jejBZJdGD7DE1Rfb21QRvKIoDXi8/EpsFiWWWQ2LApltC2bXK28PIBR4qmgl+ItZICsF8qWatu+KQfT/D32oDrQ//AGWILW6/bTX/AGO6e35IFgrpSqxKDQrsDVA7nsa0QZ31LtD4X1L5Njur637hebrKVYdSEj2q6K/rb9l4nzeGcZUqwFpgUIi7FL4NMHxsECoAhiC/IqUQiM1Q3CeHWW8xuODtE2RjeLPmN3JbHBs2fDUSyhbx7D+chhFrQtOKS+WkAej42NjVjJpgfoSUamhVnpXz8iULUr00NeMHZKB5ultPRUXAMXR5ACpDh3ZchGkShNEzLlYAVSkeWRa10GMuEG0+2ZLqjdc+2KnoxE8MuuFbca4stSIkDicv69wQAr/wLBI1Ta7UWC4aGRfqNuWGjVBkSIXleAou4ECclyton7HgRiXAVcyaAQnxnZpAG1W5QPJBHrFHrxKOyelDMuxACrEkUG/aYSljl8l0GxyEW23xMpSwtS8izjBeWWp2iCpjxFxlWDGOVoNmAhUNVA0V29lk6sBA+yNYqN89KIOTklQtLhq9fGugy10RABoey+u00W/y2ArfZM/qWOjtnBI6Qnn4ohUqCj2xzZkl4srqy/E7GIWrIbR9L2AUUHQyWX0BfHmABgI1QVBWG3+R6ATRwQ+R+o+drbEe2HGBmRi4VU14W2LrSgXaJXQLg5aKu/c1AJs854+iB1rRMGxY29jgsbhYbUwYP3fwDY61/hK38jcnwolu+5hRFoahLxamDx8aCMG0aw1VIUzwAYCpd8PbK6S8NRiOugsrgUYTWNAlX/glDpQt+w4V6b/2JUUdBbDFKS4CumYxFXp6vtleI1VruBHpTtryFW4Af0gFtVd4wg5cdhYY1FjGFFLGEc0fpGicXG5XDlSyvBKwIqrSuh4lNIVF2Wo7NVgwe/KEzse5eZvhSPYQX6PqNrSi69eWOmEhzePmIryqJeqsJoHgiIqr1+SA0C6hC7TOyoyu+TAOxDzFLdrZgvTKvQ/GrUSSQjs55+EGKBfPtAL6H89xmqWilQis/YEpGyGxFQSmB0Kb4xS9digNliV7m0HytlL4ogIzt+siW6BuinKbFu4RGzTp/VjgLA/CORMtdrzRFrnE36JiUck8clx8gq9Qa+AU+2ETSPf8pjpfDyU+f7KoCiofHAvNTv8AkQcfY4UtYdzBF529jfbV+j1Cxq6oqGS2Anh6VFy3O/NryCRaAFvRj5LDSEpfqbFaM2bcimVZg/h6Ikc/3EPP+R9i5jBhggxY/s7H5hUt9mkQqVsebAwYZ4TySrqwPtFrFqB0rLA1YvL1BXMNjwwFHkfDKVKvN+IDYOzMFdvBlR2j9vcIcf0eeJo6BpGNrWkVE1Aiicxo8iZCBk4NVVwkLChKYst/ai2nBThBC64fyHKejesoCEBDZY5cLAiwtv0Y41FUPAF7+LBVSeyUz/1HTRG9/wBjt43ZAfdafH/yUWoEaPrCOi+r+I3kBQtTS2p3xGio/jFoG+YAhw1LCX/Mrrz7lr4P1hXRG/RPCJYKAeiCM8/2WgQyxEu33KxUbDAQ7IMMIbMPggHRRzAVH/IYCenRfCX6CUPS4RBibdJCIQCEWHhFnLpo4MQy6QeYhfYn8jTxvmOtja/BYSK6qFatxY67ElxLAB95DOl1hhMaaKydS7tRJnFn/W42qfwEZYrY35FxuKWr2OE2IIZCC+MXieSJaCNJ+dvtOzAJ6hag3yeROaggEubUVeIm+UTqeBBpM/tBvA1AgpbINctiC5/BAxb6I9gygNe4QvjXw9uEWp5B5qpjYR/iUS0A/wBQDoBtIhD2cjFhr/RL/wCsH71D8Gq3seMcKgbvNo1bkLD9icqHJgt5U9yvtsAAeCCAHfbDQ9orw1n8lJT6ISCuGuXMSTi8hJm6IDDVfEwHUL10dF+LLKl3f1LTXzFBR6PZGdjSXHyPuInQQmK+j4J4zsazLJlUHzkO7Ef6XiNTsKo8YVB0KfVioUqkn2f9Q4tr/mWG0J+wPPajdUwp7Vw4+PANt+jssnrRPtl9Be0Rj4AU+uwhrnYHSCyxYq39E5g+5ScWtw9DP74hlkVZVAEAPZYBAiNOMqubL9j6ikChDPcF2KsgiV1vhKrh4IwG+rhMbalwFWIKyuCE+kj6RNmIWAmKjyGlJ6QilHaghQoXPMy1OcJSuLBVa2x6Y1nqe6doBTvBJl2Jv6ljADW46inKIAnn6lqsH0QAaRoU2YAqxcFB8BM+CIMZAaYj+DEDtAFf6oK7fSVWxjECzaEjnVag8hK/Lx71eYuar3ADpZyCQ/ssIZAjc0/5KwIUNWOpFahVw16ZXtt1EiABuXlnpUQA6P8AxASoCjBBbP4Yzegm415c/FjDDOoFgvSRFbalMNE+J/ILctD9wS1WPFFoRL4H/eEFthm1TZUfR2QBDyQqR1RIQLqklWwlrsLW1+4O7R9kdEPjGs2tzwY/9LgFLuLclJVmzNc/kOiEg8XPETnQ3GvrbiOzJV9wZV2FcgtYm1uLAsA1ccwtuRxE1iMzUyFlxIG22VQ6kK5QNRuKZo+ou8LzVBbFa9BgaMT/AIENdm36IvtR/aZ+S0H1DZvpAXaQ0dI1Cu0S7dZThUA7ZcLao9xlNKV4pgC2B4WyvuXKviHw+JyoN32VLwFKX8Q3KLhSGnMf2ATRwmBGkYFG24fk9DKbFdZXgQ9dcuokJKqggAzLqUS2kShbEgAQFzVRLwuLbhIpDy6Yf3qlyA0YShyQMQLXP0x8foblv4QCc1WgApYMxCrjLeHgmsdgozkXqKP6g3fU02HaJmEjzt/sq+RtUtBHSCHtlvlCy134EFmxeqmdJ5jRlZKR2VAwg4MMJZuGEqUXSn8gOD0kw5uKGCgGVnnHfqM9FmBBB4d+pyeGoc0t6sJNNEZMKoilWUEjxcF2vwbOQTkHpiJeOxyNGbalVUsCwxG+iXENdQklFUNgo8qSI3sChUPlsStjlWx92LLkCrhEfOGoPakODkfeiW+6L4upTPoIuMDCd+pyjQRLU7LEHIPR5jsqD+iQ6aoKQ0LEWj2eOAIjEPqrKIPeMOkq4WEL5KGVCVd2gqta8S1RhAMOxBpkKvslDjC3yBVRbsXoS77DCFY8z/sg8Zcpt4IaM3HrD5taELZSTdXUohoLHK/DKIgBUvYnF0Fm+dbKZ1/qeNbSKuDHsVuRdEVNy6uoCXUKxFyzozBANCLaeaM0WamKhbzB6KFVNtNiRECgIsKE0aOQBK8xJElUHkyorpxuKqeLOIAcIVSCKx3LsGu5LtRwg2/FAR5I12Q3TND6g49E5ByUKVx/aKI9lS39QBgRCFGmlbFhRjfiIR0n8skuZSokyI+ABqrLlXJLwisAlxLTc4TNIy2I+4MWfoUx3V2oQXzEAJpJZ3YiHqIb3OGNJDiSy2WDeEQsekWB1+CkD4UuPibSt8slwp2ABFIPM1SrZqI1KTkNUHSdmH7UbS/1hF90jOpYEIWuszDrLOd8RFgg2CzDyqX9WIRESTNI6fS1BSsRAFORC94RE8b4i8fUHfBrsK2phjrGJRHIOk5CB+Cec7DrfozdEjqWpGyJdfwwxcJxkQUPMPh5lr1uJWuQ1BKeBUF2JXFGImznIKRSCQ0ewUG4ntq7Z4kwl0BbBpjVfEUUKNXLLGkzR0x0Aj2PgQlyuEnxEAggy8HxB8FCE9IlJCgJSpCrcDRFBsPwI6QNS+UO4RtwIJXKO24ZfmKay2iGvzKoEBldxCCVtDEJMWdiLC44KUhAwUkpAK8+EEkeY3Kq6gREU2coEIJ/sERDGS8MMkSkG2chaEqhtgl4IRESOqlWxltYBDFKC74qVapRj2MuwMo7DUu1BYRpKqLHdJjR9TSSrr4qpOpREbxgCKTqQusAyG82xmUFX+Htl7XqxKE3lHU5CwyQRUq/xLUdhuyk2eUmCx8fYiSs3KjALwliCmFUqJtwKCU0gAwLBHEeQMTRNq4DV2Nr2WsoszOGKvwxF5DpkwdhmrHqOHwkPX14QNeYMriDUYGMhsEQBLVGa9lG5Mwhg0JApQuM0jGAhjBvIB7gAbHUD7ju4OmEuMAlQusGoajGVvIK0bsYuCwdFkAJTUCisqRyVEojoqFAwxlfi3xAnPHRsodlCTzQpHLMY+BZfiqelOgZT5lOWw/WG4b7A12YYwbrL5sV2K9xlLlrZaZBvmBD4G9zuT6ZCPgJ38JktTUcX4GoMssjRefD2S3YwwBhSSWLPipYzDJaJ5PgRFfGytE4ITvlvx84JAEc+DlOQncEQivg78lgyoSvgnGdzg+IhADE5seEPMfgj2MYCnIhHkPjx8AZAMgEfEPhxPcbfx5+RH48TxOPlf/Z;" vertex="1" parent="1">
                    <mxGeometry x="41" y="220" width="768.46" height="433" as="geometry"/>
                </mxCell>
                <mxCell id="3" value="&lt;font color=&quot;#000000&quot;&gt;Hauptmenü&lt;/font&gt;" style="strokeWidth=1;shadow=0;dashed=0;align=center;html=1;shape=mxgraph.mockup.forms.rrect;rSize=5;strokeColor=#000000;fontColor=#ffffff;fillColor=#FFE6CC;fontSize=16;fontStyle=1;rounded=1;" parent="1" vertex="1">
                    <mxGeometry x="680" y="230" width="110" height="30" as="geometry"/>
                </mxCell>
                <mxCell id="4" value="" style="ellipse;whiteSpace=wrap;html=1;aspect=fixed;fillColor=#FFE6CC;strokeColor=#000000;" parent="1" vertex="1">
                    <mxGeometry x="288.34" y="280" width="276.66" height="276.66" as="geometry"/>
                </mxCell>
                <mxCell id="5" value="&lt;font color=&quot;#000000&quot;&gt;Meine Rechnungen&lt;/font&gt;" style="text;strokeColor=none;fillColor=none;html=1;fontSize=24;fontStyle=1;verticalAlign=middle;align=center;" parent="1" vertex="1">
                    <mxGeometry x="306.66" y="370" width="240" height="40" as="geometry"/>
                </mxCell>
                <mxCell id="6" value="&lt;font style=&quot;font-size: 12px;&quot;&gt;Rechnung auswählen&lt;/font&gt;" style="strokeWidth=1;shadow=0;dashed=0;align=center;html=1;shape=mxgraph.mockup.forms.comboBox;strokeColor=#000000;fillColor=#FF8000;align=left;fillColor2=#FF8000;mainText=;fontColor=#000000;fontSize=17;spacingLeft=3;gradientColor=#FF8000;fillStyle=solid;" parent="1" vertex="1">
                    <mxGeometry x="345" y="430" width="160" height="30" as="geometry"/>
                </mxCell>
            </root>
        </mxGraphModel>
    </diagram>
</mxfile>